<svg xmlns="http://www.w3.org/2000/svg" viewBox="0 0 1800 1260" width="1800" height="1260"><defs>
<style>
@font-face{font-family:'Wix Madefor Text';font-weight:400;src:url('file:///tmp/claude-0/-home-user-claude-bobik/6a3dcf92-132a-5018-88ad-a2068c46056a/scratchpad/dielines/fonts/WixMadeforText-400.ttf')}
@font-face{font-family:'Wix Madefor Text';font-weight:500;src:url('file:///tmp/claude-0/-home-user-claude-bobik/6a3dcf92-132a-5018-88ad-a2068c46056a/scratchpad/dielines/fonts/WixMadeforText-500.ttf')}
@font-face{font-family:'Wix Madefor Text';font-weight:600;src:url('file:///tmp/claude-0/-home-user-claude-bobik/6a3dcf92-132a-5018-88ad-a2068c46056a/scratchpad/dielines/fonts/WixMadeforText-600.ttf')}
@font-face{font-family:'Wix Madefor Text';font-weight:700;src:url('file:///tmp/claude-0/-home-user-claude-bobik/6a3dcf92-132a-5018-88ad-a2068c46056a/scratchpad/dielines/fonts/WixMadeforText-700.ttf')}
text{font-family:'Wix Madefor Text',sans-serif}
</style>
<radialGradient id="glow"><stop offset="0" stop-color="#fff4b8" stop-opacity=".95"/><stop offset=".6" stop-color="#feed95" stop-opacity=".45"/><stop offset="1" stop-color="#feed95" stop-opacity="0"/></radialGradient>
<linearGradient id="mir" x1="0" y1="0" x2="1" y2="1"><stop offset="0" stop-color="#f8fafb"/><stop offset=".45" stop-color="#aab4ba"/><stop offset=".6" stop-color="#d9dfe3"/><stop offset="1" stop-color="#8f9aa1"/></linearGradient>
<radialGradient id="sun"><stop offset="0" stop-color="#ffffff" stop-opacity="1"/><stop offset=".35" stop-color="#feed95" stop-opacity=".9"/><stop offset="1" stop-color="#feed95" stop-opacity="0"/></radialGradient>
</defs><rect x="0" y="0" width="1800" height="1260" rx="0" fill="#f1efe8" stroke="none" stroke-width="2" /><rect x="0" y="0" width="1800" height="135" rx="0" fill="#feed95" stroke="none" stroke-width="2" /><line x1="0" y1="135" x2="1800" y2="135" stroke="#111111" stroke-width="2"  /><text x="40" y="92" font-size="78" font-weight="700" text-anchor="start" fill="#111111" >4</text><text x="130" y="70" font-size="46" font-weight="700" text-anchor="start" fill="#111111" >Круговая порука</text><text x="130" y="112" font-size="26" font-weight="500" text-anchor="start" fill="#111111" >The Travelling Portrait — the card stays, her name goes round the table</text><text x="1760" y="62.0" font-size="22" font-weight="500" text-anchor="end" fill="#111111" >домик держит место; полоска с именем</text><text x="1760" y="90.16" font-size="22" font-weight="500" text-anchor="end" fill="#111111" >ходит по кругу и собирает слова стола</text><g transform="translate(40,160)" ><rect x="0" y="0" width="1120" height="515" rx="0" fill="#e7e4d8" stroke="none" stroke-width="2" /><ellipse cx="130" cy="502" rx="66" ry="28" fill="#d9d5c6" stroke="none" stroke-width="2" /><circle cx="130" cy="462" r="24" fill="#d9d5c6" stroke="none" stroke-width="2" /><ellipse cx="345" cy="502" rx="66" ry="28" fill="#d9d5c6" stroke="none" stroke-width="2" /><circle cx="345" cy="462" r="24" fill="#d9d5c6" stroke="none" stroke-width="2" /><ellipse cx="560" cy="502" rx="66" ry="28" fill="#d9d5c6" stroke="none" stroke-width="2" /><circle cx="560" cy="462" r="24" fill="#d9d5c6" stroke="none" stroke-width="2" /><ellipse cx="775" cy="502" rx="66" ry="28" fill="#d9d5c6" stroke="none" stroke-width="2" /><circle cx="775" cy="462" r="24" fill="#d9d5c6" stroke="none" stroke-width="2" /><ellipse cx="990" cy="502" rx="66" ry="28" fill="#d9d5c6" stroke="none" stroke-width="2" /><circle cx="990" cy="462" r="24" fill="#d9d5c6" stroke="none" stroke-width="2" /><rect x="0" y="30" width="1120" height="395" rx="0" fill="#fbfaf5" stroke="#111111" stroke-width="2.5" /><circle cx="237" cy="92" r="95" fill="url(#glow)"/><circle cx="237" cy="92" r="36" fill="#3a3a3a" stroke="#111111" stroke-width="2" /><circle cx="237" cy="92" r="14" fill="#111111" stroke="#111111" stroke-width="2" /><circle cx="452" cy="92" r="95" fill="url(#glow)"/><circle cx="452" cy="92" r="36" fill="#3a3a3a" stroke="#111111" stroke-width="2" /><circle cx="452" cy="92" r="14" fill="#111111" stroke="#111111" stroke-width="2" /><circle cx="667" cy="92" r="95" fill="url(#glow)"/><circle cx="667" cy="92" r="36" fill="#3a3a3a" stroke="#111111" stroke-width="2" /><circle cx="667" cy="92" r="14" fill="#111111" stroke="#111111" stroke-width="2" /><circle cx="882" cy="92" r="95" fill="url(#glow)"/><circle cx="882" cy="92" r="36" fill="#3a3a3a" stroke="#111111" stroke-width="2" /><circle cx="882" cy="92" r="14" fill="#111111" stroke="#111111" stroke-width="2" /><rect x="65.0" y="79.0" width="130" height="26" rx="0" fill="#feed95" stroke="#111111" stroke-width="2" /><line x1="65.0" y1="92" x2="195.0" y2="92" stroke="#111111" stroke-width="1" stroke-dasharray="3 3" opacity=".5"/><text x="122" y="97" font-size="13" font-weight="700" text-anchor="middle" fill="#111111" >Tanya</text><rect x="165.0" y="82.0" width="20" height="20" rx="0" fill="#fff" stroke="#111111" stroke-width="1.3" stroke-dasharray="3 2"/><circle cx="134" cy="228" r="60" fill="#00000015" stroke="none" stroke-width="2" /><circle cx="130" cy="222" r="60" fill="#ffffff" stroke="#111111" stroke-width="2" /><circle cx="130" cy="222" r="39.6" fill="#fbfbf8" stroke="#bdb8a8" stroke-width="1.5" /><circle cx="218" cy="205" r="18" fill="#ffffffaa" stroke="#111111" stroke-width="2" /><circle cx="218" cy="205" r="11.16" fill="#d8d0a0" stroke="none" stroke-width="2" /><circle cx="218" cy="205" r="11.16" fill="none" stroke="#111111" stroke-width="1" /><rect x="280.0" y="79.0" width="130" height="26" rx="0" fill="#feed95" stroke="#111111" stroke-width="2" /><line x1="280.0" y1="92" x2="410.0" y2="92" stroke="#111111" stroke-width="1" stroke-dasharray="3 3" opacity=".5"/><text x="337" y="97" font-size="13" font-weight="700" text-anchor="middle" fill="#111111" >Igor</text><rect x="380.0" y="82.0" width="20" height="20" rx="0" fill="#fff" stroke="#111111" stroke-width="1.3" stroke-dasharray="3 2"/><circle cx="349" cy="228" r="60" fill="#00000015" stroke="none" stroke-width="2" /><circle cx="345" cy="222" r="60" fill="#ffffff" stroke="#111111" stroke-width="2" /><circle cx="345" cy="222" r="39.6" fill="#fbfbf8" stroke="#bdb8a8" stroke-width="1.5" /><circle cx="433" cy="205" r="18" fill="#ffffffaa" stroke="#111111" stroke-width="2" /><circle cx="433" cy="205" r="11.16" fill="#d8d0a0" stroke="none" stroke-width="2" /><circle cx="433" cy="205" r="11.16" fill="none" stroke="#111111" stroke-width="1" /><rect x="495.0" y="79.0" width="130" height="26" rx="0" fill="#feed95" stroke="#111111" stroke-width="2" /><line x1="495.0" y1="92" x2="625.0" y2="92" stroke="#111111" stroke-width="1" stroke-dasharray="3 3" opacity=".5"/><text x="552" y="97" font-size="13" font-weight="700" text-anchor="middle" fill="#111111" >Andrey</text><rect x="595.0" y="82.0" width="20" height="20" rx="0" fill="#fff" stroke="#111111" stroke-width="1.3" stroke-dasharray="3 2"/><circle cx="564" cy="228" r="60" fill="#00000015" stroke="none" stroke-width="2" /><circle cx="560" cy="222" r="60" fill="#ffffff" stroke="#111111" stroke-width="2" /><circle cx="560" cy="222" r="39.6" fill="#fbfbf8" stroke="#bdb8a8" stroke-width="1.5" /><circle cx="648" cy="205" r="18" fill="#ffffffaa" stroke="#111111" stroke-width="2" /><circle cx="648" cy="205" r="11.16" fill="#d8d0a0" stroke="none" stroke-width="2" /><circle cx="648" cy="205" r="11.16" fill="none" stroke="#111111" stroke-width="1" /><rect x="710.0" y="79.0" width="130" height="26" rx="0" fill="#feed95" stroke="#111111" stroke-width="2" /><line x1="710.0" y1="92" x2="840.0" y2="92" stroke="#111111" stroke-width="1" stroke-dasharray="3 3" opacity=".5"/><text x="767" y="97" font-size="13" font-weight="700" text-anchor="middle" fill="#111111" >Sasha</text><rect x="810.0" y="82.0" width="20" height="20" rx="0" fill="#fff" stroke="#111111" stroke-width="1.3" stroke-dasharray="3 2"/><circle cx="779" cy="228" r="60" fill="#00000015" stroke="none" stroke-width="2" /><circle cx="775" cy="222" r="60" fill="#ffffff" stroke="#111111" stroke-width="2" /><circle cx="775" cy="222" r="39.6" fill="#fbfbf8" stroke="#bdb8a8" stroke-width="1.5" /><circle cx="863" cy="205" r="18" fill="#ffffffaa" stroke="#111111" stroke-width="2" /><circle cx="863" cy="205" r="11.16" fill="#d8d0a0" stroke="none" stroke-width="2" /><circle cx="863" cy="205" r="11.16" fill="none" stroke="#111111" stroke-width="1" /><rect x="925.0" y="79.0" width="130" height="26" rx="0" fill="#feed95" stroke="#111111" stroke-width="2" /><line x1="925.0" y1="92" x2="1055.0" y2="92" stroke="#111111" stroke-width="1" stroke-dasharray="3 3" opacity=".5"/><text x="982" y="97" font-size="13" font-weight="700" text-anchor="middle" fill="#111111" >Sophia</text><rect x="1025.0" y="82.0" width="20" height="20" rx="0" fill="#fff" stroke="#111111" stroke-width="1.3" stroke-dasharray="3 2"/><circle cx="994" cy="228" r="60" fill="#00000015" stroke="none" stroke-width="2" /><circle cx="990" cy="222" r="60" fill="#ffffff" stroke="#111111" stroke-width="2" /><circle cx="990" cy="222" r="39.6" fill="#fbfbf8" stroke="#bdb8a8" stroke-width="1.5" /><circle cx="1078" cy="205" r="18" fill="#ffffffaa" stroke="#111111" stroke-width="2" /><circle cx="1078" cy="205" r="11.16" fill="#d8d0a0" stroke="none" stroke-width="2" /><circle cx="1078" cy="205" r="11.16" fill="none" stroke="#111111" stroke-width="1" /><g transform="translate(130,350) rotate(0)" ><rect x="-32.0" y="-53.0" width="64" height="106" fill="#feed95" stroke="#111111" stroke-width="1.6" /><text x="0" y="-37.0" font-size="11" font-weight="700" text-anchor="middle" fill="#111111" >Andrey</text><text x="0" y="-25.0" font-size="9.9" font-weight="700" text-anchor="middle" fill="#111111" >Lee</text><line x1="-27.0" y1="-4.880000000000001" x2="27.0" y2="-4.880000000000001" stroke="#444" stroke-width="1.0"  /><path d="M-24.0,-7.880000000000001 q2.1,-2.0 4.3,0 t4.3,2.0 q2.1,-3.2 4.3,0 t4.3,-1.2 q2.1,-2.0 4.3,0 t4.3,-1.2" fill="none" stroke="#111111" stroke-width="1.3" stroke-linejoin="round" stroke-linecap="round" /><line x1="-27.0" y1="6.719999999999999" x2="27.0" y2="6.719999999999999" stroke="#444" stroke-width="1.0"  /><path d="M-24.0,3.719999999999999 q2.4,-2.0 4.9,0 t4.9,2.0 q2.4,-3.2 4.9,0 t4.9,-1.2 q2.4,-2.0 4.9,0 t4.9,-1.2 q2.4,-3.2 4.9,0 t4.9,2.0 q2.4,-2.0 4.9,0 t4.9,-1.2" fill="none" stroke="#111111" stroke-width="1.3" stroke-linejoin="round" stroke-linecap="round" /><line x1="-27.0" y1="18.32" x2="27.0" y2="18.32" stroke="#444" stroke-width="1.0"  /><path d="M-24.0,15.32 q2.6,-2.0 5.1,0 t5.1,2.0 q2.6,-3.2 5.1,0 t5.1,-1.2 q2.6,-2.0 5.1,0 t5.1,-1.2 q2.6,-3.2 5.1,0 t5.1,2.0" fill="none" stroke="#111111" stroke-width="1.3" stroke-linejoin="round" stroke-linecap="round" /><line x1="-27.0" y1="29.919999999999995" x2="27.0" y2="29.919999999999995" stroke="#444" stroke-width="1.0"  /><line x1="-27.0" y1="41.519999999999996" x2="27.0" y2="41.519999999999996" stroke="#444" stroke-width="1.0"  /></g><g transform="translate(345,350) rotate(0)" ><rect x="-32.0" y="-53.0" width="64" height="106" fill="#feed95" stroke="#111111" stroke-width="1.6" /><text x="0" y="-37.0" font-size="11" font-weight="700" text-anchor="middle" fill="#111111" >Sasha</text><text x="0" y="-25.0" font-size="9.9" font-weight="700" text-anchor="middle" fill="#111111" >Chernikov</text><line x1="-27.0" y1="-4.880000000000001" x2="27.0" y2="-4.880000000000001" stroke="#444" stroke-width="1.0"  /><path d="M-24.0,-7.880000000000001 q2.1,-2.0 4.3,0 t4.3,2.0 q2.1,-3.2 4.3,0 t4.3,-1.2 q2.1,-2.0 4.3,0 t4.3,-1.2" fill="none" stroke="#111111" stroke-width="1.3" stroke-linejoin="round" stroke-linecap="round" /><line x1="-27.0" y1="6.719999999999999" x2="27.0" y2="6.719999999999999" stroke="#444" stroke-width="1.0"  /><path d="M-24.0,3.719999999999999 q2.4,-2.0 4.9,0 t4.9,2.0 q2.4,-3.2 4.9,0 t4.9,-1.2 q2.4,-2.0 4.9,0 t4.9,-1.2 q2.4,-3.2 4.9,0 t4.9,2.0 q2.4,-2.0 4.9,0 t4.9,-1.2" fill="none" stroke="#111111" stroke-width="1.3" stroke-linejoin="round" stroke-linecap="round" /><line x1="-27.0" y1="18.32" x2="27.0" y2="18.32" stroke="#444" stroke-width="1.0"  /><path d="M-24.0,15.32 q2.6,-2.0 5.1,0 t5.1,2.0 q2.6,-3.2 5.1,0 t5.1,-1.2 q2.6,-2.0 5.1,0 t5.1,-1.2 q2.6,-3.2 5.1,0 t5.1,2.0" fill="none" stroke="#111111" stroke-width="1.3" stroke-linejoin="round" stroke-linecap="round" /><line x1="-27.0" y1="29.919999999999995" x2="27.0" y2="29.919999999999995" stroke="#444" stroke-width="1.0"  /><line x1="-27.0" y1="41.519999999999996" x2="27.0" y2="41.519999999999996" stroke="#444" stroke-width="1.0"  /></g><g transform="translate(560,350) rotate(0)" ><rect x="-40.0" y="-61.0" width="80" height="122" rx="6" fill="#fff7c4" stroke="none" stroke-width="2" /><rect x="-32.0" y="-53.0" width="64" height="106" fill="#feed95" stroke="#111111" stroke-width="2" /><text x="0" y="-37.0" font-size="11" font-weight="700" text-anchor="middle" fill="#111111" >Sophia</text><text x="0" y="-25.0" font-size="9.9" font-weight="700" text-anchor="middle" fill="#111111" >Zhuravkova</text><line x1="-27.0" y1="-4.880000000000001" x2="27.0" y2="-4.880000000000001" stroke="#444" stroke-width="1.0"  /><path d="M-24.0,-7.880000000000001 q2.1,-2.0 4.3,0 t4.3,2.0 q2.1,-3.2 4.3,0 t4.3,-1.2 q2.1,-2.0 4.3,0 t4.3,-1.2" fill="none" stroke="#111111" stroke-width="1.3" stroke-linejoin="round" stroke-linecap="round" /><line x1="-27.0" y1="6.719999999999999" x2="27.0" y2="6.719999999999999" stroke="#444" stroke-width="1.0"  /><path d="M-24.0,3.719999999999999 q2.4,-2.0 4.9,0 t4.9,2.0 q2.4,-3.2 4.9,0 t4.9,-1.2 q2.4,-2.0 4.9,0 t4.9,-1.2 q2.4,-3.2 4.9,0 t4.9,2.0 q2.4,-2.0 4.9,0 t4.9,-1.2" fill="none" stroke="#111111" stroke-width="1.3" stroke-linejoin="round" stroke-linecap="round" /><line x1="-27.0" y1="18.32" x2="27.0" y2="18.32" stroke="#444" stroke-width="1.0"  /><line x1="-27.0" y1="29.919999999999995" x2="27.0" y2="29.919999999999995" stroke="#444" stroke-width="1.0"  /><line x1="-27.0" y1="41.519999999999996" x2="27.0" y2="41.519999999999996" stroke="#444" stroke-width="1.0"  /></g><g transform="translate(775,350) rotate(0)" ><rect x="-32.0" y="-53.0" width="64" height="106" fill="#feed95" stroke="#111111" stroke-width="1.6" /><line x1="-27.0" y1="-25.520000000000003" x2="27.0" y2="-25.520000000000003" stroke="#444" stroke-width="1.0"  /><path d="M-24.0,-28.520000000000003 q2.1,-2.0 4.3,0 t4.3,2.0 q2.1,-3.2 4.3,0 t4.3,-1.2 q2.1,-2.0 4.3,0 t4.3,-1.2" fill="none" stroke="#111111" stroke-width="1.3" stroke-linejoin="round" stroke-linecap="round" /><line x1="-27.0" y1="-9.120000000000003" x2="27.0" y2="-9.120000000000003" stroke="#444" stroke-width="1.0"  /><line x1="-27.0" y1="7.279999999999996" x2="27.0" y2="7.279999999999996" stroke="#444" stroke-width="1.0"  /><line x1="-27.0" y1="23.679999999999993" x2="27.0" y2="23.679999999999993" stroke="#444" stroke-width="1.0"  /><line x1="-27.0" y1="40.07999999999999" x2="27.0" y2="40.07999999999999" stroke="#444" stroke-width="1.0"  /></g><g transform="translate(990,350) rotate(0)" ><rect x="-32.0" y="-53.0" width="64" height="106" fill="#feed95" stroke="#111111" stroke-width="1.6" /><line x1="-27.0" y1="-25.520000000000003" x2="27.0" y2="-25.520000000000003" stroke="#444" stroke-width="1.0"  /><line x1="-27.0" y1="-9.120000000000003" x2="27.0" y2="-9.120000000000003" stroke="#444" stroke-width="1.0"  /><line x1="-27.0" y1="7.279999999999996" x2="27.0" y2="7.279999999999996" stroke="#444" stroke-width="1.0"  /><line x1="-27.0" y1="23.679999999999993" x2="27.0" y2="23.679999999999993" stroke="#444" stroke-width="1.0"  /><line x1="-27.0" y1="40.07999999999999" x2="27.0" y2="40.07999999999999" stroke="#444" stroke-width="1.0"  /></g><path d="M940,300 Q884.0,320.0 828,300" fill="none" stroke="#111111" stroke-width="3" stroke-linecap="round" /><path d="M839.0,299.0 L828,300 L835.8,307.7" fill="none" stroke="#111111" stroke-width="3" stroke-linecap="round" stroke-linejoin="round"/><path d="M725,300 Q669.5,320.0 614,300" fill="none" stroke="#111111" stroke-width="3" stroke-linecap="round" /><path d="M625.0,299.0 L614,300 L621.8,307.8" fill="none" stroke="#111111" stroke-width="3" stroke-linecap="round" stroke-linejoin="round"/><text x="884" y="275" font-size="14" font-weight="600" text-anchor="middle" fill="#111111" >перемена 1</text><text x="670" y="275" font-size="14" font-weight="600" text-anchor="middle" fill="#111111" >перемена 2</text><g transform="translate(580,382) rotate(-30)"><path d="M0,0 L16,-5 L16,5 Z" fill="#e8d9a8" stroke="#111111" stroke-width="1.5"/><path d="M0,0 L5,-1.6 L5,1.6 Z" fill="#111111"/><rect x="16" y="-5" width="52" height="10" fill="#111111" stroke="#111111" stroke-width="1.5"/><rect x="68" y="-5" width="12" height="10" fill="#fff" stroke="#111111" stroke-width="1.5"/></g><text x="565" y="484" font-size="17" font-weight="600" text-anchor="middle" fill="#111111" >полоска Софии после двух передач: она уже у Андрея</text><text x="565" y="150" font-size="16" font-weight="600" text-anchor="middle" fill="#111111" >гнёзда в домиках пусты — полоски ушли гулять</text><text x="1060" y="46" font-size="15" font-weight="700" text-anchor="end" fill="#111111" opacity="0">→ влево</text></g><rect x="40" y="160" width="1120" height="515" rx="0" fill="none" stroke="#111111" stroke-width="2.5" /><rect x="1190" y="160" width="570" height="515" rx="0" fill="#fbfaf5" stroke="#111111" stroke-width="2.5" /><g transform="translate(1190,160)" ><rect x="18" y="60" width="306.0" height="254.99999999999997" rx="0" fill="#feed95" stroke="#111111" stroke-width="2.5" /><line x1="10" y1="187.5" x2="332.0" y2="187.5" stroke="#111111" stroke-width="2" stroke-dasharray="10 6" /><text x="23" y="180.5" font-size="11" font-weight="600" text-anchor="start" fill="#111111" >ребро / биговка</text><text x="171.0" y="90" font-size="12" font-weight="500" text-anchor="middle" fill="#111111" opacity=".7">Dinner · 10.10.2026</text><text x="171.0" y="130" font-size="22" font-weight="700" text-anchor="middle" fill="#111111" >Sophia Zhuravkova</text><rect x="135.0" y="156" width="72" height="8" rx="0" fill="#fff" stroke="#111111" stroke-width="1.4" stroke-dasharray="4 3"/><text x="171.0" y="180" font-size="11" font-weight="600" text-anchor="middle" fill="#111111" opacity=".75">прорезь 54 мм</text><g transform="rotate(180 171.0 251.25)"><text x="171.0" y="217.5" font-size="15" font-weight="600" text-anchor="middle" fill="#111111" >Sophia Zhuravkova</text><text x="171.0" y="245.5" font-size="11.5" font-weight="500" text-anchor="middle" fill="#111111" >После каждой перемены передай</text><text x="171.0" y="261.5" font-size="11.5" font-weight="500" text-anchor="middle" fill="#111111" >полоску соседу слева. Допиши на</text><text x="171.0" y="277.5" font-size="11.5" font-weight="500" text-anchor="middle" fill="#111111" >ней одно слово по подсказке.</text><text x="171.0" y="299.5" font-size="11.5" font-weight="600" text-anchor="middle" fill="#111111" >В конце найди хозяина — и вручи.</text></g><text x="18" y="339.0" font-size="12.5" font-weight="600" text-anchor="start" fill="#111111" >домик 120×50 мм (сложен),</text><text x="18" y="356.0" font-size="12.5" font-weight="600" text-anchor="start" fill="#111111" >картон 350 г/м², биговка по ребру</text><rect x="380" y="60" width="150.0" height="360.0" rx="0" fill="#feed95" stroke="#111111" stroke-width="2.5" /><text x="455.0" y="92" font-size="21" font-weight="700" text-anchor="middle" fill="#111111" >Sophia</text><text x="455.0" y="117" font-size="18" font-weight="700" text-anchor="middle" fill="#111111" >Zhuravkova</text><text x="388" y="152" font-size="12" font-weight="600" text-anchor="start" fill="#111111" >первое впечатление</text><line x1="388" y1="176" x2="522.0" y2="176" stroke="#111111" stroke-width="1.2"  /><text x="388" y="199" font-size="12" font-weight="600" text-anchor="start" fill="#111111" >цвет</text><line x1="388" y1="223" x2="522.0" y2="223" stroke="#111111" stroke-width="1.2"  /><text x="388" y="246" font-size="12" font-weight="600" text-anchor="start" fill="#111111" >подарок</text><line x1="388" y1="270" x2="522.0" y2="270" stroke="#111111" stroke-width="1.2"  /><text x="388" y="293" font-size="12" font-weight="600" text-anchor="start" fill="#111111" >недосказанное</text><line x1="388" y1="317" x2="522.0" y2="317" stroke="#111111" stroke-width="1.2"  /><text x="388" y="340" font-size="12" font-weight="600" text-anchor="start" fill="#111111" >пожелание</text><line x1="388" y1="364" x2="522.0" y2="364" stroke="#111111" stroke-width="1.2"  /><line x1="400" y1="420.0" x2="400" y2="444.0" stroke="#111111" stroke-width="0"  /><text x="340" y="442.0" font-size="12" font-weight="600" text-anchor="start" fill="#111111" >полоска 50×120 мм, 350 г/м²;</text><text x="340" y="458.0" font-size="12" font-weight="600" text-anchor="start" fill="#111111" >нижний язычок входит в прорезь</text></g><text x="1204" y="186" font-size="15" font-weight="600" text-anchor="start" fill="#111111" opacity=".7">ПЕЧАТЬ / PRINT  ·  чёрный на лимонном #feed95</text><rect x="40" y="700" width="410" height="400" rx="10" fill="#e7e4d8" stroke="#111111" stroke-width="2" /><circle cx="70" cy="730" r="18" fill="#111111" stroke="#111111" stroke-width="2" /><text x="70" y="737" font-size="21" font-weight="700" text-anchor="middle" fill="#feed95" >1</text><text x="98" y="737" font-size="21" font-weight="600" text-anchor="start" fill="#111111" >Приход</text><clipPath id="pc0"><rect x="0" y="-50" width="410" height="400" rx="10"/></clipPath><g transform="translate(40,750)" clip-path="url(#pc0)"><g transform="translate(0,-30)" ><rect x="0" y="30" width="410" height="380" rx="0" fill="#fbfaf5" stroke="none" stroke-width="2" /><ellipse cx="209" cy="352" rx="100" ry="27.0" fill="#00000018" stroke="none" stroke-width="2" /><ellipse cx="205" cy="345" rx="100" ry="27.0" fill="#ffffff" stroke="#111111" stroke-width="2" /><ellipse cx="205" cy="346" rx="64.0" ry="16.74" fill="#fbfbf8" stroke="#bdb8a8" stroke-width="1.5" /><g transform="translate(205,215) rotate(0)" ><rect x="-35.0" y="-65.0" width="70" height="130" fill="#feed95" stroke="#111111" stroke-width="1.6" /><text x="0" y="-48.0" font-size="12" font-weight="700" text-anchor="middle" fill="#111111" >Sophia</text><text x="0" y="-35.0" font-size="10.8" font-weight="700" text-anchor="middle" fill="#111111" >Zhuravkova</text><line x1="-30.0" y1="-11.8" x2="30.0" y2="-11.8" stroke="#444" stroke-width="1.0"  /><line x1="-30.0" y1="4.199999999999999" x2="30.0" y2="4.199999999999999" stroke="#444" stroke-width="1.0"  /><line x1="-30.0" y1="20.2" x2="30.0" y2="20.2" stroke="#444" stroke-width="1.0"  /><line x1="-30.0" y1="36.2" x2="30.0" y2="36.2" stroke="#444" stroke-width="1.0"  /><line x1="-30.0" y1="52.2" x2="30.0" y2="52.2" stroke="#444" stroke-width="1.0"  /></g><ellipse cx="210" cy="313" rx="106.0" ry="8" fill="#00000020" stroke="none" stroke-width="2" /><path d="M105.0,310 L105.0,244 L305.0,244 L305.0,310 Z" fill="#feed95" stroke="#111111" stroke-width="2" stroke-linejoin="round" stroke-linecap="round" /><path d="M105.0,244 L113.0,236 L313.0,236 L305.0,244 Z" fill="#e9d36c" stroke="#111111" stroke-width="1.6" stroke-linejoin="round" stroke-linecap="round" /><text x="205" y="272" font-size="22" font-weight="700" text-anchor="middle" fill="#111111" >Sophia</text><text x="205" y="296" font-size="22" font-weight="700" text-anchor="middle" fill="#111111" >Zhuravkova</text></g><text x="205" y="24" font-size="17" font-weight="600" text-anchor="middle" fill="#111111" >имя на домике, полоска</text><text x="205" y="45" font-size="17" font-weight="600" text-anchor="middle" fill="#111111" >стоит в гнезде</text></g><text x="46" y="1128" font-size="18.5" font-weight="500" text-anchor="start" fill="#111111" >Домик с именем остаётся на месте.</text><text x="46" y="1151" font-size="18.5" font-weight="500" text-anchor="start" fill="#111111" >Полоска с её же именем стоит в нём — до</text><text x="46" y="1174" font-size="18.5" font-weight="500" text-anchor="start" fill="#111111" >первой перемены.</text><rect x="470" y="700" width="410" height="400" rx="10" fill="#e7e4d8" stroke="#111111" stroke-width="2" /><circle cx="500" cy="730" r="18" fill="#111111" stroke="#111111" stroke-width="2" /><text x="500" y="737" font-size="21" font-weight="700" text-anchor="middle" fill="#feed95" >2</text><text x="528" y="737" font-size="21" font-weight="600" text-anchor="start" fill="#111111" >После первого блюда</text><clipPath id="pc1"><rect x="0" y="-50" width="410" height="400" rx="10"/></clipPath><g transform="translate(470,750)" clip-path="url(#pc1)"><g transform="translate(0,-30)" ><rect x="0" y="30" width="410" height="380" rx="0" fill="#fbfaf5" stroke="none" stroke-width="2" /><ellipse cx="209" cy="327" rx="96" ry="25.92" fill="#00000018" stroke="none" stroke-width="2" /><ellipse cx="205" cy="320" rx="96" ry="25.92" fill="#ffffff" stroke="#111111" stroke-width="2" /><ellipse cx="205" cy="321" rx="61.44" ry="16.0704" fill="#fbfbf8" stroke="#bdb8a8" stroke-width="1.5" /><rect x="95" y="120" width="220" height="170" rx="0" fill="none" stroke="none" stroke-width="2" /><g transform="translate(205,215) rotate(0)" ><rect x="-50.0" y="-95.0" width="100" height="190" fill="#feed95" stroke="#111111" stroke-width="2" /><text x="0" y="-75.0" font-size="15" font-weight="700" text-anchor="middle" fill="#111111" >Sophia</text><text x="0" y="-59.0" font-size="13.5" font-weight="700" text-anchor="middle" fill="#111111" >Zhuravkova</text><text x="-45.0" y="-31.240000000000002" font-size="10.799999999999999" font-weight="500" text-anchor="start" fill="#111111" opacity=".75">первое впечатление</text><line x1="-45.0" y1="-28.240000000000002" x2="45.0" y2="-28.240000000000002" stroke="#444" stroke-width="1.0"  /><path d="M-42.0,-31.240000000000002 q2.5,-2.0 5.0,0 t5.0,2.0 q2.5,-3.2 5.0,0 t5.0,-1.2 q2.5,-2.0 5.0,0 t5.0,-1.2 q2.5,-3.2 5.0,0 t5.0,2.0" fill="none" stroke="#111111" stroke-width="1.3" stroke-linejoin="round" stroke-linecap="round" /><text x="-45.0" y="-4.440000000000001" font-size="10.799999999999999" font-weight="500" text-anchor="start" fill="#111111" opacity=".75">цвет</text><line x1="-45.0" y1="-1.4400000000000013" x2="45.0" y2="-1.4400000000000013" stroke="#444" stroke-width="1.0"  /><text x="-45.0" y="22.36" font-size="10.799999999999999" font-weight="500" text-anchor="start" fill="#111111" opacity=".75">подарок</text><line x1="-45.0" y1="25.36" x2="45.0" y2="25.36" stroke="#444" stroke-width="1.0"  /><text x="-45.0" y="49.160000000000004" font-size="10.799999999999999" font-weight="500" text-anchor="start" fill="#111111" opacity=".75">недосказанное</text><line x1="-45.0" y1="52.160000000000004" x2="45.0" y2="52.160000000000004" stroke="#444" stroke-width="1.0"  /><text x="-45.0" y="75.96000000000001" font-size="10.799999999999999" font-weight="500" text-anchor="start" fill="#111111" opacity=".75">пожелание</text><line x1="-45.0" y1="78.96000000000001" x2="45.0" y2="78.96000000000001" stroke="#444" stroke-width="1.0"  /></g><g transform="translate(240,222) rotate(-35)"><path d="M0,0 L16,-5 L16,5 Z" fill="#e8d9a8" stroke="#111111" stroke-width="1.5"/><path d="M0,0 L5,-1.6 L5,1.6 Z" fill="#111111"/><rect x="16" y="-5" width="92" height="10" fill="#111111" stroke="#111111" stroke-width="1.5"/><rect x="108" y="-5" width="12" height="10" fill="#fff" stroke="#111111" stroke-width="1.5"/></g></g><text x="205" y="24" font-size="17" font-weight="600" text-anchor="middle" fill="#111111" >полоска уходит влево; сосед</text><text x="205" y="45" font-size="17" font-weight="600" text-anchor="middle" fill="#111111" >пишет первое впечатление</text></g><text x="476" y="1128" font-size="18.5" font-weight="500" text-anchor="start" fill="#111111" >С каждой переменой полоски едут по</text><text x="476" y="1151" font-size="18.5" font-weight="500" text-anchor="start" fill="#111111" >кругу: сосед пишет по одному слову под</text><text x="476" y="1174" font-size="18.5" font-weight="500" text-anchor="start" fill="#111111" >печатную подсказку.</text><rect x="900" y="700" width="410" height="400" rx="10" fill="#e7e4d8" stroke="#111111" stroke-width="2" /><circle cx="930" cy="730" r="18" fill="#111111" stroke="#111111" stroke-width="2" /><text x="930" y="737" font-size="21" font-weight="700" text-anchor="middle" fill="#feed95" >3</text><text x="958" y="737" font-size="21" font-weight="600" text-anchor="start" fill="#111111" >Середина вечера</text><clipPath id="pc2"><rect x="0" y="-50" width="410" height="400" rx="10"/></clipPath><g transform="translate(900,750)" clip-path="url(#pc2)"><g transform="translate(0,-30)" ><rect x="0" y="30" width="410" height="380" rx="0" fill="#fbfaf5" stroke="none" stroke-width="2" /><ellipse cx="48" cy="300" rx="31" ry="31" fill="#fff" stroke="#111111" stroke-width="1.6" /><ellipse cx="126" cy="300" rx="31" ry="31" fill="#fff" stroke="#111111" stroke-width="1.6" /><ellipse cx="204" cy="300" rx="31" ry="31" fill="#fff" stroke="#111111" stroke-width="1.6" /><ellipse cx="282" cy="300" rx="31" ry="31" fill="#fff" stroke="#111111" stroke-width="1.6" /><ellipse cx="360" cy="300" rx="31" ry="31" fill="#fff" stroke="#111111" stroke-width="1.6" /><rect x="0" y="365" width="410" height="30" rx="0" fill="none" stroke="none" stroke-width="2" /><g transform="translate(360,230) rotate(0)" ><rect x="-22.0" y="-44.0" width="44" height="88" fill="#feed95" stroke="#111111" stroke-width="1.6" /><line x1="-17.0" y1="-19.04" x2="17.0" y2="-19.04" stroke="#444" stroke-width="1.0"  /><line x1="-17.0" y1="-6.24" x2="17.0" y2="-6.24" stroke="#444" stroke-width="1.0"  /><line x1="-17.0" y1="6.5600000000000005" x2="17.0" y2="6.5600000000000005" stroke="#444" stroke-width="1.0"  /><line x1="-17.0" y1="19.360000000000007" x2="17.0" y2="19.360000000000007" stroke="#444" stroke-width="1.0"  /><line x1="-17.0" y1="32.160000000000004" x2="17.0" y2="32.160000000000004" stroke="#444" stroke-width="1.0"  /></g><g transform="translate(282,230) rotate(0)" ><rect x="-22.0" y="-44.0" width="44" height="88" fill="#feed95" stroke="#111111" stroke-width="1.6" /><line x1="-17.0" y1="-19.04" x2="17.0" y2="-19.04" stroke="#444" stroke-width="1.0"  /><path d="M-14.0,-22.04 q1.5,-2.0 2.9,0 t2.9,2.0 q1.5,-3.2 2.9,0 t2.9,-1.2 q1.5,-2.0 2.9,0 t2.9,-1.2" fill="none" stroke="#111111" stroke-width="1.3" stroke-linejoin="round" stroke-linecap="round" /><line x1="-17.0" y1="-6.24" x2="17.0" y2="-6.24" stroke="#444" stroke-width="1.0"  /><line x1="-17.0" y1="6.5600000000000005" x2="17.0" y2="6.5600000000000005" stroke="#444" stroke-width="1.0"  /><line x1="-17.0" y1="19.360000000000007" x2="17.0" y2="19.360000000000007" stroke="#444" stroke-width="1.0"  /><line x1="-17.0" y1="32.160000000000004" x2="17.0" y2="32.160000000000004" stroke="#444" stroke-width="1.0"  /></g><g transform="translate(204,230) rotate(0)" ><rect x="-22.0" y="-44.0" width="44" height="88" fill="#feed95" stroke="#111111" stroke-width="2" /><line x1="-17.0" y1="-19.04" x2="17.0" y2="-19.04" stroke="#444" stroke-width="1.0"  /><path d="M-14.0,-22.04 q1.5,-2.0 2.9,0 t2.9,2.0 q1.5,-3.2 2.9,0 t2.9,-1.2 q1.5,-2.0 2.9,0 t2.9,-1.2" fill="none" stroke="#111111" stroke-width="1.3" stroke-linejoin="round" stroke-linecap="round" /><line x1="-17.0" y1="-6.24" x2="17.0" y2="-6.24" stroke="#444" stroke-width="1.0"  /><path d="M-14.0,-9.24 q2.8,-2.0 5.6,0 t5.6,2.0 q2.8,-3.2 5.6,0 t5.6,-1.2 q2.8,-2.0 5.6,0 t5.6,-1.2" fill="none" stroke="#111111" stroke-width="1.3" stroke-linejoin="round" stroke-linecap="round" /><line x1="-17.0" y1="6.5600000000000005" x2="17.0" y2="6.5600000000000005" stroke="#444" stroke-width="1.0"  /><line x1="-17.0" y1="19.360000000000007" x2="17.0" y2="19.360000000000007" stroke="#444" stroke-width="1.0"  /><line x1="-17.0" y1="32.160000000000004" x2="17.0" y2="32.160000000000004" stroke="#444" stroke-width="1.0"  /></g><g transform="translate(126,230) rotate(0)" ><rect x="-22.0" y="-44.0" width="44" height="88" fill="#feed95" stroke="#111111" stroke-width="1.6" /><line x1="-17.0" y1="-19.04" x2="17.0" y2="-19.04" stroke="#444" stroke-width="1.0"  /><path d="M-14.0,-22.04 q1.5,-2.0 2.9,0 t2.9,2.0 q1.5,-3.2 2.9,0 t2.9,-1.2 q1.5,-2.0 2.9,0 t2.9,-1.2" fill="none" stroke="#111111" stroke-width="1.3" stroke-linejoin="round" stroke-linecap="round" /><line x1="-17.0" y1="-6.24" x2="17.0" y2="-6.24" stroke="#444" stroke-width="1.0"  /><path d="M-14.0,-9.24 q2.8,-2.0 5.6,0 t5.6,2.0 q2.8,-3.2 5.6,0 t5.6,-1.2 q2.8,-2.0 5.6,0 t5.6,-1.2" fill="none" stroke="#111111" stroke-width="1.3" stroke-linejoin="round" stroke-linecap="round" /><line x1="-17.0" y1="6.5600000000000005" x2="17.0" y2="6.5600000000000005" stroke="#444" stroke-width="1.0"  /><path d="M-14.0,3.5600000000000005 q2.3,-2.0 4.7,0 t4.7,2.0 q2.3,-3.2 4.7,0 t4.7,-1.2 q2.3,-2.0 4.7,0 t4.7,-1.2" fill="none" stroke="#111111" stroke-width="1.3" stroke-linejoin="round" stroke-linecap="round" /><line x1="-17.0" y1="19.360000000000007" x2="17.0" y2="19.360000000000007" stroke="#444" stroke-width="1.0"  /><line x1="-17.0" y1="32.160000000000004" x2="17.0" y2="32.160000000000004" stroke="#444" stroke-width="1.0"  /></g><g transform="translate(48,230) rotate(0)" ><rect x="-22.0" y="-44.0" width="44" height="88" fill="#feed95" stroke="#111111" stroke-width="1.6" /><line x1="-17.0" y1="-19.04" x2="17.0" y2="-19.04" stroke="#444" stroke-width="1.0"  /><path d="M-14.0,-22.04 q1.5,-2.0 2.9,0 t2.9,2.0 q1.5,-3.2 2.9,0 t2.9,-1.2 q1.5,-2.0 2.9,0 t2.9,-1.2" fill="none" stroke="#111111" stroke-width="1.3" stroke-linejoin="round" stroke-linecap="round" /><line x1="-17.0" y1="-6.24" x2="17.0" y2="-6.24" stroke="#444" stroke-width="1.0"  /><path d="M-14.0,-9.24 q2.8,-2.0 5.6,0 t5.6,2.0 q2.8,-3.2 5.6,0 t5.6,-1.2 q2.8,-2.0 5.6,0 t5.6,-1.2" fill="none" stroke="#111111" stroke-width="1.3" stroke-linejoin="round" stroke-linecap="round" /><line x1="-17.0" y1="6.5600000000000005" x2="17.0" y2="6.5600000000000005" stroke="#444" stroke-width="1.0"  /><path d="M-14.0,3.5600000000000005 q2.3,-2.0 4.7,0 t4.7,2.0 q2.3,-3.2 4.7,0 t4.7,-1.2 q2.3,-2.0 4.7,0 t4.7,-1.2" fill="none" stroke="#111111" stroke-width="1.3" stroke-linejoin="round" stroke-linecap="round" /><line x1="-17.0" y1="19.360000000000007" x2="17.0" y2="19.360000000000007" stroke="#444" stroke-width="1.0"  /><path d="M-14.0,16.360000000000007 q1.9,-2.0 3.8,0 t3.8,2.0 q1.9,-3.2 3.8,0 t3.8,-1.2 q1.9,-2.0 3.8,0 t3.8,-1.2" fill="none" stroke="#111111" stroke-width="1.3" stroke-linejoin="round" stroke-linecap="round" /><line x1="-17.0" y1="32.160000000000004" x2="17.0" y2="32.160000000000004" stroke="#444" stroke-width="1.0"  /></g><path d="M348,150 Q321.0,164.0 294,150" fill="none" stroke="#111111" stroke-width="2" stroke-linecap="round" /><path d="M301.0,150.3 L294,150 L298.3,155.5" fill="none" stroke="#111111" stroke-width="2" stroke-linecap="round" stroke-linejoin="round"/><path d="M270,150 Q243.0,164.0 216,150" fill="none" stroke="#111111" stroke-width="2" stroke-linecap="round" /><path d="M223.0,150.3 L216,150 L220.3,155.5" fill="none" stroke="#111111" stroke-width="2" stroke-linecap="round" stroke-linejoin="round"/><path d="M192,150 Q165.0,164.0 138,150" fill="none" stroke="#111111" stroke-width="2" stroke-linecap="round" /><path d="M145.0,150.3 L138,150 L142.3,155.5" fill="none" stroke="#111111" stroke-width="2" stroke-linecap="round" stroke-linejoin="round"/><path d="M114,150 Q87.0,164.0 60,150" fill="none" stroke="#111111" stroke-width="2" stroke-linecap="round" /><path d="M67.0,150.3 L60,150 L64.3,155.5" fill="none" stroke="#111111" stroke-width="2" stroke-linecap="round" stroke-linejoin="round"/><text x="205" y="345" font-size="15" font-weight="600" text-anchor="middle" fill="#111111" >одна и та же полоска: слово за словом</text><text x="205" y="364" font-size="15" font-weight="600" text-anchor="middle" fill="#111111" >пять соседей — пять строк</text></g><text x="205" y="24" font-size="17" font-weight="600" text-anchor="middle" fill="#111111" >по кругу — каждый дописывает</text><text x="205" y="45" font-size="17" font-weight="600" text-anchor="middle" fill="#111111" >по одному слову</text></g><text x="906" y="1128" font-size="18.5" font-weight="500" text-anchor="start" fill="#111111" >К десерту у полоски пять строк чужого</text><text x="906" y="1151" font-size="18.5" font-weight="500" text-anchor="start" fill="#111111" >почерка. Чужие слова про тебя — самое</text><text x="906" y="1174" font-size="18.5" font-weight="500" text-anchor="start" fill="#111111" >личное за вечер.</text><rect x="1330" y="700" width="410" height="400" rx="10" fill="#e7e4d8" stroke="#111111" stroke-width="2" /><circle cx="1360" cy="730" r="18" fill="#111111" stroke="#111111" stroke-width="2" /><text x="1360" y="737" font-size="21" font-weight="700" text-anchor="middle" fill="#feed95" >4</text><text x="1388" y="737" font-size="21" font-weight="600" text-anchor="start" fill="#111111" >Уход</text><clipPath id="pc3"><rect x="0" y="-50" width="410" height="400" rx="10"/></clipPath><g transform="translate(1330,750)" clip-path="url(#pc3)"><g transform="translate(0,-30)" ><rect x="0" y="30" width="410" height="380" rx="0" fill="#fbfaf5" stroke="none" stroke-width="2" /><circle cx="95" cy="130" r="32.4" fill="#d9d5c6"/><path d="M5.0,250 C5.0,191.5 45.5,173.5 95,173.5 C144.5,173.5 185.0,191.5 185.0,250 Z" fill="#d9d5c6"/><circle cx="315" cy="130" r="32.4" fill="#d9d5c6"/><path d="M225.0,250 C225.0,191.5 265.5,173.5 315,173.5 C364.5,173.5 405.0,191.5 405.0,250 Z" fill="#d9d5c6"/><rect x="0" y="255" width="410" height="160" rx="0" fill="#fbfaf5" stroke="#111111" stroke-width="2" /><g transform="translate(205,190) rotate(0)" ><rect x="-48.0" y="-83.0" width="96" height="166" rx="6" fill="#fff7c4" stroke="none" stroke-width="2" /><rect x="-40.0" y="-75.0" width="80" height="150" fill="#feed95" stroke="#111111" stroke-width="2" /><text x="0" y="-58.0" font-size="12" font-weight="700" text-anchor="middle" fill="#111111" >Sophia</text><text x="0" y="-45.0" font-size="10.8" font-weight="700" text-anchor="middle" fill="#111111" >Zhuravkova</text><line x1="-35.0" y1="-19.0" x2="35.0" y2="-19.0" stroke="#444" stroke-width="1.0"  /><path d="M-32.0,-22.0 q2.7,-2.0 5.3,0 t5.3,2.0 q2.7,-3.2 5.3,0 t5.3,-1.2 q2.7,-2.0 5.3,0 t5.3,-1.2" fill="none" stroke="#111111" stroke-width="1.3" stroke-linejoin="round" stroke-linecap="round" /><line x1="-35.0" y1="1.0" x2="35.0" y2="1.0" stroke="#444" stroke-width="1.0"  /><path d="M-32.0,-2.0 q2.5,-2.0 5.1,0 t5.1,2.0 q2.5,-3.2 5.1,0 t5.1,-1.2 q2.5,-2.0 5.1,0 t5.1,-1.2 q2.5,-3.2 5.1,0 t5.1,2.0 q2.5,-2.0 5.1,0 t5.1,-1.2 q2.5,-3.2 5.1,0 t5.1,-1.2" fill="none" stroke="#111111" stroke-width="1.3" stroke-linejoin="round" stroke-linecap="round" /><line x1="-35.0" y1="21.0" x2="35.0" y2="21.0" stroke="#444" stroke-width="1.0"  /><path d="M-32.0,18.0 q2.6,-2.0 5.1,0 t5.1,2.0 q2.6,-3.2 5.1,0 t5.1,-1.2 q2.6,-2.0 5.1,0 t5.1,-1.2 q2.6,-3.2 5.1,0 t5.1,2.0 q2.6,-2.0 5.1,0 t5.1,-1.2" fill="none" stroke="#111111" stroke-width="1.3" stroke-linejoin="round" stroke-linecap="round" /><line x1="-35.0" y1="41.0" x2="35.0" y2="41.0" stroke="#444" stroke-width="1.0"  /><path d="M-32.0,38.0 q2.6,-2.0 5.2,0 t5.2,2.0 q2.6,-3.2 5.2,0 t5.2,-1.2 q2.6,-2.0 5.2,0 t5.2,-1.2 q2.6,-3.2 5.2,0 t5.2,2.0" fill="none" stroke="#111111" stroke-width="1.3" stroke-linejoin="round" stroke-linecap="round" /><line x1="-35.0" y1="61.0" x2="35.0" y2="61.0" stroke="#444" stroke-width="1.0"  /><path d="M-32.0,58.0 q2.7,-2.0 5.3,0 t5.3,2.0 q2.7,-3.2 5.3,0 t5.3,-1.2 q2.7,-2.0 5.3,0 t5.3,-1.2" fill="none" stroke="#111111" stroke-width="1.3" stroke-linejoin="round" stroke-linecap="round" /></g><path d="M160,110 L125,150" fill="none" stroke="none" stroke-width="0.1" stroke-linecap="round" /><path d="M128.1,139.4 L125,150 L135.1,145.6" fill="none" stroke="none" stroke-width="0.1" stroke-linecap="round" stroke-linejoin="round"/><path d="M180,300 Q217.5,286.0 255,300" fill="none" stroke="#111111" stroke-width="3" stroke-linecap="round" /><path d="M244.0,300.9 L255,300 L247.3,292.2" fill="none" stroke="#111111" stroke-width="3" stroke-linecap="round" stroke-linejoin="round"/><text x="205" y="342" font-size="17" font-weight="700" text-anchor="middle" fill="#111111" >вручить хозяйке</text></g><text x="205" y="24" font-size="17" font-weight="600" text-anchor="middle" fill="#111111" >полоска возвращается</text><text x="205" y="45" font-size="17" font-weight="600" text-anchor="middle" fill="#111111" >к хозяйке — портрет стола</text></g><text x="1336" y="1128" font-size="18.5" font-weight="500" text-anchor="start" fill="#111111" >Перед уходом каждый находит хозяина</text><text x="1336" y="1151" font-size="18.5" font-weight="500" text-anchor="start" fill="#111111" >полоски и вручает её. Гость забирает не</text><text x="1336" y="1174" font-size="18.5" font-weight="500" text-anchor="start" fill="#111111" >имя — а портрет.</text><line x1="40" y1="1222" x2="1760" y2="1222" stroke="#00000055" stroke-width="1.2"  /><text x="40" y="1246" font-size="17" font-weight="500" text-anchor="start" fill="#111111" opacity=".8">Домик 120×50 мм · полоска 50×120 мм · лимонный картон 350 г/м² · 1 цвет · одна прорезь · на место короткий чёрный карандаш</text></svg>