<?xml version="1.0" encoding="UTF-8"?>
<svg xmlns="http://www.w3.org/2000/svg" width="226.77pt" height="1010.7pt" viewBox="0 0 226.77 1010.7">
<defs></defs>
<g id="index">
  <path id="paper" d="M0 3.63L3.66 0L7.32 3.63L10.97 0L14.63 3.63L18.29 0L21.95 3.63L25.6 0L29.26 3.63L32.92 0L36.58 3.63L40.23 0L43.89 3.63L47.55 0L51.21 3.63L54.86 0L58.52 3.63L62.18 0L65.84 3.63L69.49 0L73.15 3.63L76.81 0L80.47 3.63L84.12 0L87.78 3.63L91.44 0L95.1 3.63L98.76 0L102.41 3.63L106.07 0L109.73 3.63L113.39 0L117.04 3.63L120.7 0L124.36 3.63L128.02 0L131.67 3.63L135.33 0L138.99 3.63L142.65 0L146.3 3.63L149.96 0L153.62 3.63L157.28 0L160.93 3.63L164.59 0L168.25 3.63L171.91 0L175.57 3.63L179.22 0L182.88 3.63L186.54 0L190.2 3.63L193.85 0L197.51 3.63L201.17 0L204.83 3.63L208.48 0L212.14 3.63L215.8 0L219.46 3.63L223.11 0L226.77 3.63L226.77 1007.07L223.11 1010.7L219.46 1007.07L215.8 1010.7L212.14 1007.07L208.48 1010.7L204.83 1007.07L201.17 1010.7L197.51 1007.07L193.85 1010.7L190.2 1007.07L186.54 1010.7L182.88 1007.07L179.22 1010.7L175.57 1007.07L171.91 1010.7L168.25 1007.07L164.59 1010.7L160.93 1007.07L157.28 1010.7L153.62 1007.07L149.96 1010.7L146.3 1007.07L142.65 1010.7L138.99 1007.07L135.33 1010.7L131.67 1007.07L128.02 1010.7L124.36 1007.07L120.7 1010.7L117.04 1007.07L113.39 1010.7L109.73 1007.07L106.07 1010.7L102.41 1007.07L98.76 1010.7L95.1 1007.07L91.44 1010.7L87.78 1007.07L84.12 1010.7L80.47 1007.07L76.81 1010.7L73.15 1007.07L69.49 1010.7L65.84 1007.07L62.18 1010.7L58.52 1007.07L54.86 1010.7L51.21 1007.07L47.55 1010.7L43.89 1007.07L40.23 1010.7L36.58 1007.07L32.92 1010.7L29.26 1007.07L25.6 1010.7L21.95 1007.07L18.29 1010.7L14.63 1007.07L10.97 1010.7L7.32 1007.07L3.66 1010.7L0 1007.07L0 3.63Z" fill="#feed95"/>
  <g id="type"><g id="Colorblock_DNA"><text id="Colorblock" x="24.79" y="35.76" font-family="WixMadeforText-SemiBold, 'Wix Madefor Text', sans-serif" font-weight="600" font-size="13.61" letter-spacing="2.31" text-anchor="start" fill="#000000">COLORBLOCK</text><text id="item" x="153.15" y="35.76" font-family="WixMadeforText-SemiBold, 'Wix Madefor Text', sans-serif" font-weight="600" font-size="9.52" letter-spacing="0.1" text-anchor="start" fill="#000000">×</text><text id="DNA" x="166.75" y="35.76" font-family="WixMadeforText-SemiBold, 'Wix Madefor Text', sans-serif" font-weight="600" font-size="13.61" letter-spacing="2.31" text-anchor="start" fill="#000000">DNA</text></g><path id="DINNER" fill-rule="evenodd" fill="#000000" d="M67.97 567.02C67.26 566.9 66.54 566.66 66.42 566.54C66.3 566.54 66.06 566.42 66.06 566.42C65.94 566.42 65.58 566.31 65.34 566.19C64.98 566.07 64.63 565.95 64.51 565.95C64.15 565.95 61.4 563.68 61.16 563.2C60.68 562.36 60.32 561.76 59.97 561.41C59.85 561.29 59.73 561.05 59.73 560.93C59.73 560.81 59.61 560.57 59.49 560.33C58.89 559.13 58.05 555.67 58.29 555.19C58.41 555.07 58.53 553.76 58.53 553.04C58.53 552.92 58.53 552.44 58.65 552.08C58.77 551.73 58.77 551.25 58.89 551.01C59.01 549.93 59.25 549.45 59.49 549.1C59.61 548.86 59.73 548.5 59.85 548.38C59.85 548.14 59.97 547.78 60.08 547.66C60.2 547.54 60.32 547.3 60.44 546.94C60.44 546.71 60.8 546.11 61.04 545.75C61.4 545.39 61.64 544.91 61.64 544.67C61.76 544.08 64.98 540.01 65.46 540.01C65.58 539.89 66.06 539.42 66.54 538.82C67.02 538.34 67.49 537.74 67.73 537.74C67.97 537.62 68.45 537.26 68.69 536.79C68.93 536.43 69.41 536.07 69.65 535.95C69.88 535.95 70.24 535.59 70.48 535.23C70.72 534.87 71.2 534.52 71.44 534.4C71.68 534.28 72.04 533.92 72.16 533.68C72.39 533.56 72.75 533.2 72.99 533.08C73.35 532.96 73.71 532.6 73.83 532.36C74.07 532.01 74.43 531.77 74.55 531.65C74.78 531.65 75.26 531.29 75.5 530.93C75.74 530.57 76.1 530.21 76.46 530.09C76.7 529.97 77.06 529.74 77.06 529.62C77.06 529.5 77.29 529.26 77.65 529.14C77.89 529.02 78.49 528.42 78.97 527.7C79.56 527.11 80.04 526.51 80.28 526.51C80.76 526.27 82.55 524 82.79 523.4C82.79 523.04 83.03 522.68 83.27 522.45C83.51 522.09 83.63 521.85 83.63 521.73C83.63 521.49 83.87 521.13 83.99 520.77C84.58 519.58 84.11 516.71 83.27 515.51C82.91 515.04 79.92 512.88 79.56 512.77C79.33 512.77 78.97 512.53 78.85 512.41C78.61 512.29 78.25 512.17 77.89 512.05C77.65 511.93 77.29 511.81 77.17 511.69C77.17 511.57 76.7 511.45 76.1 511.33C75.62 511.21 75.14 511.09 74.9 510.97C74.43 510.73 73.23 510.26 72.99 510.26C72.87 510.26 72.75 510.26 72.63 510.14C72.63 510.02 72.39 509.9 72.16 509.9C72.04 509.9 71.68 509.78 71.56 509.78C71.2 509.54 70 509.06 69.53 508.94C69.41 508.94 69.05 508.7 68.69 508.58C68.45 508.34 68.09 508.1 67.85 508.1C67.26 507.99 63.31 504.88 63.07 504.28C62.95 504.04 62.71 503.8 62.48 503.56C62.36 503.44 62.12 503.2 62.12 503.09C62.12 502.97 62 502.73 61.76 502.49C61.52 502.25 61.28 501.89 61.28 501.77C61.16 501.65 61.04 501.41 60.92 501.29C60.8 501.05 60.68 500.81 60.68 500.7C60.68 500.46 60.56 500.1 60.44 499.98C60.32 499.74 60.2 499.26 60.2 498.9C60.08 498.54 59.97 498.07 59.85 497.83C59.61 497.23 59.61 493.05 59.97 491.73C59.97 491.49 60.08 491.13 60.08 491.01C60.08 490.78 60.2 490.42 60.32 490.3C60.44 490.18 60.56 489.7 60.68 489.22C60.8 488.39 61.16 487.55 61.4 486.95C61.52 486.83 61.64 486.47 61.64 486.23C61.64 486.11 61.76 485.88 61.88 485.76C61.88 485.64 62 485.52 62 485.4C62 485.16 62.36 484.2 62.83 483.25C62.83 483.01 62.95 482.65 62.95 482.53C62.83 482.41 62.95 481.81 63.07 481.33C63.31 480.02 63.07 478.23 62.36 476.67C62.12 476.08 61.76 475.24 61.52 474.88C61.4 474.4 61.16 474.04 61.04 473.93C60.92 473.93 60.8 473.81 60.8 473.69C60.8 473.45 60.68 473.21 60.44 473.09C60.08 472.73 59.73 472.01 59.73 471.77C59.73 471.65 59.61 471.42 59.37 471.18C58.89 470.7 58.53 470.1 56.86 466.52C56.14 464.84 55.9 464.24 55.42 462.57C55.42 462.21 55.19 461.74 55.19 461.62C55.07 461.5 54.95 460.9 54.95 460.42C54.83 459.82 54.71 459.23 54.59 459.11C54.35 458.63 53.75 453.49 53.87 452.06C53.87 451.46 53.75 449.9 53.75 448.59C53.63 447.27 53.63 445.36 53.63 444.53C53.63 443.57 53.63 442.49 53.63 442.02C53.63 441.54 53.63 440.94 53.63 440.58C53.63 440.34 53.63 439.75 53.63 439.39C53.63 437.24 53.63 432.22 53.75 430.66C53.75 429.59 53.87 428.27 53.87 427.56C53.87 426.24 53.99 424.57 54.11 423.97C54.23 423.85 54.23 423.13 54.35 422.42C54.35 421.82 54.47 421.22 54.59 421.1C54.59 421.1 54.59 420.62 54.71 420.15C54.71 419.19 54.83 418.59 55.07 418.35C55.07 418.23 55.42 417.04 55.54 416.08C55.66 415.84 55.78 415.49 55.9 415.25C56.02 415.01 56.02 414.77 56.02 414.77C56.02 414.65 56.14 414.41 56.26 414.29C56.38 414.05 56.5 413.81 56.5 413.57C56.5 413.45 56.74 413.1 56.86 412.86C56.98 412.62 57.22 412.26 57.22 412.02C57.22 411.78 57.58 411.3 57.93 410.82C58.29 410.35 58.65 409.87 58.65 409.63C58.65 409.15 61.28 405.81 62 405.45C62.24 405.33 62.59 404.97 62.95 404.49C63.31 404.13 63.79 403.65 63.91 403.53C64.15 403.53 64.63 403.06 64.87 402.7C65.22 402.34 65.58 401.98 65.82 401.86C66.06 401.74 66.54 401.38 66.9 400.91C67.26 400.43 67.61 400.07 67.85 399.95C68.33 399.83 69.77 398.04 69.88 397.44C69.88 397.32 70 396.96 70.12 396.72C70.48 396.12 70.12 393.73 69.65 393.73C69.65 393.73 69.53 393.5 69.41 393.26C69.41 393.02 69.05 392.66 68.69 392.42C68.45 392.18 68.09 391.82 68.09 391.58C67.97 391.46 67.37 390.75 66.54 390.15C65.82 389.55 65.22 388.95 65.1 388.72C65.1 388.6 64.63 388.12 64.03 387.64C63.43 387.16 62.95 386.68 62.95 386.56C62.95 386.44 62.71 386.09 62.36 385.73C61.64 385.13 61.4 384.77 60.92 383.82C60.8 383.46 60.56 383.22 60.44 383.22C60.32 383.22 60.2 382.98 60.08 382.74C60.08 382.5 59.73 381.9 59.49 381.31C59.13 380.35 58.89 379.87 58.65 379.04C58.53 378.8 58.41 378.44 58.41 378.2C58.17 377.6 57.81 375.21 57.93 374.73C57.93 374.49 57.93 373.78 58.05 373.06C58.05 372.34 58.17 371.39 58.29 371.03C58.41 370.55 58.53 369.95 58.53 369.59C58.65 369.36 58.77 369 58.89 368.76C59.01 368.64 59.01 368.4 59.01 368.4C59.01 368.28 59.13 368.04 59.25 367.8C59.37 367.56 59.49 367.2 59.49 366.96C59.61 366.73 59.85 366.37 60.08 366.01C60.32 365.65 60.56 365.17 60.68 364.93C60.92 364.22 64.98 359.08 65.58 358.84C65.7 358.72 66.18 358.24 66.54 357.88C66.9 357.4 67.26 357.05 67.49 356.93C67.61 356.93 67.97 356.57 68.33 356.33C68.69 355.97 69.29 355.49 69.65 355.25C70 355.01 70.6 354.66 70.84 354.3C71.2 354.06 71.44 353.82 71.56 353.82C71.68 353.82 71.92 353.58 72.16 353.34C72.63 352.98 72.99 352.74 73.83 352.27C74.07 352.15 74.43 351.79 74.67 351.55C74.9 351.43 75.26 351.07 75.62 350.83C75.98 350.59 76.58 350.35 76.94 350.11C77.29 349.88 77.65 349.64 77.89 349.4C78.01 349.28 78.25 349.04 78.49 349.04C78.61 349.04 78.85 348.8 79.09 348.68C79.21 348.56 79.56 348.2 79.92 348.08C80.28 347.84 80.76 347.48 81.12 347.25C81.48 347.13 82.07 346.77 82.31 346.53C82.67 346.41 83.15 346.05 83.39 345.69C83.63 345.45 84.23 345.09 84.58 344.86C85.06 344.62 85.42 344.38 85.54 344.26C85.66 344.14 86.02 344.02 86.26 343.9C86.5 343.78 86.74 343.54 86.85 343.42C86.97 343.18 87.33 342.94 87.57 342.82C87.81 342.7 88.17 342.47 88.17 342.35C88.17 342.23 88.53 341.99 88.77 341.87C89.13 341.75 89.48 341.39 89.6 341.27C89.72 341.03 89.96 340.79 90.2 340.79C90.8 340.55 94.14 336.25 94.38 335.53C94.5 335.3 94.62 334.94 94.74 334.82C95.94 333.38 92.83 328.6 90.8 328.84C90.8 328.96 90.68 328.84 90.56 328.72C90.44 328.6 90.32 328.48 90.08 328.48C89.96 328.48 89.6 328.36 89.25 328.24C89.01 328.12 88.53 328.01 88.17 327.89C87.93 327.89 87.33 327.77 86.85 327.65C86.38 327.53 85.9 327.53 85.78 327.53C85.66 327.53 85.18 327.53 84.7 327.41C84.23 327.29 83.51 327.17 83.03 327.05C82.55 327.05 81.6 326.93 80.88 326.81C79.8 326.57 79.33 326.45 77.17 326.33C76.7 326.21 76.22 326.09 76.1 325.97C75.86 325.85 74.9 325.61 74.31 325.73C74.19 325.73 73.83 325.61 73.59 325.5C73.35 325.38 73.11 325.26 72.99 325.26C72.87 325.26 72.63 325.14 72.51 325.14C72.27 325.02 71.92 324.9 71.68 324.78C71.44 324.78 71.2 324.66 70.96 324.54C70.72 324.42 70.48 324.3 70.36 324.3C70.24 324.3 69.88 324.18 69.77 324.06C69.53 323.82 69.17 323.7 68.93 323.7C68.69 323.7 68.21 323.46 67.85 323.11C67.61 322.87 67.14 322.51 66.78 322.51C66.3 322.39 64.75 321.19 64.51 320.71C64.39 320.48 64.03 320 63.67 319.76C63.31 319.52 63.07 319.04 62.95 318.8C62.83 318.56 62.71 318.44 62.59 318.44C62.48 318.44 61.04 315.34 61.04 314.98C61.04 314.86 60.92 314.62 60.92 314.38C60.56 313.9 60.44 311.99 60.56 311.51C60.56 311.15 60.68 310.92 60.56 310.8C60.56 310.68 60.56 310.2 60.68 309.84C60.8 309.36 60.92 308.76 60.92 308.41C60.92 308.05 60.92 307.81 61.16 307.57C61.28 307.33 61.52 306.97 61.52 306.73C61.64 306.49 61.76 306.25 61.76 306.13C61.88 305.9 62 305.66 62 305.54C62 305.3 62.12 305.06 62.12 305.06C65.1 301.24 66.66 299.32 67.02 299.08C67.61 298.84 70.48 295.26 70.6 294.66C70.6 294.42 70.72 294.18 70.84 294.06C71.2 293.59 70.84 291.55 70.12 290.72C70 290.6 69.77 290.36 69.77 290.24C69.77 290 69.29 289.64 68.81 289.28C68.45 288.93 67.97 288.45 67.85 288.21C67.73 287.97 67.02 287.25 66.18 286.66C65.22 285.82 64.63 285.34 64.51 285.1C64.51 284.86 64.03 284.38 63.55 284.03C63.07 283.67 62.59 283.19 62.59 282.95C62.48 282.83 62.24 282.47 62.12 282.35C62 282.23 61.76 281.87 61.64 281.64C61.4 281.4 61.28 281.16 61.16 281.16C61.16 281.16 61.04 280.92 60.92 280.68C60.8 280.44 60.68 280.2 60.56 280.08C60.44 279.96 60.2 279.72 60.08 279.36C59.97 279.13 59.73 278.53 59.49 278.05C59.25 277.45 59.01 276.97 59.01 276.86C59.01 276.62 58.89 276.38 58.77 276.14C58.29 275.18 57.93 270.28 58.29 268.85C58.65 267.06 58.77 266.34 59.01 266.22C59.01 266.1 59.13 265.74 59.13 265.62C59.13 265.38 59.25 265.02 59.37 264.9C59.49 264.78 59.61 264.67 59.61 264.55C59.61 264.19 59.85 263.83 60.08 263.35C60.32 263.23 60.44 262.87 60.56 262.51C60.8 261.8 65.58 255.82 66.06 255.58C66.3 255.46 66.66 255.1 66.9 254.87C67.14 254.51 67.49 254.27 67.61 254.27C67.85 254.15 68.09 253.91 68.33 253.67C68.57 253.43 68.81 253.19 69.05 253.07C69.29 252.95 69.77 252.6 70 252.24C70.36 252 70.84 251.52 71.32 251.28C71.68 251.04 72.27 250.68 72.51 250.44C72.75 250.2 73.35 249.73 73.59 249.61C75.26 248.65 75.5 248.41 75.98 248.05C76.22 247.7 76.82 247.34 77.17 247.1C77.65 246.86 78.01 246.62 78.13 246.5C78.25 246.38 78.61 246.26 78.85 246.14C79.09 246.02 79.21 245.9 79.21 245.78C79.21 245.78 79.45 245.54 79.68 245.42C80.04 245.31 80.4 245.07 80.52 244.95C80.64 244.83 81.12 244.59 81.36 244.35C82.55 243.63 83.39 243.15 83.63 242.91C83.75 242.8 83.99 242.68 84.23 242.56C84.35 242.44 84.7 242.32 84.82 242.08C84.94 241.96 85.3 241.72 85.54 241.48C85.9 241.36 86.14 241.24 86.14 241.12C86.14 241.12 86.26 241 86.5 240.88C86.74 240.76 87.09 240.52 87.21 240.41C87.21 240.29 87.57 240.05 87.81 239.93C88.17 239.81 88.41 239.57 88.53 239.33C88.65 239.21 88.89 238.97 89.13 238.85C89.48 238.73 89.84 238.37 90.08 238.13C90.2 237.9 90.56 237.66 90.8 237.54C91.28 237.3 94.38 233.47 94.5 232.88C94.5 232.76 94.74 232.28 94.86 231.8C95.22 230.72 95.1 229.41 94.62 228.69C94.5 228.45 94.26 228.22 94.26 228.1C94.03 227.62 92.59 226.54 92.11 226.54C91.87 226.42 91.52 226.3 91.28 226.06C91.16 225.94 90.8 225.83 90.68 225.83C90.2 225.83 90.2 225.83 89.96 225.59C89.84 225.47 88.89 225.23 87.33 224.87C85.9 224.63 84.7 224.39 83.87 224.27C83.39 224.27 82.79 224.15 82.55 224.15C82.43 224.03 81.96 224.03 81.6 223.91C81.24 223.91 80.52 223.79 80.04 223.79C79.68 223.67 78.85 223.55 78.37 223.55C76.46 223.2 72.99 222.48 72.87 222.24C72.75 222.24 72.63 222.12 72.51 222.12C72.39 222.12 72.16 222 71.92 222C71.68 221.88 71.32 221.76 71.2 221.64C70.96 221.64 70.6 221.4 70.24 221.28C70 221.04 69.65 220.93 69.53 220.93C69.29 220.93 69.05 220.81 69.05 220.69C68.93 220.57 68.57 220.45 68.21 220.33C67.37 220.09 64.39 217.7 64.03 216.98C63.91 216.74 63.67 216.38 63.55 216.38C62.83 216.03 61.16 212.56 61.04 211.13C60.92 210.77 60.8 210.17 60.68 210.05C60.56 209.81 60.56 209.45 60.56 209.21C60.56 208.97 60.68 208.14 60.68 207.42C60.8 206.58 60.92 205.99 61.04 205.87C61.16 205.75 61.16 205.51 61.16 205.39C61.16 205.27 61.28 204.91 61.4 204.67C61.52 204.55 61.64 204.31 61.64 204.19C61.64 204.07 61.76 203.84 61.88 203.48C62 203.24 62.12 202.88 62.12 202.76C62.12 202.28 67.14 196.19 67.61 195.95C68.09 195.71 71.32 191.65 71.56 191.17C71.8 190.33 71.2 187.94 70.48 187.34C70.36 187.22 70.12 186.98 70.12 186.75C70 186.51 69.53 186.15 69.05 185.67C68.57 185.31 68.09 184.83 68.09 184.59C67.97 184.36 67.49 183.88 66.78 183.4C66.06 182.8 65.58 182.32 65.46 182.08C65.46 181.85 65.1 181.49 64.75 181.13C64.27 180.89 63.91 180.41 63.79 180.17C63.67 179.93 63.55 179.69 63.43 179.69C63.31 179.58 63.19 179.34 63.07 179.22C62.95 178.98 62.83 178.62 62.71 178.5C62.59 178.38 62.24 177.78 62 177.19C61.76 176.59 61.4 175.87 61.28 175.51C60.8 174.79 60.32 170.97 60.56 170.13C60.56 169.78 60.68 169.42 60.68 169.18C61.04 167.39 61.28 166.55 61.64 166.19C61.76 165.83 62 165.47 62.12 165.23C62.24 164.52 64.63 161.65 65.1 161.41C65.34 161.29 65.7 161.05 65.82 160.81C66.06 160.57 66.42 160.21 66.66 160.1C67.02 159.86 67.61 159.5 68.21 159.26C69.53 158.42 71.8 157.23 74.55 156.03C75.62 155.55 76.7 154.96 76.7 154.96C76.82 154.84 77.29 154.6 77.77 154.36C78.25 154.12 78.61 153.88 78.73 153.76C78.73 153.64 79.09 153.4 79.33 153.16C80.4 152.69 81 151.25 81 149.34C81 148.74 80.88 148.38 80.16 146.59C80.04 146.35 79.8 146.23 79.8 146.23C79.68 146.23 79.56 145.99 79.33 145.63C79.21 145.4 78.97 145.04 78.85 144.92C78.73 144.92 78.49 144.56 78.49 144.32C78.37 144.08 78.01 143.72 77.77 143.6C77.41 143.36 77.17 143.01 77.06 142.77C76.94 142.53 76.58 142.05 75.98 141.69C75.5 141.21 74.9 140.73 74.78 140.5C74.67 140.26 74.31 139.78 73.83 139.42C73.47 139.06 72.99 138.7 72.87 138.46C72.87 138.23 72.39 137.75 71.8 137.27C71.32 136.91 70.72 136.31 70.6 136.07C70.48 135.84 70 135.36 69.65 135.12C69.29 134.76 68.93 134.52 68.93 134.28C68.93 134.16 68.69 133.8 68.45 133.56C68.09 133.21 67.85 132.85 67.85 132.73C67.85 132.61 67.61 132.37 67.49 132.25C67.26 132.13 67.02 131.89 66.9 131.65C66.78 131.41 66.54 131.05 66.3 130.82C66.18 130.7 65.82 130.22 65.58 129.74C65.34 129.38 65.1 128.9 64.87 128.78C64.75 128.55 64.51 128.19 64.51 127.95C64.39 127.83 64.27 127.59 64.15 127.59C64.03 127.47 63.79 127.23 63.79 126.99C63.67 126.75 63.55 126.51 63.43 126.51C63.43 126.51 63.19 126.15 62.95 125.68C62.71 125.2 62.36 124.6 62.24 124.48C62.12 124.36 61.88 123.88 61.64 123.29C61.4 122.69 60.68 121.14 60.08 119.82C59.37 118.51 58.89 117.31 58.89 117.19C58.89 117.07 58.77 116.71 58.53 116.36C58.41 116 58.17 115.4 58.05 115.16C57.81 113.85 57.69 113.37 57.46 112.77C57.34 112.53 57.22 111.93 57.22 111.57C57.1 111.22 56.98 110.62 56.86 110.38C56.74 110.14 56.62 109.78 56.62 109.42C56.62 109.18 56.5 108.71 56.38 108.35C56.26 107.99 56.02 107.03 55.9 106.2C55.9 105.36 55.66 104.52 55.66 104.28C55.42 104.05 54.95 100.1 54.83 98.19C54.71 96.16 54.47 90.18 54.47 89.59C54.47 89.35 54.47 88.99 54.47 88.87C54.47 87.67 54.47 86.72 54.47 86.36C54.47 86.12 54.47 85.64 54.47 85.16C54.47 84.8 54.47 83.73 54.47 82.89C54.59 81.94 54.59 80.62 54.71 79.91C54.71 79.31 54.71 78.59 54.83 78.35C54.83 78.11 54.95 77.63 54.95 77.28C54.95 76.92 55.07 75.96 55.3 75.36C55.54 74.05 55.66 73.69 55.78 72.97C55.9 72.02 56.14 71.3 56.26 71.06C56.38 70.82 56.38 70.7 56.5 70.58C56.5 70.46 56.5 70.34 56.5 70.22C56.5 70.11 56.62 69.99 56.74 69.75C56.74 69.63 56.86 69.39 56.98 69.15C56.98 68.91 57.1 68.55 57.22 68.55C57.34 68.43 57.46 68.07 57.58 67.83C57.69 67.48 57.93 67 58.05 66.76C58.29 66.52 58.53 66.16 58.53 65.92C58.65 65.32 61.52 61.62 62.12 61.38C62.36 61.26 62.71 60.9 62.95 60.54C63.31 60.19 63.55 59.95 63.67 59.95C63.67 59.95 64.03 59.71 64.27 59.47C64.63 59.35 65.22 58.99 65.58 58.75C65.94 58.51 66.42 58.15 66.54 58.03C66.9 57.8 69.29 56.6 69.77 56.48C70.12 56.48 70.72 56.24 71.2 56C71.8 55.88 72.51 55.64 72.99 55.64C73.59 55.53 74.19 55.41 74.43 55.29C74.78 55.17 76.1 54.93 77.53 54.81C78.85 54.69 80.64 54.45 81.6 54.33C82.67 54.21 83.27 54.21 83.63 54.21C83.87 54.33 84.11 54.33 84.23 54.33C84.46 54.21 92.35 53.97 92.59 54.09C92.59 54.21 93.31 54.09 94.03 54.09C94.62 53.97 95.46 53.97 95.58 53.97C95.82 54.09 96.42 54.09 96.89 53.97C97.37 53.97 97.85 53.97 97.85 53.97C98.09 53.97 109.8 54.09 111 54.09C111.35 54.09 111.83 54.09 112.07 54.09C112.19 54.09 112.79 54.09 113.27 54.09C113.62 54.09 114.34 54.09 114.58 54.09C114.94 54.09 115.42 54.09 115.9 54.09C116.25 54.09 116.85 54.09 117.09 54.09C117.45 54.09 118.05 54.09 118.52 54.09C118.88 54.09 120.08 54.09 120.91 54.09C122.71 54.21 122.83 54.21 124.02 54.09C124.5 54.09 125.1 54.09 125.34 54.09C125.58 54.09 126.17 54.09 126.65 54.09C127.25 54.09 127.73 54.09 127.97 54.09C128.32 54.09 130.24 54.09 131.07 54.09C131.43 54.09 132.03 54.09 132.27 54.09C132.39 54.09 132.99 54.09 133.46 54.09C133.94 54.09 134.54 54.09 134.78 54.09C135.02 54.09 135.61 54.09 136.09 54.09C137.17 54.09 137.53 54.09 139.56 54.21C140.51 54.21 142.19 54.33 143.26 54.33C145.18 54.33 145.89 54.45 147.68 54.57C148.16 54.57 148.88 54.69 149.24 54.69C149.72 54.69 150.67 54.93 151.39 55.05C152.23 55.29 152.94 55.41 153.06 55.41C153.3 55.29 153.66 55.41 153.9 55.53C154.14 55.64 154.86 55.88 155.57 56C156.29 56.12 156.89 56.36 157.01 56.36C157.48 56.6 158.8 57.08 158.92 57.08C159.04 57.08 159.28 57.2 159.4 57.32C159.4 57.44 159.76 57.56 160.11 57.68C160.83 57.92 166.93 62.58 167.05 63.05C167.16 63.17 167.28 63.53 167.52 63.77C167.76 64.01 168 64.25 168 64.37C168 64.49 168.12 64.73 168.36 64.97C168.84 65.32 171.11 70.22 171.23 71.18C171.35 71.54 171.47 72.02 171.59 72.14C171.71 72.38 171.71 72.73 171.71 72.85C171.71 73.09 171.83 73.57 171.95 73.93C172.18 74.29 172.3 75.12 172.42 76.08C172.54 76.92 172.66 78.71 172.9 80.14C173.02 81.7 173.14 82.89 173.02 83.25C173.02 83.49 173.02 84.09 173.14 84.57C173.14 85.04 173.14 86 173.14 86.84C173.14 87.55 173.02 89.23 173.02 90.3C173.02 91.5 172.9 93.17 172.9 94.13C172.78 95.08 172.78 96.16 172.78 96.76C172.78 97.23 172.78 97.95 172.66 98.19C172.54 98.55 172.54 99.03 172.42 99.38C172.3 100.94 172.3 101.78 172.18 102.01C172.18 102.25 172.06 102.73 172.06 103.09C172.06 103.57 171.95 104.4 171.71 105.12C171.35 106.91 171.35 107.03 171.23 107.99C171.23 108.47 171.11 108.95 170.99 109.07C170.87 109.3 170.75 109.66 170.63 110.14C170.63 110.5 170.51 110.98 170.51 111.22C170.39 111.34 170.39 111.69 170.27 111.93C170.27 112.17 170.15 112.65 170.03 113.01C169.91 113.25 169.67 113.73 169.67 114.08C169.55 114.68 169.55 114.68 169.32 115.04C169.2 115.28 169.2 115.4 169.2 115.52C169.2 115.64 169.08 115.88 168.96 116.12C168.84 116.36 168.72 116.59 168.72 116.83C168.72 117.07 168.6 117.43 168.48 117.67C168.36 117.79 168.24 118.03 168.24 118.15C168.24 118.27 168.12 118.51 167.88 118.75C167.76 118.98 167.64 119.34 167.64 119.58C167.52 119.7 167.4 120.06 167.28 120.3C166.93 120.66 166.93 120.78 166.93 121.14C166.93 121.26 166.81 121.61 166.57 121.85C166.45 121.97 166.21 122.33 166.21 122.57C166.09 122.81 165.97 123.29 165.73 123.53C165.49 123.88 165.25 124.24 165.25 124.48C165.25 124.6 165.01 125.08 164.66 125.56C164.42 125.92 164.18 126.27 164.06 126.27C164.06 126.39 164.06 126.51 164.06 126.63C164.06 126.75 163.58 127.59 162.86 128.43C162.15 129.26 161.67 130.1 161.55 130.34C161.43 130.94 158.56 134.52 158.08 134.76C157.84 134.88 157.25 135.48 156.41 136.43C155.69 137.39 155.09 138.11 154.74 138.23C154.5 138.46 153.9 139.06 153.18 139.9C152.47 140.73 151.87 141.45 151.63 141.45C151.39 141.57 150.55 142.65 149.12 144.32C147.09 146.95 146.85 147.43 146.37 148.98C146.13 150.06 146.61 152.09 147.33 152.45C147.57 152.57 147.68 152.92 147.8 153.04C147.92 153.52 149.12 154.48 149.72 154.6C149.96 154.72 150.31 154.84 150.67 155.08C150.91 155.31 151.27 155.55 151.63 155.55C151.87 155.67 152.11 155.79 152.35 155.91C152.47 156.03 152.82 156.15 153.06 156.27C153.3 156.27 153.66 156.51 153.9 156.63C154.26 156.87 154.5 156.99 154.62 156.99C154.86 156.99 155.09 157.11 155.33 157.23C155.81 157.59 155.93 157.59 156.41 157.71C156.41 157.71 156.77 157.94 157.13 158.18C157.48 158.54 157.96 158.78 158.2 158.78C158.8 158.9 163.46 162.61 163.7 163.08C163.7 163.32 164.06 163.68 164.3 163.92C164.77 164.28 165.49 165.47 165.97 167.03C166.09 167.27 166.21 167.74 166.33 167.98C166.69 168.94 166.93 171.57 166.81 172.4C166.69 172.76 166.57 173.36 166.57 173.72C166.57 174.32 166.33 175.03 165.85 175.87C165.73 176.11 165.73 176.47 165.73 176.59C165.73 176.71 165.61 176.95 165.37 177.07C165.25 177.19 165.13 177.54 165.01 177.78C164.89 178.5 161.19 183.28 160.47 183.64C160.23 183.76 159.4 184.71 158.2 186.15C156.17 188.78 156.05 188.9 156.17 190.33C156.17 191.05 156.17 191.29 156.89 192.36C157.13 192.72 157.48 193.2 157.6 193.44C157.72 193.68 158.32 194.16 158.92 194.63C159.52 195.23 160.11 195.71 160.11 195.95C160.23 196.19 160.83 196.78 161.79 197.5C162.74 198.22 163.34 198.82 163.34 199.06C163.46 199.29 163.7 199.65 164.06 199.77C164.3 200.01 164.66 200.37 164.77 200.61C164.89 200.85 165.13 201.21 165.37 201.45C165.49 201.56 165.73 201.8 165.85 202.04C165.97 202.28 166.09 202.52 166.09 202.52C166.21 202.52 166.45 202.88 166.69 203.36C166.93 203.84 167.16 204.43 167.28 204.55C167.4 204.67 167.52 204.91 167.52 205.15C167.52 205.27 167.76 205.75 168 206.23C168.84 208.02 169.08 212.32 168.48 214.71C168.36 215.43 168.24 216.14 168.12 216.5C168.12 216.74 168 217.22 167.88 217.58C167.64 217.82 167.52 218.18 167.52 218.3C167.52 218.54 167.52 218.65 167.4 218.77C167.28 218.89 167.16 219.01 167.16 219.49C167.16 219.61 166.81 220.09 166.45 220.57C166.09 221.04 165.73 221.52 165.73 221.76C165.73 221.88 165.61 222.12 165.61 222.12C165.49 222.6 162.03 226.78 161.67 226.9C161.43 226.9 161.07 227.26 160.83 227.62C160.59 227.98 160.11 228.33 159.87 228.45C159.64 228.57 159.28 228.93 159.16 229.17C158.92 229.41 158.56 229.65 158.32 229.77C158.08 230.01 157.6 230.25 157.48 230.61C157.25 230.84 156.89 231.08 156.65 231.2C156.41 231.32 156.29 231.44 156.29 231.44C156.29 231.56 156.05 231.68 155.69 231.8C155.45 231.92 155.09 232.28 154.86 232.52C154.62 232.76 154.38 233 154.14 233C154.02 233 153.78 233.12 153.78 233.23C153.78 233.23 153.66 233.47 153.3 233.59C153.06 233.71 152.7 233.95 152.58 234.07C152.47 234.31 151.99 234.55 151.51 234.79C151.15 234.91 150.67 235.27 150.43 235.51C150.19 235.74 149.72 236.1 149.36 236.34C147.92 237.18 147.45 237.42 147.09 237.78C146.97 237.9 146.73 238.01 146.61 238.01C146.49 238.01 146.37 238.13 146.13 238.37C146.01 238.49 145.65 238.73 145.53 238.85C144.58 239.33 144.22 239.57 143.74 240.05C143.5 240.17 143.02 240.52 142.67 240.76C142.31 241 141.71 241.36 141.47 241.6C141.23 241.72 140.87 241.96 140.87 241.96C140.75 241.96 140.51 242.08 140.39 242.32C140.28 242.44 139.92 242.8 139.68 242.91C139.44 243.03 139.08 243.27 138.96 243.39C138.84 243.63 138.6 243.87 138.36 243.99C138 244.11 137.65 244.47 137.53 244.71C137.29 244.95 136.93 245.19 136.81 245.19C136.57 245.31 136.09 245.78 135.73 246.26C135.26 246.74 134.78 247.34 134.54 247.46C133.94 247.7 133.34 248.41 133.22 249.01C133.1 249.25 132.87 249.73 132.75 249.97C132.15 250.68 131.91 252.6 132.15 253.55C132.27 253.79 132.27 254.15 132.39 254.39C132.39 254.75 135.14 257.02 135.85 257.14C136.09 257.14 136.33 257.26 136.45 257.38C136.57 257.49 136.69 257.61 136.69 257.49C136.69 257.49 137.05 257.49 137.29 257.61C137.65 257.73 138 257.73 138 257.73C138 257.73 138.12 257.73 138.36 257.85C138.84 258.21 140.28 258.45 141.35 258.57C141.95 258.57 142.67 258.69 143.02 258.81C143.5 258.93 144.1 259.05 144.34 259.05C144.58 259.05 145.18 259.17 145.53 259.17C145.77 259.29 146.37 259.29 146.61 259.29C146.85 259.29 147.68 259.41 148.28 259.53C148.88 259.77 149.72 259.89 149.96 259.89C150.19 260 150.43 260 150.43 260C150.55 260.12 150.79 260.12 151.03 260.12C151.27 260.24 152.11 260.36 152.7 260.48C153.42 260.72 154.14 260.84 154.26 260.84C154.38 260.84 154.62 260.96 154.62 260.96C154.74 261.08 155.09 261.2 155.33 261.2C155.57 261.32 155.93 261.44 156.05 261.56C156.17 261.68 156.53 261.92 156.77 261.92C157.01 261.92 157.37 262.04 157.6 262.16C157.72 262.28 158.08 262.39 158.2 262.39C158.56 262.39 163.46 266.46 163.7 266.94C163.94 267.18 164.3 267.77 164.54 268.25C164.66 268.73 165.01 269.21 165.13 269.33C165.97 270.28 166.57 274.7 166.09 276.86C165.97 277.57 165.73 278.29 165.73 278.41C165.73 278.41 165.73 278.65 165.61 278.77C165.49 278.77 165.37 279.13 165.37 279.36C165.37 279.6 165.13 280.08 164.89 280.32C164.66 280.56 164.42 280.92 164.42 281.04C164.42 281.64 160.95 286.06 160.23 286.54C159.76 286.77 156.53 290.72 156.29 291.32C155.69 292.63 155.93 294.54 156.65 295.14C156.77 295.26 156.89 295.5 156.89 295.62C156.89 295.74 157.13 295.98 157.37 296.1C157.48 296.34 157.84 296.69 157.84 296.93C157.96 297.05 158.8 297.89 159.99 298.73C161.07 299.68 161.91 300.4 162.03 300.76C162.26 301 162.62 301.47 163.1 301.83C163.58 302.19 163.94 302.55 164.06 302.79C164.18 303.03 164.42 303.39 164.66 303.51C164.77 303.74 165.01 303.98 165.01 304.1C165.01 304.22 165.25 304.46 165.37 304.7C165.61 304.82 166.09 305.42 166.33 305.9C166.57 306.37 166.93 307.09 167.16 307.45C167.4 307.81 167.52 308.29 167.52 308.41C167.52 308.64 167.64 308.88 167.76 309.12C167.88 309.36 168 309.6 168 309.72C168 309.96 168.12 310.32 168.24 310.56C168.6 311.39 168.84 315.34 168.6 316.77C168.48 316.89 168.48 317.13 168.48 317.37C168.36 317.49 168.24 318.09 168.12 318.56C168 319.04 168 319.52 167.88 319.76C167.88 319.88 167.88 320.12 167.76 320.24C167.64 320.24 167.52 320.48 167.52 320.71C167.4 321.43 166.93 322.51 166.57 322.99C166.33 323.22 166.21 323.58 166.09 323.82C165.97 324.42 161.91 329.56 161.31 329.92C161.07 330.04 160.59 330.4 160.35 330.87C159.99 331.23 159.52 331.59 159.4 331.71C159.16 331.83 158.8 332.19 158.44 332.43C158.2 332.79 157.6 333.26 157.25 333.38C156.77 333.62 156.17 334.1 155.93 334.34C155.57 334.7 155.21 335.06 154.97 335.18C154.74 335.3 154.5 335.41 154.5 335.53C154.5 335.53 154.26 335.65 154.02 335.77C153.78 335.89 153.54 336.01 153.54 336.13C153.42 336.25 153.18 336.49 152.94 336.61C152.7 336.73 152.23 336.97 152.11 337.21C151.99 337.33 151.75 337.57 151.63 337.57C151.51 337.57 151.27 337.69 151.15 337.8C150.91 338.04 150.43 338.28 150.07 338.52C149.72 338.76 149.24 339.12 149 339.24C148.76 339.36 148.4 339.6 148.16 339.72C147.92 339.84 147.8 340.08 147.8 340.08C147.8 340.08 147.57 340.19 147.33 340.31C147.09 340.43 146.85 340.55 146.85 340.67C146.85 340.67 146.61 340.91 146.37 341.03C146.01 341.15 145.65 341.39 145.53 341.51C145.41 341.75 144.94 341.99 144.58 342.23C144.1 342.35 143.62 342.7 143.5 342.82C143.38 342.94 143.26 343.06 143.14 343.06C143.02 343.06 142.67 343.3 142.43 343.54C142.19 343.9 141.59 344.26 141.23 344.5C140.75 344.74 140.28 345.09 140.04 345.33C139.8 345.57 139.44 345.81 139.2 345.93C138.96 346.05 138.72 346.29 138.6 346.41C138.6 346.53 138.24 346.77 138 346.89C137.77 346.89 137.53 347.13 137.29 347.37C137.17 347.6 136.93 347.84 136.69 347.96C136.33 348.08 135.85 348.56 135.38 349.28C134.78 349.88 134.18 350.59 133.94 350.71C133.7 350.95 133.34 351.31 133.34 351.43C133.22 351.67 132.99 352.15 132.75 352.5C132.51 352.86 132.27 353.22 132.15 353.34C132.15 353.82 132.03 353.94 131.91 354.18C131.07 355.73 132.87 359.08 135.02 359.79C135.26 359.91 135.61 360.03 135.85 360.15C136.09 360.15 136.45 360.27 136.57 360.27C136.69 360.27 136.93 360.39 136.93 360.51C137.05 360.63 137.41 360.75 137.65 360.75C138.36 360.87 138.72 360.99 139.8 361.23C140.28 361.35 140.99 361.47 141.47 361.47C141.83 361.47 142.31 361.47 142.55 361.59C142.67 361.59 143.26 361.71 143.86 361.83C144.34 361.83 145.18 361.95 145.65 362.06C146.01 362.18 146.85 362.18 147.21 362.3C147.68 362.3 148.04 362.3 148.16 362.3C148.16 362.42 148.52 362.42 148.76 362.54C149 362.54 149.72 362.66 150.31 362.9C150.91 363.02 151.63 363.14 151.87 363.14C153.06 363.38 153.78 363.62 154.02 363.74C154.14 363.86 154.5 363.98 154.74 363.98C154.86 363.98 155.09 364.1 155.21 364.22C155.33 364.22 155.45 364.34 155.69 364.34C155.81 364.34 156.17 364.46 156.41 364.57C156.77 364.69 157.13 364.81 157.25 364.81C157.25 364.81 157.72 365.05 158.08 365.41C158.44 365.65 158.92 366.01 159.16 366.01C159.76 366.13 162.38 368.28 162.62 368.76C162.62 369 162.98 369.36 163.22 369.47C163.58 369.83 163.82 370.19 164.06 370.67C164.3 371.03 164.54 371.51 164.66 371.63C165.13 372.1 165.85 374.14 165.97 375.93C166.21 377.72 165.97 380.83 165.49 381.43C165.37 381.54 165.37 381.78 165.25 381.9C165.25 382.14 165.01 382.62 164.77 382.98C164.54 383.34 164.3 383.7 164.3 383.94C164.3 384.29 160.11 389.55 159.64 389.79C158.8 390.15 155.93 393.97 155.69 394.93C155.45 396.12 155.93 397.8 156.65 398.28C156.77 398.4 157.01 398.75 157.13 398.99C157.25 399.23 158.08 399.95 158.8 400.55C159.64 401.26 160.35 401.86 160.47 402.1C160.47 402.34 161.31 403.06 162.5 404.01C163.7 404.97 164.42 405.69 164.66 405.92C164.77 406.16 165.13 406.64 165.49 406.88C165.85 407.12 166.09 407.48 166.21 407.84C166.33 408.08 166.45 408.2 166.45 408.2C166.57 408.2 166.69 408.43 166.93 408.67C167.05 409.03 167.28 409.39 167.52 409.63C167.76 409.87 168 410.11 168 410.11C168 410.35 168.72 412.02 169.08 412.38C169.44 412.74 170.27 414.65 170.63 416.08C170.75 416.44 170.87 416.8 170.87 416.92C170.99 417.16 171.11 417.4 171.11 417.64C171.11 417.88 171.23 418.35 171.35 418.71C171.47 419.07 171.71 420.27 171.83 422.06C172.06 423.49 172.3 425.76 172.42 426.96C172.54 428.27 172.66 429.35 172.54 429.59C172.54 429.71 172.54 430.54 172.66 431.14C172.66 431.86 172.78 432.58 172.66 432.58C172.66 432.69 172.54 433.17 172.66 433.65C172.66 434.01 172.66 434.61 172.66 434.85C172.66 435.56 172.66 436.16 172.66 437.12C172.66 437.71 172.66 438.79 172.66 439.75C172.66 440.7 172.66 441.78 172.66 442.14C172.66 442.61 172.66 443.81 172.66 445C172.54 446.2 172.54 448.23 172.54 449.55C172.42 451.58 172.3 453.49 171.95 456.95C171.95 457.19 171.83 457.55 171.83 457.67C171.71 457.79 171.71 458.03 171.71 458.39C171.71 458.75 171.59 459.58 171.47 460.18C171.35 460.9 171.23 461.5 171.11 461.62C171.11 461.85 171.11 461.97 170.99 462.09C170.87 462.21 170.75 462.69 170.63 463.17C170.51 463.65 170.39 464.13 170.39 464.24C170.27 464.36 170.15 464.6 170.15 464.72C170.15 464.96 170.03 465.2 169.91 465.32C169.79 465.56 169.67 465.68 169.67 465.8C169.67 465.92 169.67 466.28 169.55 466.4C169.44 466.64 169.32 466.99 169.2 467.23C169.2 467.47 168.96 467.83 168.84 468.07C168.6 468.43 168.36 468.79 168.24 469.14C168.24 469.38 167.88 469.86 167.64 470.22C167.4 470.58 167.16 470.94 167.16 471.06C167.16 471.3 166.93 471.77 166.21 472.61C165.97 472.97 165.73 473.45 165.61 473.57C165.61 473.69 165.61 473.81 165.61 473.93C165.61 473.93 165.37 474.4 165.01 474.76C164.77 475.12 164.42 475.6 164.42 475.84C164.42 475.96 164.3 476.2 164.3 476.32C163.7 477.27 163.34 481.1 163.82 482.05C163.94 482.17 164.06 482.53 164.06 482.65C164.06 482.89 165.61 486.23 165.97 486.83C166.21 487.07 166.69 487.91 167.05 488.74C169.08 493.17 169.91 494.84 169.91 495.08C169.91 495.2 169.91 495.44 170.03 495.68C170.15 495.8 170.27 496.15 170.27 496.39C170.27 496.63 170.51 497.35 170.75 497.95C170.99 498.66 171.23 499.5 171.23 500.1C171.35 500.7 171.47 501.41 171.59 501.65C171.83 502.13 172.18 504.64 172.18 507.15C172.3 508.22 172.3 509.54 172.42 510.14C172.42 510.73 172.54 511.93 172.42 512.77C172.42 513.72 172.42 514.68 172.42 515.04C172.42 515.28 172.42 515.87 172.42 516.11C172.42 516.47 172.42 517.07 172.42 517.43C172.42 517.78 172.42 518.26 172.42 518.26C172.42 518.38 172.42 519.34 172.3 520.41C172.3 522.92 172.18 524.24 172.06 524.72C171.95 524.96 171.95 525.55 171.95 526.15C171.95 526.63 171.83 527.35 171.83 527.82C171.71 528.3 171.59 528.66 171.71 528.78C171.71 528.9 171.71 529.26 171.59 529.5C171.47 529.74 171.47 530.45 171.35 531.05C171.23 532.36 171.23 532.36 170.63 534.75C170.39 535.71 170.27 536.67 170.15 536.91C170.03 538.1 169.79 538.82 169.67 539.06C169.55 539.18 169.44 539.54 169.44 539.65C169.44 539.89 169.32 540.13 169.2 540.25C169.2 540.25 168.96 540.73 168.96 541.21C168.84 541.69 168.6 542.28 168.36 542.64C168.24 542.88 168.12 543.12 168.12 543.36C168.12 543.48 168 543.72 167.88 543.84C167.76 543.96 167.64 544.2 167.52 544.55C167.4 544.79 167.28 545.27 167.16 545.39C167.16 545.51 167.05 545.87 166.93 545.99C166.93 546.23 166.57 546.83 166.21 547.3C165.85 547.78 165.49 548.14 165.49 548.14C165.61 548.62 165.37 548.98 164.42 550.05C163.82 550.89 163.34 551.61 163.34 551.73C163.34 552.2 162.5 553.28 162.03 553.4C161.79 553.52 161.19 554.23 160.47 555.07C159.76 556.03 159.16 556.74 158.8 556.86C158.56 556.98 158.08 557.46 157.84 557.82C157.48 558.18 157.25 558.54 157.25 558.54C157.01 558.54 155.69 559.37 155.21 559.73C154.62 560.33 154.02 560.81 153.18 561.17C152.7 561.29 152.35 561.64 152.11 561.76C151.99 561.88 151.51 562.12 151.03 562.36C150.55 562.48 149.6 562.96 148.88 563.32C148.28 563.68 147.45 563.92 147.21 564.03C146.97 564.03 146.61 564.15 146.25 564.27C146.01 564.39 145.65 564.51 145.41 564.63C145.18 564.63 144.7 564.75 144.34 564.87C143.98 564.87 143.5 565.11 143.14 565.11C142.9 565.23 142.19 565.47 141.47 565.59C140.75 565.71 139.8 565.83 139.44 565.95C137.89 566.19 132.63 566.31 131.55 566.07C131.19 565.95 130.48 565.83 130 565.83C129.52 565.83 129.04 565.71 128.92 565.71C128.92 565.71 128.44 565.59 127.97 565.59C127.49 565.59 126.77 565.35 126.41 565.23C126.05 565.11 125.58 564.99 125.34 564.87C124.14 564.75 124.02 564.63 123.42 564.39C123.07 564.27 122.71 564.15 122.59 564.15C122.47 564.15 122.35 564.03 122.23 563.92C122.11 563.92 121.87 563.8 121.63 563.8C121.39 563.8 121.15 563.68 121.03 563.56C120.8 563.44 120.68 563.32 120.44 563.32C120.32 563.32 119.96 563.2 119.72 563.08C119.48 562.84 119.12 562.72 119 562.6C118.05 562.36 117.21 562 116.61 561.64C116.25 561.29 115.78 561.05 115.54 561.05C115.3 560.93 114.94 560.69 114.7 560.57C114.46 560.33 113.98 560.21 113.74 560.09C113.51 559.97 113.03 559.73 112.67 559.49C112.31 559.25 111.83 558.9 111.59 558.9C111.35 558.78 110.88 558.54 110.64 558.42C110.4 558.18 109.92 557.94 109.68 557.94C109.44 557.82 109.08 557.7 108.72 557.46C108.49 557.22 108.01 556.98 107.41 556.86C107.05 556.74 106.45 556.63 106.33 556.51C106.1 556.39 105.74 556.39 105.62 556.39C105.5 556.39 105.38 556.27 105.26 556.15C105.02 555.91 104.06 555.79 103.47 555.79C103.23 555.79 102.63 555.67 102.15 555.67C100.96 555.31 96.89 555.79 95.82 556.39C95.34 556.63 94.86 556.74 94.74 556.74C94.26 556.74 89.13 559.37 88.53 559.97C88.29 560.09 87.81 560.45 87.33 560.69C86.14 561.29 85.54 561.64 85.42 561.88C85.3 562 85.18 562.12 84.94 562.12C84.82 562.24 84.46 562.36 84.35 562.6C84.11 562.72 83.75 562.96 83.39 563.2C83.03 563.32 82.55 563.44 82.55 563.56C82.43 563.68 82.07 563.92 81.72 564.03C81.48 564.15 80.28 564.75 79.21 565.23C77.17 566.19 76.34 566.54 74.78 566.78C74.19 566.9 73.59 567.02 73.47 567.14C72.87 567.38 69.65 567.38 67.97 567.02ZM136.09 524.72C136.69 524.12 136.81 523.76 136.81 523.64C136.81 523.64 136.93 523.4 136.93 523.16C137.05 522.33 135.97 520.77 135.14 520.65C132.51 520.06 131.79 524.12 134.42 525.07C134.78 525.19 135.97 524.96 136.09 524.72ZM96.42 479.54C97.49 479.42 98.45 479.18 98.69 479.06C98.81 478.94 99.16 478.94 99.4 478.94C99.64 478.94 100.24 478.71 100.96 478.47C101.55 478.23 102.15 477.99 102.27 477.99C102.39 477.99 102.63 477.87 102.87 477.63C103.11 477.51 103.35 477.27 103.47 477.27C103.59 477.27 103.83 477.15 103.94 476.91C104.18 476.67 104.54 476.32 104.9 476.2C105.38 475.96 105.38 475.84 105.62 475C105.62 474.76 105.74 474.16 105.86 473.69C105.98 472.85 105.98 472.49 105.38 471.18C105.26 470.94 105.26 470.58 105.26 470.46C105.26 470.22 105.14 469.98 105.02 469.74C104.9 469.62 104.78 469.26 104.78 469.03C104.78 468.67 104.54 468.43 104.3 468.19C104.18 468.07 104.06 467.71 104.06 467.59C104.06 467.35 103.71 466.4 103.23 465.56C102.75 464.6 102.39 463.65 102.39 463.53C102.39 463.41 102.27 463.17 102.27 462.93C102.15 462.81 102.03 462.45 102.03 462.21C101.91 461.74 101.79 461.26 101.32 460.18C101.2 459.82 101.08 459.35 101.08 459.11C101.08 458.87 100.96 458.39 100.84 458.03C100.72 457.67 100.48 456.95 100.48 456.48C100.36 455.88 100.24 455.28 100.24 455.04C100 454.8 99.64 452.41 99.28 448.59C99.16 447.75 99.04 446.92 98.93 446.44C98.81 446.08 98.57 445.36 98.57 444.88C98.57 444.53 98.45 443.93 98.33 443.81C98.21 443.57 98.09 443.21 98.09 443.09C98.09 442.73 96.77 439.98 96.42 439.75C96.18 439.63 96.06 439.27 95.94 439.03C95.82 438.67 94.14 437.36 93.79 437.36C93.67 437.36 93.43 437.24 93.19 437.12C91.52 436.4 89.13 436.88 87.81 438.19C87.57 438.43 87.21 438.67 86.85 438.91C86.62 439.03 86.38 439.27 86.26 439.75C86.14 440.1 85.9 440.7 85.54 441.06C85.3 441.42 85.06 441.9 84.94 442.02C84.94 442.26 84.94 442.49 84.82 442.61C84.7 442.73 84.35 444.05 84.11 445.36C84.11 445.6 83.99 446.32 83.75 446.92C83.63 447.63 83.51 448.47 83.51 448.95C83.39 450.5 83.27 451.1 83.27 451.46C83.15 451.58 83.15 452.06 83.03 452.41C82.91 454.33 82.91 455.04 82.79 455.04C82.79 455.16 82.67 455.52 82.67 455.88C82.55 457.43 82.43 457.67 82.31 458.51C82.19 458.99 82.07 459.46 82.19 459.58C82.19 459.58 82.07 460.06 81.96 460.66C81.84 461.14 81.72 461.74 81.72 461.97C81.48 463.17 81.36 463.77 81.24 464.01C81.12 464.13 81 464.48 80.88 464.84C80.88 465.08 80.76 465.8 80.64 466.52C80.4 467.23 80.28 467.95 80.28 468.31C80.16 468.55 80.16 468.79 80.16 468.79C80.04 468.91 80.04 469.14 79.92 469.38C79.92 469.62 79.8 470.1 79.8 470.34C79.68 470.58 79.68 470.94 79.68 471.06C79.8 471.18 79.68 471.42 79.68 471.65C79.33 472.73 79.8 474.28 81.12 476.32C81.48 476.91 82.19 477.39 82.67 477.39C82.79 477.39 83.03 477.63 83.39 477.87C83.63 478.11 83.99 478.23 84.23 478.35C84.35 478.35 84.7 478.47 84.94 478.59C85.18 478.71 85.54 478.82 85.66 478.82C85.78 478.82 86.02 478.82 86.14 478.94C86.14 479.06 86.5 479.18 86.85 479.3C87.21 479.3 87.57 479.42 87.69 479.42C87.81 479.42 88.17 479.54 88.65 479.54C90.68 479.66 91.16 479.78 91.16 479.78C91.28 479.9 94.86 479.78 96.42 479.54ZM137.53 479.42C138.24 479.42 139.2 479.18 139.56 479.06C139.92 478.94 140.39 478.82 140.51 478.82C140.99 478.82 143.14 477.75 143.14 477.63C143.14 477.51 143.38 477.39 143.62 477.27C143.98 477.15 145.29 475.84 145.29 475.6C145.29 475.6 145.53 475.36 145.77 475C145.89 474.76 146.13 474.28 146.25 473.93C146.25 473.57 146.37 473.33 146.37 473.21C146.49 472.49 146.49 472.01 146.37 470.82C146.25 469.98 146.13 469.14 146.01 468.91C145.89 468.67 145.77 468.07 145.65 467.59C145.65 467.11 145.53 466.52 145.41 466.28C145.29 466.04 145.18 465.56 145.18 465.08C145.06 464.6 144.94 464.01 144.94 463.89C144.82 463.65 144.7 463.17 144.58 462.81C144.58 462.45 144.46 461.97 144.34 461.85C144.22 461.62 144.1 460.78 143.98 459.94C143.86 459.23 143.74 458.39 143.62 458.15C143.5 457.79 143.26 456.36 142.55 450.14C142.43 449.07 142.31 447.99 142.07 447.51C141.95 447.04 141.83 446.56 141.83 446.2C141.83 445.96 141.71 445.48 141.59 445.12C141.47 444.76 141.35 444.41 141.35 444.41C141.35 444.29 141.11 443.81 140.87 443.33C140.63 442.97 140.51 442.49 140.51 442.37C140.51 442.26 140.39 442.14 140.28 442.14C140.16 442.02 140.04 441.78 139.8 441.54C138.72 439.39 135.02 438.55 133.7 440.22C133.46 440.34 133.22 440.58 133.22 440.58C132.87 440.58 132.15 441.3 132.15 441.78C132.03 442.14 131.91 442.49 131.67 442.73C131.43 442.97 131.31 443.33 131.31 443.45C131.19 443.93 131.07 443.93 130.95 444.29C130.83 444.41 130.83 444.65 130.83 444.76C130.83 444.88 130.71 445.12 130.6 445.36C130.36 445.72 130.36 445.96 130.24 446.8C130.12 447.04 130 447.51 129.88 447.99C129.76 448.47 129.64 449.31 129.64 449.9C129.52 450.5 129.4 451.1 129.4 451.34C129.28 452.06 128.92 453.85 128.8 454.8C128.56 456.48 128.2 458.15 127.97 458.39C127.97 458.51 127.85 458.75 127.73 458.99C127.61 459.94 127.25 461.14 127.13 461.38C127.13 461.38 127.01 461.74 127.01 461.85C126.89 462.09 126.77 462.45 126.65 462.69C126.65 462.93 126.53 463.17 126.53 463.29C126.53 463.41 126.41 463.77 126.17 463.89C125.81 464.36 125.81 464.36 125.81 464.72C125.81 464.84 125.7 465.2 125.58 465.44C125.34 465.56 125.22 465.92 125.22 466.04C125.22 466.16 125.1 466.52 124.98 466.75C124.86 466.99 124.74 467.35 124.62 467.59C124.5 467.95 124.38 468.19 124.26 468.31C124.14 468.43 124.02 468.55 124.02 468.79C124.02 468.91 123.9 469.26 123.78 469.5C123.54 469.86 123.42 470.22 123.31 470.46C123.31 470.58 123.19 470.94 123.07 471.18C122.23 472.97 122.83 475.72 124.26 476.79C125.1 477.51 125.22 477.63 125.7 477.63C125.81 477.63 126.17 477.87 126.29 477.99C126.53 478.11 126.89 478.23 127.13 478.35C127.37 478.35 127.61 478.47 127.61 478.47C127.73 478.59 129.04 478.94 130.6 479.18C130.71 479.3 131.07 479.3 131.19 479.42C131.43 479.42 132.39 479.54 133.34 479.54C134.3 479.54 135.02 479.66 135.14 479.66C135.14 479.66 135.38 479.66 135.61 479.66C135.85 479.66 136.69 479.54 137.53 479.42ZM118.17 121.14C119.84 121.02 121.15 120.78 121.51 120.66C121.99 120.42 122.47 120.3 122.71 120.3C122.95 120.3 123.54 120.18 123.9 119.94C124.38 119.7 124.86 119.58 125.1 119.46C125.93 119.34 130.83 116.83 131.07 116.36C131.19 116.24 131.43 116.12 131.79 115.88C132.03 115.76 132.39 115.52 132.51 115.28C132.63 115.16 132.87 114.92 133.1 114.8C133.34 114.68 133.94 114.08 134.54 113.37C135.14 112.65 135.73 112.05 135.85 112.05C136.09 112.05 136.45 111.46 136.45 111.1C136.45 111.1 136.93 110.26 137.65 109.54C138.24 108.71 138.84 107.87 138.96 107.63C138.96 107.27 139.2 106.91 139.32 106.79C139.44 106.56 139.56 106.32 139.56 106.2C139.56 106.08 139.68 105.84 139.8 105.6C139.92 105.36 140.04 105 140.04 104.88C140.04 104.64 140.16 104.4 140.28 104.28C140.39 104.17 140.75 102.73 140.87 101.89C140.87 101.54 140.99 101.3 140.99 101.18C141.47 100.46 141.23 96.28 140.75 94.72C139.92 92.69 139.2 91.26 138.72 90.9C138.48 90.78 138.12 90.42 138 90.18C137.89 89.59 136.21 88.27 135.49 88.15C135.26 88.03 134.9 87.91 134.66 87.67C134.06 87.2 131.31 86.24 131.31 86.48C131.31 86.6 131.19 86.48 131.07 86.36C130.83 86.12 130.12 86 129.16 86C128.8 85.88 128.32 85.88 128.09 85.76C127.85 85.76 127.37 85.64 125.46 85.52C124.02 85.4 123.31 85.4 122.47 85.28C122.11 85.28 121.39 85.16 120.91 85.28C120.44 85.28 119.72 85.28 119.12 85.28C116.73 85.16 113.74 85.16 112.91 85.16C112.43 85.16 111.83 85.16 111.59 85.16C111.35 85.16 110.4 85.16 109.32 85.28C108.25 85.28 107.17 85.28 106.93 85.16C106.69 85.16 105.74 85.16 104.9 85.28C103.94 85.4 102.99 85.4 102.51 85.4C101.67 85.28 98.69 85.64 98.09 85.88C97.97 86 97.37 86.12 96.77 86.24C96.3 86.24 95.7 86.36 95.58 86.48C95.34 86.6 94.98 86.72 94.86 86.72C94.62 86.72 94.03 86.96 93.43 87.31C92.83 87.67 91.99 88.15 91.52 88.39C90.92 88.63 90.44 88.99 90.2 89.23C90.08 89.47 89.72 89.82 89.48 89.94C88.89 90.18 88.29 90.9 88.17 91.5C88.17 91.74 87.93 92.21 87.69 92.45C87.45 92.69 87.33 93.05 87.33 93.17C87.33 93.29 87.21 93.53 87.09 93.77C86.85 94.13 86.74 94.84 86.62 95.8C86.5 96.04 86.5 96.4 86.38 96.4C86.02 97.11 86.38 102.01 86.97 103.45C87.21 103.93 87.33 104.64 87.45 104.88C87.45 105.12 87.81 105.84 88.05 106.44C88.41 107.15 88.77 107.87 88.77 108.11C88.89 108.35 89.13 108.71 89.36 108.95C89.6 109.18 89.72 109.42 89.72 109.54C89.72 109.66 89.84 109.9 89.96 109.9C90.08 109.9 90.2 110.26 90.44 110.5C90.56 110.86 90.92 111.22 91.04 111.34C91.28 111.46 91.64 111.81 91.75 112.17C91.87 112.41 92.35 112.89 92.71 113.13C93.07 113.49 93.55 113.85 93.67 114.08C93.91 114.68 96.18 116.59 96.77 116.71C97.01 116.71 97.49 116.95 97.85 117.31C98.21 117.55 98.69 117.79 98.93 117.91C99.16 117.91 99.64 118.15 99.88 118.39C100.12 118.51 100.48 118.75 100.72 118.75C100.96 118.86 101.32 118.98 101.55 119.1C101.79 119.22 102.03 119.22 102.15 119.22C102.27 119.22 102.51 119.34 102.63 119.46C102.75 119.58 103.11 119.7 103.23 119.7C103.47 119.7 103.71 119.82 103.83 119.94C103.83 120.06 104.06 120.06 104.18 120.06C104.3 120.06 104.66 120.18 105.02 120.3C105.26 120.54 105.74 120.66 106.1 120.66C106.33 120.78 107.05 120.9 107.53 121.02C108.01 121.14 108.49 121.14 108.61 121.14C108.61 121.02 109.08 121.14 109.56 121.26C110.04 121.37 110.76 121.37 111.12 121.37C111.35 121.37 111.71 121.37 111.71 121.49C111.95 121.61 115.66 121.49 118.17 121.14Z"/><text id="Check_no" x="17.01" y="589.82" font-family="WixMadeforText-SemiBold, 'Wix Madefor Text', sans-serif" font-weight="600" font-size="9.52" letter-spacing="1.62" text-anchor="start" fill="#000000">CHECK NO.</text><text id="n0001" x="209.76" y="589.82" font-family="WixMadeforText-SemiBold, 'Wix Madefor Text', sans-serif" font-weight="600" font-size="9.52" letter-spacing="1.62" text-anchor="end" fill="#000000"><tspan>000</tspan><tspan letter-spacing="0">1</tspan></text><text id="Date" x="17.01" y="600.78" font-family="WixMadeforText-SemiBold, 'Wix Madefor Text', sans-serif" font-weight="600" font-size="9.52" letter-spacing="1.62" text-anchor="start" fill="#000000">DATE</text><text id="n10_oct_2026" x="209.76" y="600.78" font-family="WixMadeforText-SemiBold, 'Wix Madefor Text', sans-serif" font-weight="600" font-size="9.52" letter-spacing="1.62" text-anchor="end" fill="#000000"><tspan>10 OCT 202</tspan><tspan letter-spacing="0">6</tspan></text><text id="Start" x="17.01" y="611.73" font-family="WixMadeforText-SemiBold, 'Wix Madefor Text', sans-serif" font-weight="600" font-size="9.52" letter-spacing="1.62" text-anchor="start" fill="#000000">START</text><text id="n18_00" x="209.76" y="611.73" font-family="WixMadeforText-SemiBold, 'Wix Madefor Text', sans-serif" font-weight="600" font-size="9.52" letter-spacing="1.62" text-anchor="end" fill="#000000"><tspan>18:0</tspan><tspan letter-spacing="0">0</tspan></text><path id="rule" d="M17.01 624.83L209.76 624.83" fill="none" stroke="#000000" stroke-width="1.59" stroke-dasharray="4.99 3.17"/><text id="Venue" x="17.01" y="643.15" font-family="WixMadeforText-SemiBold, 'Wix Madefor Text', sans-serif" font-weight="600" font-size="7.26" letter-spacing="1.23" text-anchor="start" fill="#000000">VENUE</text><text id="DNA_Kitchen" x="17.01" y="657.07" font-family="WixMadeforText-SemiBold, 'Wix Madefor Text', sans-serif" font-weight="600" font-size="11.79" letter-spacing="2" text-anchor="start" fill="#000000">DNA KITCHEN</text><text id="Samokatnaya_4s53" x="17.01" y="670.04" font-family="WixMadeforText-SemiBold, 'Wix Madefor Text', sans-serif" font-weight="600" font-size="11.79" letter-spacing="2" text-anchor="start" fill="#000000">SAMOKATNAYA 4S53</text><path id="rule_2" d="M17.01 683.29L209.76 683.29" fill="none" stroke="#000000" stroke-width="1.59" stroke-dasharray="4.99 3.17"/><text id="Line_up" x="17.01" y="701.62" font-family="WixMadeforText-SemiBold, 'Wix Madefor Text', sans-serif" font-weight="600" font-size="7.26" letter-spacing="1.23" text-anchor="start" fill="#000000">LINE‑UP</text><text id="Qty" x="209.76" y="701.62" font-family="WixMadeforText-SemiBold, 'Wix Madefor Text', sans-serif" font-weight="600" font-size="7.26" letter-spacing="1.23" text-anchor="end" fill="#000000"><tspan>QT</tspan><tspan letter-spacing="0">Y</tspan></text><text id="n01" x="17.01" y="715.93" font-family="WixMadeforText-SemiBold, 'Wix Madefor Text', sans-serif" font-weight="600" font-size="7.26" letter-spacing="1.23" text-anchor="start" fill="#000000">01</text><text id="Tanya_Andrianova" x="34.02" y="715.93" font-family="WixMadeforText-SemiBold, 'Wix Madefor Text', sans-serif" font-weight="600" font-size="9.52" letter-spacing="1.62" text-anchor="start" fill="#000000">TANYA ANDRIANOVA</text><text id="n1" x="209.76" y="715.93" font-family="WixMadeforText-SemiBold, 'Wix Madefor Text', sans-serif" font-weight="600" font-size="9.52" text-anchor="end" fill="#000000">1</text><text id="n02" x="17.01" y="727.84" font-family="WixMadeforText-SemiBold, 'Wix Madefor Text', sans-serif" font-weight="600" font-size="7.26" letter-spacing="1.23" text-anchor="start" fill="#000000">02</text><text id="Igor_Zotov" x="34.02" y="727.84" font-family="WixMadeforText-SemiBold, 'Wix Madefor Text', sans-serif" font-weight="600" font-size="9.52" letter-spacing="1.62" text-anchor="start" fill="#000000">IGOR ZOTOV</text><text id="n1_2" x="209.76" y="727.84" font-family="WixMadeforText-SemiBold, 'Wix Madefor Text', sans-serif" font-weight="600" font-size="9.52" text-anchor="end" fill="#000000">1</text><text id="n03" x="17.01" y="739.74" font-family="WixMadeforText-SemiBold, 'Wix Madefor Text', sans-serif" font-weight="600" font-size="7.26" letter-spacing="1.23" text-anchor="start" fill="#000000">03</text><text id="Andrey_Lee" x="34.02" y="739.74" font-family="WixMadeforText-SemiBold, 'Wix Madefor Text', sans-serif" font-weight="600" font-size="9.52" letter-spacing="1.62" text-anchor="start" fill="#000000">ANDREY LEE</text><text id="n1_3" x="209.76" y="739.74" font-family="WixMadeforText-SemiBold, 'Wix Madefor Text', sans-serif" font-weight="600" font-size="9.52" text-anchor="end" fill="#000000">1</text><text id="n04" x="17.01" y="751.65" font-family="WixMadeforText-SemiBold, 'Wix Madefor Text', sans-serif" font-weight="600" font-size="7.26" letter-spacing="1.23" text-anchor="start" fill="#000000">04</text><text id="Sasha_Chernikov" x="34.02" y="751.65" font-family="WixMadeforText-SemiBold, 'Wix Madefor Text', sans-serif" font-weight="600" font-size="9.52" letter-spacing="1.62" text-anchor="start" fill="#000000">SASHA CHERNIKOV</text><text id="n1_4" x="209.76" y="751.65" font-family="WixMadeforText-SemiBold, 'Wix Madefor Text', sans-serif" font-weight="600" font-size="9.52" text-anchor="end" fill="#000000">1</text><text id="n05" x="17.01" y="763.55" font-family="WixMadeforText-SemiBold, 'Wix Madefor Text', sans-serif" font-weight="600" font-size="7.26" letter-spacing="1.23" text-anchor="start" fill="#000000">05</text><text id="Sophia_Zhuravkova" x="34.02" y="763.55" font-family="WixMadeforText-SemiBold, 'Wix Madefor Text', sans-serif" font-weight="600" font-size="9.52" letter-spacing="1.62" text-anchor="start" fill="#000000">SOPHIA ZHURAVKOVA</text><text id="n1_5" x="209.76" y="763.55" font-family="WixMadeforText-SemiBold, 'Wix Madefor Text', sans-serif" font-weight="600" font-size="9.52" text-anchor="end" fill="#000000">1</text><path id="rule_3" d="M17.01 776.66L209.76 776.66" fill="none" stroke="#000000" stroke-width="1.59" stroke-dasharray="4.99 3.17"/><text id="Items" x="17.01" y="796.96" font-family="WixMadeforText-SemiBold, 'Wix Madefor Text', sans-serif" font-weight="600" font-size="9.52" letter-spacing="1.62" text-anchor="start" fill="#000000">ITEMS</text><text id="n5" x="209.76" y="796.96" font-family="WixMadeforText-SemiBold, 'Wix Madefor Text', sans-serif" font-weight="600" font-size="9.52" text-anchor="end" fill="#000000">5</text><text id="Total" x="17.01" y="819.75" font-family="WixMadeforText-SemiBold, 'Wix Madefor Text', sans-serif" font-weight="600" font-size="18.14" letter-spacing="3.08" text-anchor="start" fill="#000000">TOTAL</text><text id="Dinner" x="210.34" y="819.75" font-family="WixMadeforText-SemiBold, 'Wix Madefor Text', sans-serif" font-weight="600" font-size="18.14" letter-spacing="3.08" text-anchor="end" fill="#000000"><tspan>DINNE</tspan><tspan letter-spacing="0">R</tspan></text><path id="rule_4" d="M17.01 831.66L209.76 831.66" fill="none" stroke="#000000" stroke-width="1.25"/><path id="rule_5" d="M17.01 834.95L209.76 834.95" fill="none" stroke="#000000" stroke-width="1.25"/><g id="Barcode_2026101018001"><path id="shape" d="M52.35 849.18L53.63 849.18L53.63 926.28L52.35 926.28L52.35 849.18Z" fill="#000000"/><path id="shape_2" d="M54.92 849.18L56.2 849.18L56.2 926.28L54.92 926.28L54.92 849.18Z" fill="#000000"/><path id="shape_3" d="M60.06 849.18L62.63 849.18L62.63 918.57L60.06 918.57L60.06 849.18Z" fill="#000000"/><path id="shape_4" d="M63.91 849.18L65.2 849.18L65.2 918.57L63.91 918.57L63.91 849.18Z" fill="#000000"/><path id="shape_5" d="M67.77 849.18L69.05 849.18L69.05 918.57L67.77 918.57L67.77 849.18Z" fill="#000000"/><path id="shape_6" d="M71.62 849.18L74.19 849.18L74.19 918.57L71.62 918.57L71.62 849.18Z" fill="#000000"/><path id="shape_7" d="M79.33 849.18L80.62 849.18L80.62 918.57L79.33 918.57L79.33 849.18Z" fill="#000000"/><path id="shape_8" d="M81.9 849.18L83.19 849.18L83.19 918.57L81.9 918.57L81.9 849.18Z" fill="#000000"/><path id="shape_9" d="M84.47 849.18L87.04 849.18L87.04 918.57L84.47 918.57L84.47 849.18Z" fill="#000000"/><path id="shape_10" d="M89.61 849.18L92.18 849.18L92.18 918.57L89.61 918.57L89.61 849.18Z" fill="#000000"/><path id="shape_11" d="M96.04 849.18L98.61 849.18L98.61 918.57L96.04 918.57L96.04 849.18Z" fill="#000000"/><path id="shape_12" d="M99.89 849.18L101.18 849.18L101.18 918.57L99.89 918.57L99.89 849.18Z" fill="#000000"/><path id="shape_13" d="M102.46 849.18L105.03 849.18L105.03 918.57L102.46 918.57L102.46 849.18Z" fill="#000000"/><path id="shape_14" d="M107.6 849.18L110.17 849.18L110.17 918.57L107.6 918.57L107.6 849.18Z" fill="#000000"/><path id="shape_15" d="M111.46 849.18L112.74 849.18L112.74 926.28L111.46 926.28L111.46 849.18Z" fill="#000000"/><path id="shape_16" d="M114.03 849.18L115.31 849.18L115.31 926.28L114.03 926.28L114.03 849.18Z" fill="#000000"/><path id="shape_17" d="M116.6 849.18L120.45 849.18L120.45 918.57L116.6 918.57L116.6 849.18Z" fill="#000000"/><path id="shape_18" d="M123.02 849.18L124.31 849.18L124.31 918.57L123.02 918.57L123.02 849.18Z" fill="#000000"/><path id="shape_19" d="M125.59 849.18L128.16 849.18L128.16 918.57L125.59 918.57L125.59 849.18Z" fill="#000000"/><path id="shape_20" d="M130.73 849.18L133.3 849.18L133.3 918.57L130.73 918.57L130.73 849.18Z" fill="#000000"/><path id="shape_21" d="M134.59 849.18L135.87 849.18L135.87 918.57L134.59 918.57L134.59 849.18Z" fill="#000000"/><path id="shape_22" d="M138.44 849.18L139.73 849.18L139.73 918.57L138.44 918.57L138.44 849.18Z" fill="#000000"/><path id="shape_23" d="M143.58 849.18L147.44 849.18L147.44 918.57L143.58 918.57L143.58 849.18Z" fill="#000000"/><path id="shape_24" d="M150.01 849.18L151.29 849.18L151.29 918.57L150.01 918.57L150.01 849.18Z" fill="#000000"/><path id="shape_25" d="M152.58 849.18L156.43 849.18L156.43 918.57L152.58 918.57L152.58 849.18Z" fill="#000000"/><path id="shape_26" d="M159 849.18L160.29 849.18L160.29 918.57L159 918.57L159 849.18Z" fill="#000000"/><path id="shape_27" d="M161.57 849.18L164.14 849.18L164.14 918.57L161.57 918.57L161.57 849.18Z" fill="#000000"/><path id="shape_28" d="M166.71 849.18L169.29 849.18L169.29 918.57L166.71 918.57L166.71 849.18Z" fill="#000000"/><path id="shape_29" d="M170.57 849.18L171.86 849.18L171.86 926.28L170.57 926.28L170.57 849.18Z" fill="#000000"/><path id="shape_30" d="M173.14 849.18L174.43 849.18L174.43 926.28L173.14 926.28L173.14 849.18Z" fill="#000000"/><text id="n2" x="48.49" y="933.99" font-family="WixMadeforText-Medium, 'Wix Madefor Text', sans-serif" font-weight="500" font-size="10.79" letter-spacing="0.22" text-anchor="end" fill="#000000">2</text><text id="n026101" x="83.19" y="933.99" font-family="WixMadeforText-Medium, 'Wix Madefor Text', sans-serif" font-weight="500" font-size="10.79" letter-spacing="0.22" text-anchor="middle" fill="#000000">026101</text><text id="n018001" x="142.3" y="933.99" font-family="WixMadeforText-Medium, 'Wix Madefor Text', sans-serif" font-weight="500" font-size="10.79" letter-spacing="0.22" text-anchor="middle" fill="#000000">018001</text></g><text id="Thank_you" x="113.39" y="967.92" font-family="WixMadeforText-SemiBold, 'Wix Madefor Text', sans-serif" font-weight="600" font-size="10.89" letter-spacing="1.85" text-anchor="middle" fill="#000000"><tspan>THANK YO</tspan><tspan letter-spacing="0">U</tspan></text><text id="item_2" x="113.39" y="981.87" font-family="WixMadeforText-SemiBold, 'Wix Madefor Text', sans-serif" font-weight="600" font-size="9.52" letter-spacing="5.71" text-anchor="middle" fill="#000000"><tspan>**</tspan><tspan letter-spacing="0">*</tspan></text></g>
</g>
</svg>
