<?xml version="1.0" encoding="UTF-8"?>
<svg xmlns="http://www.w3.org/2000/svg" width="150mm" height="156mm" viewBox="0 0 150 156">
<title>Decoder ring card - Andrey Lee</title>
<g id="layer-art">
<path d="M72.806,124.179 L70.881,124.572 L69.134,124.673 L67.118,124.581 L65.389,124.369 L64.894,124.274 L64.399,124.174 L62.627,123.690 L61.940,123.408 L61.358,123.087 L60.962,122.788 L60.568,122.388 L60.278,121.909 L60.156,121.525 L60.146,120.569 L61.946,113.912 L62.320,113.228 L62.687,112.838 L63.264,112.502 L63.989,112.316 L64.828,112.285 L65.787,112.368 L67.311,112.602 L68.681,112.866 L70.342,113.223 L71.065,113.415 L72.228,113.775 L73.624,114.353 L74.731,114.960 L75.499,115.523 L75.921,115.897 L76.484,116.501 L76.791,116.920 L77.168,117.620 L77.390,118.232 L77.510,118.753 L77.546,119.518 L77.311,120.586 L76.716,121.715 L76.210,122.308 L75.703,122.751 L74.525,123.525 L72.806,124.179 Z M66.078,120.369 L66.377,120.809 L66.710,121.084 L67.199,121.323 L67.792,121.474 L68.570,121.543 L69.272,121.496 L69.891,121.370 L70.584,121.123 L71.139,120.785 L71.576,120.381 L71.908,119.873 L72.072,119.354 L72.098,118.732 L71.963,118.197 L71.734,117.752 L71.277,117.194 L70.559,116.662 L70.107,116.414 L69.271,116.113 L68.653,116.006 L68.185,115.963 L67.786,115.985 L67.378,116.083 L67.092,116.219 L66.611,116.671 L66.254,117.530 L65.955,119.325 L65.959,119.910 L66.078,120.369 Z M92.124,121.403 L91.365,122.023 L90.233,122.703 L89.501,123.035 L89.133,123.196 L87.298,123.795 L86.168,124.066 L85.600,124.193 L83.880,124.469 L82.049,124.591 L81.309,124.546 L80.749,124.442 L80.186,124.259 L79.949,124.135 L79.714,124.010 L79.362,123.698 L79.066,123.284 L78.794,122.431 L78.604,119.600 L78.500,119.223 L78.441,118.363 L78.486,117.833 L78.358,115.884 L78.466,115.019 L78.731,114.381 L79.131,113.922 L79.763,113.566 L80.486,113.357 L81.310,113.376 L81.854,113.506 L82.396,113.800 L82.851,114.254 L83.331,114.894 L83.723,115.208 L84.082,115.320 L84.550,115.281 L84.987,115.085 L85.398,114.773 L85.902,114.271 L86.883,113.051 L87.426,112.468 L87.862,112.086 L88.444,111.697 L89.118,111.374 L89.471,111.267 L90.138,111.165 L90.537,111.191 L90.901,111.299 L91.168,111.503 L91.378,111.830 L91.406,112.173 L91.321,112.710 L90.949,113.675 L90.554,114.638 L90.518,115.002 L90.631,115.417 L91.080,115.922 L92.608,116.914 L93.129,117.492 L93.417,118.001 L93.509,118.583 L93.489,119.103 L93.339,119.720 L92.897,120.537 L92.124,121.403 Z M85.250,120.032 L85.164,120.243 L85.221,120.428 L85.397,120.538 L85.750,120.618 L86.098,120.593 L86.432,120.502 L86.747,120.339 L86.929,120.167 L87.006,120.002 L86.959,119.815 L86.592,119.639 L86.163,119.620 L85.828,119.682 L85.510,119.825 L85.250,120.032 Z M47.964,117.144 L47.377,117.136 L46.610,117.023 L45.798,116.789 L45.047,116.440 L44.357,115.986 L43.552,115.199 L43.098,114.411 L42.941,113.591 L43.142,112.724 L43.526,111.990 L44.237,110.959 L44.548,110.650 L47.048,107.031 L47.447,106.616 L47.891,106.293 L48.543,106.058 L49.165,106.058 L49.613,106.185 L49.953,106.337 L50.620,106.802 L50.876,107.093 L51.096,107.450 L51.295,107.956 L51.336,108.585 L50.981,110.027 L50.914,110.647 L51.091,111.099 L51.401,111.346 L51.872,111.472 L52.669,111.433 L53.998,111.058 L55.624,110.542 L56.386,110.363 L57.053,110.310 L57.910,110.357 L58.635,110.525 L59.251,110.771 L60.018,111.267 L60.485,111.782 L60.792,112.427 L60.848,113.340 L60.732,114.050 L60.355,115.329 L60.144,115.764 L58.889,119.998 L58.625,120.523 L58.269,120.969 L57.638,121.377 L56.931,121.526 L56.369,121.493 L55.919,121.403 L54.988,121.031 L54.601,120.763 L54.246,120.417 L53.886,119.910 L53.699,119.257 L53.822,117.738 L53.799,117.099 L53.602,116.723 L53.418,116.548 L53.194,116.421 L52.677,116.321 L51.928,116.357 L51.283,116.473 L49.875,116.815 L48.804,117.049 L47.964,117.144 Z M108.315,113.578 L108.088,114.052 L107.623,114.671 L106.882,115.388 L106.111,115.961 L104.936,116.797 L103.537,117.624 L102.116,118.409 L101.156,118.909 L100.317,119.287 L99.446,119.590 L98.816,119.754 L98.158,119.845 L97.121,119.753 L96.320,119.302 L95.881,118.751 L95.536,117.902 L95.320,117.574 L93.657,113.337 L93.570,112.910 L93.211,111.977 L93.134,111.187 L93.303,110.446 L93.646,109.889 L94.141,109.362 L94.861,108.818 L96.052,108.089 L97.623,107.221 L99.911,105.867 L100.829,105.401 L101.316,105.204 L101.849,105.070 L102.149,105.038 L102.541,105.092 L102.835,105.227 L103.026,105.438 L103.123,105.782 L103.110,106.088 L102.890,106.682 L102.618,107.102 L102.253,107.526 L101.907,107.846 L101.558,108.162 L100.183,109.192 L99.584,109.713 L99.317,110.034 L99.169,110.326 L99.150,110.501 L99.231,110.674 L99.358,110.766 L99.659,110.807 L100.317,110.681 L100.845,110.473 L102.056,109.871 L102.856,109.450 L103.470,109.210 L103.964,109.076 L104.596,109.021 L104.970,109.102 L105.304,109.331 L105.433,109.713 L105.425,110.016 L105.320,110.387 L104.966,111.005 L104.201,111.849 L103.512,112.414 L102.457,113.240 L101.998,113.641 L101.619,114.113 L101.552,114.368 L101.608,114.503 L101.972,114.613 L102.658,114.456 L104.030,113.777 L105.385,113.056 L106.034,112.766 L106.812,112.502 L107.369,112.412 L107.864,112.466 L108.231,112.674 L108.384,113.043 L108.315,113.578 Z M79.266,110.588 L78.732,110.863 L77.976,111.085 L76.158,111.293 L74.505,111.297 L72.853,111.239 L72.154,111.160 L71.461,111.007 L70.983,110.851 L70.514,110.621 L69.867,110.063 L69.519,109.310 L69.448,108.640 L69.555,107.758 L69.543,107.380 L70.130,103.012 L70.240,102.608 L70.376,101.651 L70.630,100.943 L71.016,100.390 L71.435,100.074 L71.933,99.857 L72.573,99.733 L73.568,99.684 L74.526,99.712 L75.804,99.705 L76.742,99.723 L77.480,99.803 L77.855,99.889 L78.239,100.052 L78.442,100.179 L78.676,100.426 L78.820,100.686 L78.873,100.958 L78.820,101.287 L78.709,101.531 L78.366,101.904 L78.048,102.109 L77.667,102.273 L77.001,102.447 L75.762,102.617 L75.197,102.757 L74.913,102.895 L74.714,103.067 L74.639,103.204 L74.628,103.389 L74.677,103.528 L74.854,103.708 L75.320,103.925 L75.733,104.011 L77.394,104.163 L77.878,104.274 L78.247,104.414 L78.681,104.689 L78.900,104.946 L79.042,105.304 L78.996,105.682 L78.887,105.927 L78.688,106.178 L78.239,106.507 L77.437,106.819 L75.794,107.110 L75.349,107.221 L74.930,107.430 L74.793,107.611 L74.781,107.751 L74.980,108.021 L75.489,108.224 L76.640,108.333 L77.798,108.409 L78.334,108.495 L78.948,108.670 L79.355,108.878 L79.669,109.173 L79.845,109.530 L79.821,109.911 L79.587,110.313 L79.266,110.588 Z M114.243,106.056 L113.856,108.120 L113.708,108.646 L113.404,109.368 L113.003,110.022 L112.711,110.386 L111.748,111.238 L110.902,111.640 L110.562,111.697 L110.226,111.661 L109.922,111.533 L109.673,111.237 L109.495,110.570 L109.519,109.292 L109.645,107.878 L109.743,106.127 L109.640,104.571 L109.474,103.930 L109.147,103.245 L108.465,102.378 L107.985,101.646 L107.761,100.926 L107.783,100.287 L107.989,99.669 L108.355,99.107 L108.882,98.598 L109.203,98.393 L109.632,98.205 L110.048,98.137 L110.515,98.163 L111.464,98.573 L112.744,99.411 L113.614,99.694 L115.139,99.744 L116.163,99.625 L117.193,99.482 L118.227,99.316 L119.266,99.126 L119.952,99.133 L120.355,99.221 L120.639,99.406 L120.861,99.778 L120.902,100.390 L120.696,101.128 L120.436,101.625 L120.120,102.082 L119.562,102.700 L118.891,103.221 L118.201,103.595 L116.976,103.972 L115.752,104.313 L115.192,104.636 L114.788,104.982 L114.489,105.428 L114.243,106.056 Z M90.988,107.727 L90.552,108.140 L89.889,108.563 L88.204,109.267 L86.620,109.728 L85.020,110.129 L84.327,110.247 L83.620,110.291 L83.118,110.273 L82.606,110.181 L81.834,109.823 L81.296,109.195 L81.047,108.570 L80.912,107.693 L80.797,107.332 L80.173,102.969 L80.168,102.550 L80.036,101.592 L80.086,100.841 L80.304,100.203 L80.619,99.783 L81.037,99.435 L81.617,99.139 L82.554,98.816 L83.477,98.577 L84.693,98.216 L85.591,97.975 L86.314,97.848 L86.694,97.827 L87.104,97.878 L87.332,97.944 L87.623,98.116 L87.833,98.327 L87.958,98.573 L88.000,98.904 L87.963,99.169 L87.741,99.621 L87.496,99.907 L87.179,100.169 L86.593,100.521 L85.459,101.027 L84.957,101.319 L84.724,101.530 L84.581,101.750 L84.547,101.903 L84.588,102.084 L84.672,102.204 L84.891,102.328 L85.396,102.407 L85.814,102.376 L87.441,102.062 L87.933,102.035 L88.323,102.067 L88.812,102.212 L89.092,102.398 L89.326,102.703 L89.386,103.080 L89.350,103.345 L89.230,103.642 L88.891,104.083 L88.212,104.605 L86.721,105.340 L86.324,105.570 L85.980,105.888 L85.899,106.100 L85.925,106.238 L86.189,106.442 L86.731,106.497 L87.863,106.283 L88.991,106.036 L89.526,105.970 L90.161,105.968 L90.606,106.056 L90.988,106.253 L91.253,106.548 L91.334,106.921 L91.220,107.373 L90.988,107.727 Z M61.643,108.369 L60.979,108.402 L60.235,108.219 L59.642,107.826 L59.213,107.296 L59.044,106.722 L59.055,106.456 L59.080,105.926 L59.243,105.335 L61.670,99.464 L62.062,98.831 L62.434,98.438 L62.853,98.162 L63.412,97.990 L63.920,97.967 L64.654,98.060 L65.308,98.217 L66.411,98.546 L67.246,98.767 L68.285,99.109 L68.917,99.406 L69.380,99.788 L69.638,100.240 L69.686,100.480 L69.663,100.709 L69.614,100.933 L69.491,101.146 L69.144,101.456 L68.547,101.667 L67.852,101.710 L66.443,101.556 L66.040,101.539 L65.428,101.630 L64.971,101.861 L64.621,102.239 L64.239,103.042 L63.116,106.783 L62.654,107.669 L62.205,108.118 L61.643,108.369 Z M35.617,108.549 L34.960,108.174 L34.522,107.833 L33.995,107.316 L33.315,106.434 L32.895,105.566 L32.801,105.183 L32.710,104.799 L32.727,103.982 L33.210,102.182 L33.657,100.875 L34.382,98.959 L34.768,98.022 L35.308,96.795 L35.731,95.891 L36.170,95.003 L36.525,94.498 L36.956,94.203 L37.193,94.134 L37.675,94.197 L38.118,94.472 L38.574,94.949 L38.936,95.583 L39.072,95.937 L39.202,96.567 L39.086,98.346 L39.255,99.060 L39.544,99.619 L39.897,100.125 L40.535,100.839 L41.189,101.539 L41.910,102.116 L42.640,102.452 L43.263,102.538 L44.336,102.500 L45.069,102.641 L45.819,103.003 L46.330,103.420 L46.584,103.689 L46.938,104.287 L47.000,104.801 L46.885,105.132 L46.626,105.471 L46.392,105.650 L45.107,106.274 L44.503,106.517 L42.662,107.212 L41.096,107.750 L39.822,108.152 L38.530,108.530 L37.390,108.788 L36.734,108.833 L36.164,108.751 L35.617,108.549 Z M37.687,103.034 L37.744,103.381 L37.841,103.513 L38.054,103.637 L38.410,103.609 L38.490,103.352 L38.352,103.013 L38.080,102.838 L37.837,102.844 L37.687,103.034 Z" fill="#111111" fill-rule="evenodd"/>
<path d="M115.65,47.5 A40.65,40.65 0 1 0 34.35,47.5 A40.65,40.65 0 1 0 115.65,47.5 Z M115.25,47.5 A40.25,40.25 0 1 0 34.75,47.5 A40.25,40.25 0 1 0 115.25,47.5 Z" fill="#111111" fill-rule="evenodd"/>
<circle cx="31.4" cy="47.5" r="0.9" fill="#111111"/>
</g>
<g id="layer-cut">
<path d="M150.000,4.000 L149.981,3.608 L149.923,3.220 L149.828,2.839 L149.696,2.469 L149.528,2.114 L149.326,1.778 L149.092,1.462 L148.828,1.172 L148.538,0.908 L148.222,0.674 L147.886,0.472 L147.531,0.304 L147.161,0.172 L146.780,0.077 L146.392,0.019 L146.000,0.000 L4.000,0.000 L3.608,0.019 L3.220,0.077 L2.839,0.172 L2.469,0.304 L2.114,0.472 L1.778,0.674 L1.462,0.908 L1.172,1.172 L0.908,1.462 L0.674,1.778 L0.472,2.114 L0.304,2.469 L0.172,2.839 L0.077,3.220 L0.019,3.608 L0.000,4.000 L0.000,152.000 L0.019,152.392 L0.077,152.780 L0.172,153.161 L0.304,153.531 L0.472,153.886 L0.674,154.222 L0.908,154.538 L1.172,154.828 L1.462,155.092 L1.778,155.326 L2.114,155.528 L2.469,155.696 L2.839,155.828 L3.220,155.923 L3.608,155.981 L4.000,156.000 L146.000,156.000 L146.392,155.981 L146.780,155.923 L147.161,155.828 L147.531,155.696 L147.886,155.528 L148.222,155.326 L148.538,155.092 L148.828,154.828 L149.092,154.538 L149.326,154.222 L149.528,153.886 L149.696,153.531 L149.828,153.161 L149.923,152.780 L149.981,152.392 L150.000,152.000 L150.000,4.000 Z" fill="none" stroke="#e2007a" stroke-width="0.25" stroke-linejoin="round"/>
</g>
<g id="layer-text">
<text x="9" y="149" font-family="Wix Madefor Text" font-weight="700" font-size="4.801" text-anchor="start" letter-spacing="0" fill="#111111">COLORBLOCK</text>
<text x="45.716" y="148.58" font-family="Wix Madefor Text" font-weight="600" font-size="3.358" text-anchor="start" letter-spacing="0" fill="#111111">×</text>
<text x="50.479" y="149" font-family="Wix Madefor Text" font-weight="700" font-size="4.801" text-anchor="start" letter-spacing="0" fill="#111111">DNA</text>
<text x="141" y="143.8" font-family="Wix Madefor Text" font-weight="600" font-size="3.358" text-anchor="end" letter-spacing="0.034" fill="#111111">Dinner · 10 oct 2026 · 18:00</text>
<text x="141" y="149" font-family="Wix Madefor Text" font-weight="600" font-size="3.358" text-anchor="end" letter-spacing="0.034" fill="#111111">DNA Kitchen, Samokatnaya 4s53</text>
</g>
<g id="layer-guides">
<rect x="6" y="6" width="138" height="144" fill="none" stroke="#1a9850" stroke-width="0.2" stroke-dasharray="0.5 1"/>
<circle cx="75" cy="47.5" r="40" fill="none" stroke="#1a9850" stroke-width="0.2" stroke-dasharray="1 1"/>
<circle cx="75" cy="47.5" r="39.6" fill="none" stroke="#e67e00" stroke-width="0.2" stroke-dasharray="0.6 0.6"/>
<line x1="71" y1="47.5" x2="79" y2="47.5" stroke="#cc0000" stroke-width="0.2"/><line x1="75" y1="43.5" x2="75" y2="51.5" stroke="#cc0000" stroke-width="0.2"/>
<text x="80" y="46.3" font-family="Wix Madefor Text" font-weight="500" font-size="2.2" text-anchor="start" letter-spacing="0" fill="#cc0000">ring axis</text>
<text x="75" y="5.5" font-family="Wix Madefor Text" font-weight="500" font-size="2.2" text-anchor="middle" letter-spacing="0" fill="#1a9850">ring outer face (mirror R 40)</text>
<text x="29.6" y="48.2" font-family="Wix Madefor Text" font-weight="500" font-size="2" text-anchor="end" letter-spacing="0" fill="#555">seam</text>
<text x="75" y="154.4" font-family="Wix Madefor Text" font-weight="500" font-size="1.8" text-anchor="middle" letter-spacing="0" fill="#777">guides: green safe 6 mm; ring footprint; seat eye 430 up / 450 toward the guest from the ring axis</text>
</g>
</svg>
