<?xml version="1.0" encoding="UTF-8"?>
<svg xmlns="http://www.w3.org/2000/svg" width="164mm" height="188mm" viewBox="0 0 164 188">
<title>Sit Down Sasha Chernikov</title>
<g id="layer-cut">
<path d="M0 87.975 L0.001 87.999 L0.025 88 L163.975 88 L163.999 87.999 L164 87.975 L164 0.024 L163.999 0.002 L163.979 0.013 L82.525 50.261 L82.437 50.309 L82.345 50.349 L82.249 50.378 L82.15 50.398 L82.05 50.409 L81.95 50.409 L81.85 50.398 L81.751 50.378 L81.655 50.349 L81.563 50.309 L81.475 50.261 L0.021 0.013 L0.001 0.002 L0 0.024 Z" fill="none" stroke="#e2007a" stroke-width="0.25" stroke-linejoin="round"/><path d="M0 187.975 L0.001 187.999 L0.025 188 L163.975 188 L163.999 187.999 L164 187.975 L164 100.024 L163.999 100.002 L163.979 100.013 L82.525 150.261 L82.437 150.309 L82.345 150.349 L82.249 150.378 L82.15 150.398 L82.05 150.409 L81.95 150.409 L81.85 150.398 L81.751 150.378 L81.655 150.349 L81.563 150.309 L81.475 150.261 L0.021 100.013 L0.001 100.002 L0 100.024 Z" fill="none" stroke="#e2007a" stroke-width="0.25" stroke-linejoin="round"/>
</g>
<g id="layer-crease">
<line x1="82" y1="88" x2="82" y2="50.585" fill="none" stroke="#0072ce" stroke-width="0.3" stroke-dasharray="2.4 1.2" data-fold="valley" data-score="printed face"/><line x1="82" y1="188" x2="82" y2="150.585" fill="none" stroke="#0072ce" stroke-width="0.3" stroke-dasharray="2.4 1.2" data-fold="valley" data-score="front face (appears from the back as a mountain)"/>
</g>
<g id="layer-art">
<path d="M85.609 72.828 C85.583 73.281 85.526 73.500 85.484 73.703 C85.443 73.906 85.422 73.938 85.359 74.047 C85.297 74.156 85.188 74.292 85.109 74.359 C85.031 74.427 84.990 74.443 84.891 74.453 C84.792 74.464 84.646 74.458 84.516 74.422 C84.385 74.385 84.250 74.318 84.109 74.234 C83.969 74.151 83.854 74.083 83.672 73.922 C83.490 73.760 83.229 73.521 83.016 73.266 C82.802 73.010 82.578 72.688 82.391 72.391 C82.203 72.094 82.057 71.760 81.891 71.484 C81.724 71.208 81.557 70.953 81.391 70.734 C81.224 70.516 81.057 70.328 80.891 70.172 C80.724 70.016 80.510 69.880 80.391 69.797 C80.271 69.714 80.302 69.724 80.172 69.672 C80.042 69.620 79.797 69.516 79.609 69.484 C79.422 69.453 79.177 69.474 79.047 69.484 C78.917 69.495 78.922 69.505 78.828 69.547 C78.734 69.589 78.615 69.620 78.484 69.734 C78.354 69.849 78.146 70.099 78.047 70.234 C77.948 70.370 77.943 70.406 77.891 70.547 C77.839 70.688 77.776 70.854 77.734 71.078 C77.693 71.302 77.656 71.104 77.641 71.891 C77.625 72.677 77.661 74.708 77.641 75.797 C77.620 76.885 77.531 77.771 77.516 78.422 C77.500 79.073 77.510 79.318 77.547 79.703 C77.583 80.089 77.661 80.448 77.734 80.734 C77.807 81.021 77.870 81.198 77.984 81.422 C78.099 81.646 78.271 81.906 78.422 82.078 C78.573 82.250 78.740 82.359 78.891 82.453 C79.042 82.547 79.219 82.604 79.328 82.641 C79.438 82.677 79.438 82.672 79.547 82.672 C79.656 82.672 79.844 82.677 79.984 82.641 C80.125 82.604 80.271 82.536 80.391 82.453 C80.510 82.370 80.609 82.266 80.703 82.141 C80.797 82.016 80.891 81.839 80.953 81.703 C81.016 81.568 81.016 81.604 81.078 81.328 C81.141 81.052 81.255 80.354 81.328 80.047 C81.401 79.740 81.448 79.625 81.516 79.484 C81.583 79.344 81.656 79.271 81.734 79.203 C81.812 79.135 81.906 79.099 81.984 79.078 C82.062 79.057 82.089 79.047 82.203 79.078 C82.318 79.109 82.516 79.182 82.672 79.266 C82.828 79.349 82.875 79.370 83.141 79.578 C83.406 79.786 83.958 80.276 84.266 80.516 C84.573 80.755 84.802 80.901 84.984 81.016 C85.167 81.130 85.188 81.141 85.359 81.203 C85.531 81.266 85.786 81.359 86.016 81.391 C86.245 81.422 86.510 81.422 86.734 81.391 C86.958 81.359 87.125 81.318 87.359 81.203 C87.594 81.089 87.922 80.891 88.141 80.703 C88.359 80.516 88.547 80.250 88.672 80.078 C88.797 79.906 88.823 79.823 88.891 79.672 C88.958 79.521 89.026 79.344 89.078 79.172 C89.130 79.000 89.161 78.906 89.203 78.641 C89.245 78.375 89.307 77.844 89.328 77.578 C89.349 77.312 89.318 77.224 89.328 77.047 C89.339 76.870 89.380 77.443 89.391 76.516 C89.401 75.589 89.401 72.552 89.391 71.484 C89.380 70.417 89.349 70.427 89.328 70.109 C89.307 69.792 89.297 69.755 89.266 69.578 C89.234 69.401 89.182 69.193 89.141 69.047 C89.099 68.901 89.078 68.833 89.016 68.703 C88.953 68.573 88.875 68.401 88.766 68.266 C88.656 68.130 88.505 67.984 88.359 67.891 C88.214 67.797 88.078 67.729 87.891 67.703 C87.703 67.677 87.396 67.708 87.234 67.734 C87.073 67.760 87.021 67.807 86.922 67.859 C86.823 67.911 86.745 67.958 86.641 68.047 C86.536 68.135 86.385 68.286 86.297 68.391 C86.208 68.495 86.172 68.557 86.109 68.672 C86.047 68.786 85.984 68.891 85.922 69.078 C85.859 69.266 85.781 69.479 85.734 69.797 C85.688 70.115 85.661 70.479 85.641 70.984 C85.620 71.490 85.635 72.375 85.609 72.828 Z M90.609 74.422 C90.630 74.885 90.682 75.281 90.734 75.578 C90.786 75.875 90.859 76.036 90.922 76.203 C90.984 76.370 91.036 76.464 91.109 76.578 C91.182 76.693 91.240 76.786 91.359 76.891 C91.479 76.995 91.682 77.135 91.828 77.203 C91.974 77.271 92.089 77.286 92.234 77.297 C92.380 77.307 92.531 77.312 92.703 77.266 C92.875 77.219 93.099 77.125 93.266 77.016 C93.432 76.906 93.589 76.740 93.703 76.609 C93.818 76.479 93.859 76.427 93.953 76.234 C94.047 76.042 94.203 75.661 94.266 75.453 C94.328 75.245 94.307 75.089 94.328 74.984 C94.349 74.880 94.349 75.208 94.391 74.828 C94.432 74.448 94.552 73.870 94.578 72.703 C94.604 71.536 94.557 68.771 94.547 67.828 C94.536 66.885 94.542 67.339 94.516 67.047 C94.490 66.755 94.432 66.318 94.391 66.078 C94.349 65.839 94.339 65.792 94.266 65.609 C94.193 65.427 94.068 65.151 93.953 64.984 C93.839 64.818 93.672 64.693 93.578 64.609 C93.484 64.526 93.484 64.526 93.391 64.484 C93.297 64.443 93.167 64.380 93.016 64.359 C92.865 64.339 92.656 64.328 92.484 64.359 C92.312 64.391 92.099 64.495 91.984 64.547 C91.870 64.599 91.901 64.578 91.797 64.672 C91.693 64.766 91.484 64.943 91.359 65.109 C91.234 65.276 91.141 65.427 91.047 65.672 C90.953 65.917 90.870 66.099 90.797 66.578 C90.724 67.057 90.646 67.516 90.609 68.547 C90.573 69.578 90.578 72.057 90.578 72.766 C90.578 73.474 90.604 72.521 90.609 72.797 C90.615 73.073 90.589 73.958 90.609 74.422 Z M65.547 72.297 C65.620 72.620 65.698 72.896 65.797 73.141 C65.896 73.385 66.026 73.599 66.141 73.766 C66.255 73.932 66.344 74.026 66.484 74.141 C66.625 74.255 66.828 74.380 66.984 74.453 C67.141 74.526 67.271 74.562 67.422 74.578 C67.573 74.594 67.745 74.578 67.891 74.547 C68.036 74.516 68.182 74.448 68.297 74.391 C68.411 74.333 68.401 74.359 68.578 74.203 C68.755 74.047 69.203 73.589 69.359 73.453 C69.516 73.318 69.443 73.401 69.516 73.391 C69.589 73.380 69.719 73.375 69.797 73.391 C69.875 73.406 69.875 73.396 69.984 73.484 C70.094 73.573 70.286 73.724 70.453 73.922 C70.620 74.120 70.812 74.396 70.984 74.672 C71.156 74.948 71.266 75.151 71.484 75.578 C71.703 76.005 72.109 76.870 72.297 77.234 C72.484 77.599 72.484 77.578 72.609 77.766 C72.734 77.953 72.891 78.182 73.047 78.359 C73.203 78.536 73.370 78.698 73.547 78.828 C73.724 78.958 73.948 79.073 74.109 79.141 C74.271 79.208 74.365 79.229 74.516 79.234 C74.667 79.240 74.891 79.208 75.016 79.172 C75.141 79.135 75.193 79.089 75.266 79.016 C75.339 78.943 75.411 78.812 75.453 78.734 C75.495 78.656 75.505 78.682 75.516 78.547 C75.526 78.411 75.547 78.141 75.516 77.922 C75.484 77.703 75.516 77.719 75.328 77.234 C75.141 76.750 74.568 75.474 74.391 75.016 C74.214 74.557 74.286 74.656 74.266 74.484 C74.245 74.312 74.245 74.141 74.266 73.984 C74.286 73.828 74.349 73.661 74.391 73.547 C74.432 73.432 74.411 73.458 74.516 73.297 C74.620 73.135 74.870 72.812 75.016 72.578 C75.161 72.344 75.297 72.099 75.391 71.891 C75.484 71.682 75.536 71.484 75.578 71.328 C75.620 71.172 75.630 71.156 75.641 70.953 C75.651 70.750 75.651 70.318 75.641 70.109 C75.630 69.901 75.620 69.891 75.578 69.703 C75.536 69.516 75.474 69.234 75.391 68.984 C75.307 68.734 75.224 68.505 75.078 68.203 C74.932 67.901 74.786 67.578 74.516 67.172 C74.245 66.766 73.776 66.151 73.453 65.766 C73.130 65.380 72.938 65.188 72.578 64.859 C72.219 64.531 71.807 64.182 71.297 63.797 C70.786 63.411 70.005 62.859 69.516 62.547 C69.026 62.234 68.609 62.047 68.359 61.922 C68.109 61.797 68.172 61.833 68.016 61.797 C67.859 61.760 67.589 61.714 67.422 61.703 C67.255 61.693 67.141 61.708 67.016 61.734 C66.891 61.760 66.781 61.802 66.672 61.859 C66.562 61.917 66.443 62.005 66.359 62.078 C66.276 62.151 66.255 62.156 66.172 62.297 C66.089 62.438 65.943 62.677 65.859 62.922 C65.776 63.167 65.724 63.417 65.672 63.766 C65.620 64.115 65.562 64.307 65.547 65.016 C65.531 65.724 65.589 67.318 65.578 68.016 C65.568 68.714 65.521 68.875 65.484 69.203 C65.448 69.531 65.380 69.651 65.359 69.984 C65.339 70.318 65.328 70.818 65.359 71.203 C65.391 71.589 65.474 71.974 65.547 72.297 Z M70.172 67.609 C70.177 67.531 70.255 67.458 70.297 67.422 C70.339 67.385 70.370 67.385 70.422 67.391 C70.474 67.396 70.536 67.406 70.609 67.453 C70.682 67.500 70.802 67.604 70.859 67.672 C70.917 67.740 70.938 67.797 70.953 67.859 C70.969 67.922 70.964 68.000 70.953 68.047 C70.943 68.094 70.948 68.120 70.891 68.141 C70.833 68.161 70.677 68.177 70.609 68.172 C70.542 68.167 70.542 68.156 70.484 68.109 C70.427 68.062 70.318 67.974 70.266 67.891 C70.214 67.807 70.167 67.688 70.172 67.609 Z M99.891 61.859 C99.781 61.880 99.734 61.969 99.484 61.859 C99.234 61.750 98.625 61.328 98.391 61.203 C98.156 61.078 98.224 61.125 98.078 61.109 C97.932 61.094 97.672 61.089 97.516 61.109 C97.359 61.130 97.271 61.172 97.141 61.234 C97.010 61.297 96.854 61.391 96.734 61.484 C96.615 61.578 96.526 61.656 96.422 61.797 C96.318 61.938 96.193 62.156 96.109 62.328 C96.026 62.500 95.974 62.646 95.922 62.828 C95.870 63.010 95.849 63.021 95.797 63.422 C95.745 63.823 95.646 64.432 95.609 65.234 C95.573 66.036 95.578 67.729 95.578 68.234 C95.578 68.740 95.604 67.953 95.609 68.266 C95.615 68.578 95.599 69.583 95.609 70.109 C95.620 70.635 95.641 71.062 95.672 71.422 C95.703 71.781 95.745 72.031 95.797 72.266 C95.849 72.500 95.896 72.641 95.984 72.828 C96.073 73.016 96.193 73.234 96.328 73.391 C96.464 73.547 96.656 73.682 96.797 73.766 C96.938 73.849 97.026 73.870 97.172 73.891 C97.318 73.911 97.526 73.911 97.672 73.891 C97.818 73.870 97.938 73.812 98.047 73.766 C98.156 73.719 98.208 73.703 98.328 73.609 C98.448 73.516 98.641 73.359 98.766 73.203 C98.891 73.047 98.995 72.849 99.078 72.672 C99.161 72.495 99.214 72.354 99.266 72.141 C99.318 71.927 99.359 71.693 99.391 71.391 C99.422 71.089 99.422 70.609 99.453 70.328 C99.484 70.047 99.526 69.875 99.578 69.703 C99.630 69.531 99.682 69.411 99.766 69.297 C99.849 69.182 99.969 69.078 100.078 69.016 C100.188 68.953 100.281 68.932 100.422 68.922 C100.562 68.911 100.505 68.844 100.922 68.953 C101.339 69.062 102.531 69.464 102.922 69.578 C103.312 69.693 103.062 69.630 103.266 69.641 C103.469 69.651 103.969 69.651 104.141 69.641 C104.312 69.630 104.245 69.589 104.297 69.578 C104.349 69.568 104.344 69.609 104.453 69.578 C104.562 69.547 104.786 69.474 104.953 69.391 C105.120 69.307 105.307 69.193 105.453 69.078 C105.599 68.964 105.724 68.828 105.828 68.703 C105.932 68.578 106.016 68.453 106.078 68.328 C106.141 68.203 106.182 68.094 106.203 67.953 C106.224 67.812 106.214 67.604 106.203 67.484 C106.193 67.365 106.203 67.359 106.141 67.234 C106.078 67.109 105.932 66.870 105.828 66.734 C105.724 66.599 105.641 66.526 105.516 66.422 C105.391 66.318 105.385 66.286 105.078 66.109 C104.771 65.932 104.010 65.557 103.672 65.359 C103.333 65.161 103.208 65.068 103.047 64.922 C102.885 64.776 102.781 64.609 102.703 64.484 C102.625 64.359 102.604 64.260 102.578 64.172 C102.552 64.083 102.547 64.068 102.547 63.953 C102.547 63.839 102.531 63.688 102.578 63.484 C102.625 63.281 102.495 63.417 102.828 62.734 C103.161 62.052 104.224 60.115 104.578 59.391 C104.932 58.667 104.880 58.615 104.953 58.391 C105.026 58.167 105.010 58.188 105.016 58.047 C105.021 57.906 105.016 57.682 104.984 57.547 C104.953 57.411 104.875 57.307 104.828 57.234 C104.781 57.161 104.755 57.146 104.703 57.109 C104.651 57.073 104.625 57.036 104.516 57.016 C104.406 56.995 104.188 56.969 104.047 56.984 C103.906 57.000 103.818 57.036 103.672 57.109 C103.526 57.182 103.339 57.286 103.172 57.422 C103.005 57.557 102.849 57.703 102.672 57.922 C102.495 58.141 102.380 58.281 102.109 58.734 C101.839 59.188 101.297 60.219 101.047 60.641 C100.797 61.062 100.760 61.083 100.609 61.266 C100.458 61.448 100.260 61.635 100.141 61.734 C100.021 61.833 100.000 61.839 99.891 61.859 Z M55.297 65.203 C55.339 65.578 55.370 65.703 55.422 65.922 C55.474 66.141 55.505 66.292 55.609 66.516 C55.714 66.740 55.859 67.026 56.047 67.266 C56.234 67.505 56.484 67.740 56.734 67.953 C56.984 68.167 56.901 68.109 57.547 68.547 C58.193 68.984 59.911 70.135 60.609 70.578 C61.307 71.021 61.458 71.068 61.734 71.203 C62.010 71.339 62.073 71.349 62.266 71.391 C62.458 71.432 62.708 71.464 62.891 71.453 C63.073 71.443 63.245 71.370 63.359 71.328 C63.474 71.286 63.510 71.255 63.578 71.203 C63.646 71.151 63.703 71.109 63.766 71.016 C63.828 70.922 63.922 70.781 63.953 70.641 C63.984 70.500 63.995 70.344 63.953 70.172 C63.911 70.000 63.797 69.771 63.703 69.609 C63.609 69.448 63.568 69.391 63.391 69.203 C63.214 69.016 63.094 68.865 62.641 68.484 C62.188 68.104 61.099 67.281 60.672 66.922 C60.245 66.562 60.208 66.479 60.078 66.328 C59.948 66.177 59.927 66.099 59.891 66.016 C59.854 65.932 59.859 65.880 59.859 65.828 C59.859 65.776 59.870 65.740 59.891 65.703 C59.911 65.667 59.943 65.635 59.984 65.609 C60.026 65.583 60.089 65.557 60.141 65.547 C60.193 65.536 60.203 65.531 60.297 65.547 C60.391 65.562 60.536 65.583 60.703 65.641 C60.870 65.698 61.083 65.818 61.297 65.891 C61.510 65.964 61.750 66.047 61.984 66.078 C62.219 66.109 62.547 66.089 62.703 66.078 C62.859 66.068 62.828 66.057 62.922 66.016 C63.016 65.974 63.156 65.922 63.266 65.828 C63.375 65.734 63.510 65.562 63.578 65.453 C63.646 65.344 63.661 65.318 63.672 65.172 C63.682 65.026 63.677 64.750 63.641 64.578 C63.604 64.406 63.526 64.276 63.453 64.141 C63.380 64.005 63.432 64.021 63.203 63.766 C62.974 63.510 62.344 62.865 62.078 62.609 C61.812 62.354 61.839 62.438 61.609 62.234 C61.380 62.031 60.885 61.573 60.703 61.391 C60.521 61.208 60.552 61.224 60.516 61.141 C60.479 61.057 60.464 60.948 60.484 60.891 C60.505 60.833 60.573 60.807 60.641 60.797 C60.708 60.786 60.708 60.771 60.891 60.828 C61.073 60.885 61.469 61.062 61.734 61.141 C62.000 61.219 62.297 61.271 62.484 61.297 C62.672 61.323 62.729 61.312 62.859 61.297 C62.990 61.281 63.141 61.250 63.266 61.203 C63.391 61.156 63.521 61.078 63.609 61.016 C63.698 60.953 63.740 60.906 63.797 60.828 C63.854 60.750 63.917 60.682 63.953 60.547 C63.990 60.411 64.026 60.182 64.016 60.016 C64.005 59.849 63.984 59.740 63.891 59.547 C63.797 59.354 63.656 59.089 63.453 58.859 C63.250 58.630 63.297 58.625 62.672 58.172 C62.047 57.719 60.354 56.578 59.703 56.141 C59.052 55.703 59.057 55.708 58.766 55.547 C58.474 55.385 58.172 55.255 57.953 55.172 C57.734 55.089 57.620 55.068 57.453 55.047 C57.286 55.026 57.104 55.026 56.953 55.047 C56.802 55.068 56.667 55.120 56.547 55.172 C56.427 55.224 56.339 55.276 56.234 55.359 C56.130 55.443 56.026 55.531 55.922 55.672 C55.818 55.812 55.693 56.010 55.609 56.203 C55.526 56.396 55.474 56.573 55.422 56.828 C55.370 57.083 55.328 57.172 55.297 57.734 C55.266 58.297 55.255 59.677 55.234 60.203 C55.214 60.729 55.182 60.312 55.172 60.891 C55.161 61.469 55.151 62.953 55.172 63.672 C55.193 64.391 55.255 64.828 55.297 65.203 Z M76.609 55.891 C76.682 56.146 76.797 56.484 76.922 56.766 C77.047 57.047 77.130 57.193 77.359 57.578 C77.589 57.964 78.099 58.729 78.297 59.078 C78.495 59.427 78.505 59.516 78.547 59.672 C78.589 59.828 78.562 59.938 78.547 60.016 C78.531 60.094 78.495 60.104 78.453 60.141 C78.411 60.177 78.438 60.188 78.297 60.234 C78.156 60.281 77.786 60.359 77.609 60.422 C77.432 60.484 77.344 60.536 77.234 60.609 C77.125 60.682 77.031 60.766 76.953 60.859 C76.875 60.953 76.807 61.078 76.766 61.172 C76.724 61.266 76.714 61.312 76.703 61.422 C76.693 61.531 76.688 61.698 76.703 61.828 C76.719 61.958 76.750 62.068 76.797 62.203 C76.844 62.339 76.891 62.464 76.984 62.641 C77.078 62.818 77.193 63.026 77.359 63.266 C77.526 63.505 77.807 63.859 77.984 64.078 C78.161 64.297 78.182 64.328 78.422 64.578 C78.661 64.828 79.141 65.318 79.422 65.578 C79.703 65.839 79.932 66.005 80.109 66.141 C80.286 66.276 80.339 66.307 80.484 66.391 C80.630 66.474 80.839 66.578 80.984 66.641 C81.130 66.703 81.193 66.734 81.359 66.766 C81.526 66.797 81.771 66.839 81.984 66.828 C82.198 66.818 82.438 66.766 82.641 66.703 C82.844 66.641 82.984 66.589 83.203 66.453 C83.422 66.318 83.688 66.130 83.953 65.891 C84.219 65.651 84.490 65.380 84.797 65.016 C85.104 64.651 85.542 64.068 85.797 63.703 C86.052 63.339 86.146 63.182 86.328 62.828 C86.510 62.474 86.755 61.943 86.891 61.578 C87.026 61.214 87.099 60.927 87.141 60.641 C87.182 60.354 87.172 60.083 87.141 59.859 C87.109 59.635 87.036 59.474 86.953 59.297 C86.870 59.120 86.776 58.964 86.641 58.797 C86.505 58.630 86.286 58.422 86.141 58.297 C85.995 58.172 85.948 58.141 85.766 58.047 C85.583 57.953 85.297 57.807 85.047 57.734 C84.797 57.661 84.536 57.620 84.266 57.609 C83.995 57.599 83.604 57.651 83.422 57.672 C83.240 57.693 83.354 57.724 83.172 57.734 C82.990 57.745 82.531 57.755 82.328 57.734 C82.125 57.714 82.052 57.651 81.953 57.609 C81.854 57.568 81.818 57.557 81.734 57.484 C81.651 57.411 81.510 57.266 81.453 57.172 C81.396 57.078 81.365 57.010 81.391 56.922 C81.417 56.833 81.547 56.698 81.609 56.641 C81.672 56.583 81.641 56.604 81.766 56.578 C81.891 56.552 82.089 56.505 82.359 56.484 C82.630 56.464 83.130 56.469 83.391 56.453 C83.651 56.438 83.750 56.422 83.922 56.391 C84.094 56.359 84.250 56.328 84.422 56.266 C84.594 56.203 84.760 56.141 84.953 56.016 C85.146 55.891 85.411 55.688 85.578 55.516 C85.745 55.344 85.859 55.156 85.953 54.984 C86.047 54.812 86.109 54.672 86.141 54.484 C86.172 54.297 86.172 54.036 86.141 53.859 C86.109 53.682 86.016 53.531 85.953 53.422 C85.891 53.312 85.844 53.276 85.766 53.203 C85.688 53.130 85.635 53.062 85.484 52.984 C85.333 52.906 85.031 52.786 84.859 52.734 C84.688 52.682 84.625 52.682 84.453 52.672 C84.281 52.661 84.125 52.646 83.828 52.672 C83.531 52.698 82.979 52.802 82.672 52.828 C82.365 52.854 82.234 52.854 81.984 52.828 C81.734 52.802 81.427 52.740 81.172 52.672 C80.917 52.604 80.698 52.495 80.453 52.422 C80.208 52.349 79.958 52.276 79.703 52.234 C79.448 52.193 79.177 52.161 78.922 52.172 C78.667 52.182 78.370 52.245 78.172 52.297 C77.974 52.349 77.854 52.422 77.734 52.484 C77.615 52.547 77.557 52.589 77.453 52.672 C77.349 52.755 77.208 52.875 77.109 52.984 C77.010 53.094 76.932 53.208 76.859 53.328 C76.786 53.448 76.724 53.573 76.672 53.703 C76.620 53.833 76.578 53.979 76.547 54.109 C76.516 54.240 76.495 54.297 76.484 54.484 C76.474 54.672 76.464 55.000 76.484 55.234 C76.505 55.469 76.536 55.635 76.609 55.891 Z M82.297 62.797 C82.260 62.844 82.198 62.911 82.141 62.953 C82.083 62.995 82.062 63.031 81.953 63.047 C81.844 63.062 81.615 63.068 81.484 63.047 C81.354 63.026 81.281 62.984 81.172 62.922 C81.062 62.859 80.953 62.792 80.828 62.672 C80.703 62.552 80.526 62.349 80.422 62.203 C80.318 62.057 80.240 61.906 80.203 61.797 C80.167 61.688 80.177 61.604 80.203 61.547 C80.229 61.490 80.266 61.458 80.359 61.453 C80.453 61.448 80.604 61.474 80.766 61.516 C80.927 61.557 81.120 61.620 81.328 61.703 C81.536 61.786 81.870 61.938 82.016 62.016 C82.161 62.094 82.146 62.104 82.203 62.172 C82.260 62.240 82.333 62.339 82.359 62.422 C82.385 62.505 82.370 62.609 82.359 62.672 C82.349 62.734 82.333 62.750 82.297 62.797 Z M112.734 50.547 C112.427 50.797 112.130 51.047 111.766 51.422 C111.401 51.797 110.927 52.312 110.547 52.797 C110.167 53.281 109.807 53.797 109.484 54.328 C109.161 54.859 108.818 55.552 108.609 55.984 C108.401 56.417 108.359 56.542 108.234 56.922 C108.109 57.302 107.948 57.844 107.859 58.266 C107.771 58.688 107.724 59.005 107.703 59.453 C107.682 59.901 107.688 60.516 107.734 60.953 C107.781 61.391 107.859 61.724 107.984 62.078 C108.109 62.432 108.370 62.870 108.484 63.078 C108.599 63.286 108.526 63.182 108.672 63.328 C108.818 63.474 109.172 63.807 109.359 63.953 C109.547 64.099 109.635 64.130 109.797 64.203 C109.958 64.276 110.120 64.339 110.328 64.391 C110.536 64.443 110.844 64.495 111.047 64.516 C111.250 64.536 111.292 64.547 111.547 64.516 C111.802 64.484 112.292 64.401 112.578 64.328 C112.865 64.255 113.047 64.172 113.266 64.078 C113.484 63.984 113.693 63.875 113.891 63.766 C114.089 63.656 114.224 63.578 114.453 63.422 C114.682 63.266 114.958 63.083 115.266 62.828 C115.573 62.573 115.932 62.266 116.297 61.891 C116.661 61.516 117.094 61.036 117.453 60.578 C117.812 60.120 118.161 59.609 118.453 59.141 C118.745 58.672 118.995 58.198 119.203 57.766 C119.411 57.333 119.568 56.922 119.703 56.547 C119.839 56.172 119.922 55.938 120.016 55.516 C120.109 55.094 120.224 54.510 120.266 54.016 C120.307 53.521 120.276 52.870 120.266 52.547 C120.255 52.224 120.245 52.281 120.203 52.078 C120.161 51.875 120.099 51.573 120.016 51.328 C119.932 51.083 119.812 50.812 119.703 50.609 C119.594 50.406 119.474 50.255 119.359 50.109 C119.245 49.964 119.156 49.859 119.016 49.734 C118.875 49.609 118.750 49.484 118.516 49.359 C118.281 49.234 117.859 49.062 117.609 48.984 C117.359 48.906 117.271 48.901 117.016 48.891 C116.760 48.880 116.365 48.885 116.078 48.922 C115.792 48.958 115.536 49.036 115.297 49.109 C115.057 49.182 114.922 49.224 114.641 49.359 C114.359 49.495 113.927 49.724 113.609 49.922 C113.292 50.120 113.042 50.297 112.734 50.547 Z M116.234 57.453 C116.109 57.724 115.953 58.016 115.797 58.266 C115.641 58.516 115.448 58.766 115.297 58.953 C115.146 59.141 115.073 59.224 114.891 59.391 C114.708 59.557 114.401 59.812 114.203 59.953 C114.005 60.094 113.891 60.156 113.703 60.234 C113.516 60.312 113.260 60.391 113.078 60.422 C112.896 60.453 112.755 60.443 112.609 60.422 C112.464 60.401 112.307 60.339 112.203 60.297 C112.099 60.255 112.083 60.260 111.984 60.172 C111.885 60.083 111.708 59.906 111.609 59.766 C111.510 59.625 111.448 59.500 111.391 59.328 C111.333 59.156 111.286 58.979 111.266 58.734 C111.245 58.490 111.245 58.130 111.266 57.859 C111.286 57.589 111.328 57.370 111.391 57.109 C111.453 56.849 111.557 56.531 111.641 56.297 C111.724 56.062 111.776 55.932 111.891 55.703 C112.005 55.474 112.203 55.125 112.328 54.922 C112.453 54.719 112.526 54.630 112.641 54.484 C112.755 54.339 112.844 54.219 113.016 54.047 C113.188 53.875 113.500 53.594 113.672 53.453 C113.844 53.312 113.865 53.297 114.047 53.203 C114.229 53.109 114.542 52.953 114.766 52.891 C114.990 52.828 115.208 52.818 115.391 52.828 C115.573 52.839 115.745 52.911 115.859 52.953 C115.974 52.995 115.984 53.000 116.078 53.078 C116.172 53.156 116.323 53.281 116.422 53.422 C116.521 53.562 116.609 53.750 116.672 53.922 C116.734 54.094 116.776 54.188 116.797 54.453 C116.818 54.719 116.839 55.151 116.797 55.516 C116.755 55.880 116.641 56.318 116.547 56.641 C116.453 56.964 116.359 57.182 116.234 57.453 Z M43.609 52.016 C43.536 52.901 43.349 54.271 43.297 54.859 C43.245 55.448 43.276 55.141 43.297 55.547 C43.318 55.953 43.380 56.891 43.422 57.297 C43.464 57.703 43.495 57.781 43.547 57.984 C43.599 58.188 43.661 58.359 43.734 58.516 C43.807 58.672 43.885 58.797 43.984 58.922 C44.083 59.047 44.240 59.188 44.328 59.266 C44.417 59.344 44.406 59.339 44.516 59.391 C44.625 59.443 44.828 59.547 44.984 59.578 C45.141 59.609 45.339 59.589 45.453 59.578 C45.568 59.568 45.589 59.552 45.672 59.516 C45.755 59.479 45.854 59.438 45.953 59.359 C46.052 59.281 46.161 59.193 46.266 59.047 C46.370 58.901 46.464 58.724 46.578 58.484 C46.693 58.245 46.823 57.823 46.953 57.609 C47.083 57.396 47.266 57.281 47.359 57.203 C47.453 57.125 47.411 57.151 47.516 57.141 C47.620 57.130 47.844 57.120 47.984 57.141 C48.125 57.161 48.219 57.203 48.359 57.266 C48.500 57.328 48.677 57.422 48.828 57.516 C48.979 57.609 49.115 57.703 49.266 57.828 C49.417 57.953 49.604 58.125 49.734 58.266 C49.865 58.406 49.958 58.531 50.047 58.672 C50.135 58.812 50.203 58.943 50.266 59.109 C50.328 59.276 50.385 59.484 50.422 59.672 C50.458 59.859 50.474 59.917 50.484 60.234 C50.495 60.552 50.474 61.229 50.484 61.578 C50.495 61.927 50.516 62.109 50.547 62.328 C50.578 62.547 50.609 62.703 50.672 62.891 C50.734 63.078 50.812 63.276 50.922 63.453 C51.031 63.630 51.177 63.818 51.328 63.953 C51.479 64.089 51.688 64.198 51.828 64.266 C51.969 64.333 52.047 64.344 52.172 64.359 C52.297 64.375 52.453 64.375 52.578 64.359 C52.703 64.344 52.802 64.323 52.922 64.266 C53.042 64.208 53.167 64.146 53.297 64.016 C53.427 63.885 53.594 63.688 53.703 63.484 C53.812 63.281 53.885 63.094 53.953 62.797 C54.021 62.500 54.057 62.484 54.109 61.703 C54.161 60.922 54.240 59.016 54.266 58.109 C54.292 57.203 54.286 56.854 54.266 56.266 C54.245 55.677 54.182 54.979 54.141 54.578 C54.099 54.177 54.068 54.078 54.016 53.859 C53.964 53.641 53.922 53.469 53.828 53.266 C53.734 53.062 53.589 52.807 53.453 52.641 C53.318 52.474 53.167 52.359 53.016 52.266 C52.865 52.172 52.698 52.115 52.547 52.078 C52.396 52.042 52.250 52.031 52.109 52.047 C51.969 52.062 51.839 52.099 51.703 52.172 C51.568 52.245 51.406 52.375 51.297 52.484 C51.188 52.594 51.156 52.635 51.047 52.828 C50.938 53.021 50.734 53.469 50.641 53.641 C50.547 53.812 50.542 53.792 50.484 53.859 C50.427 53.927 50.365 53.995 50.297 54.047 C50.229 54.099 50.135 54.146 50.078 54.172 C50.021 54.198 50.062 54.203 49.953 54.203 C49.844 54.203 49.656 54.250 49.422 54.172 C49.188 54.094 48.760 53.859 48.547 53.734 C48.333 53.609 48.286 53.552 48.141 53.422 C47.995 53.292 47.797 53.099 47.672 52.953 C47.547 52.807 47.469 52.682 47.391 52.547 C47.312 52.411 47.260 52.349 47.203 52.141 C47.146 51.932 47.078 51.656 47.047 51.297 C47.016 50.938 47.031 50.302 47.016 49.984 C47.000 49.667 46.995 49.604 46.953 49.391 C46.911 49.177 46.828 48.880 46.766 48.703 C46.703 48.526 46.677 48.469 46.578 48.328 C46.479 48.188 46.276 47.964 46.172 47.859 C46.068 47.755 46.047 47.755 45.953 47.703 C45.859 47.651 45.740 47.583 45.609 47.547 C45.479 47.510 45.328 47.474 45.172 47.484 C45.016 47.495 44.828 47.531 44.672 47.609 C44.516 47.688 44.349 47.828 44.234 47.953 C44.120 48.078 44.057 48.177 43.984 48.359 C43.911 48.542 43.828 48.891 43.797 49.047 C43.766 49.203 43.807 49.214 43.797 49.297 C43.786 49.380 43.766 49.094 43.734 49.547 C43.703 50.000 43.682 51.130 43.609 52.016 Z M63.547 53.609 C63.516 53.854 63.526 54.135 63.547 54.328 C63.568 54.521 63.609 54.620 63.672 54.766 C63.734 54.911 63.828 55.078 63.922 55.203 C64.016 55.328 64.115 55.422 64.234 55.516 C64.354 55.609 64.510 55.703 64.641 55.766 C64.771 55.828 64.917 55.865 65.016 55.891 C65.115 55.917 65.083 55.922 65.234 55.922 C65.385 55.922 65.656 55.938 65.922 55.891 C66.188 55.844 66.568 55.688 66.828 55.641 C67.089 55.594 67.286 55.594 67.484 55.609 C67.682 55.625 67.828 55.667 68.016 55.734 C68.203 55.802 68.339 55.854 68.609 56.016 C68.880 56.177 69.385 56.521 69.641 56.703 C69.896 56.885 69.979 56.964 70.141 57.109 C70.302 57.255 70.448 57.380 70.609 57.578 C70.771 57.776 70.932 57.964 71.109 58.297 C71.286 58.630 71.536 59.292 71.672 59.578 C71.807 59.865 71.839 59.885 71.922 60.016 C72.005 60.146 72.073 60.245 72.172 60.359 C72.271 60.474 72.422 60.620 72.516 60.703 C72.609 60.786 72.615 60.797 72.734 60.859 C72.854 60.922 73.062 61.036 73.234 61.078 C73.406 61.120 73.625 61.120 73.766 61.109 C73.906 61.099 73.984 61.062 74.078 61.016 C74.172 60.969 74.245 60.932 74.328 60.828 C74.411 60.724 74.526 60.568 74.578 60.391 C74.630 60.214 74.651 60.016 74.641 59.766 C74.630 59.516 74.724 59.740 74.516 58.891 C74.307 58.042 73.589 55.391 73.391 54.672 C73.193 53.953 73.443 54.943 73.328 54.578 C73.214 54.214 72.828 52.880 72.703 52.484 C72.578 52.089 72.766 52.844 72.578 52.203 C72.391 51.562 71.797 49.380 71.578 48.641 C71.359 47.901 71.359 47.995 71.266 47.766 C71.172 47.536 71.109 47.427 71.016 47.266 C70.922 47.104 70.839 46.958 70.703 46.797 C70.568 46.635 70.344 46.422 70.203 46.297 C70.062 46.172 70.005 46.130 69.859 46.047 C69.714 45.964 69.479 45.854 69.328 45.797 C69.177 45.740 69.078 45.724 68.953 45.703 C68.828 45.682 68.740 45.656 68.578 45.672 C68.417 45.688 68.177 45.719 67.984 45.797 C67.792 45.875 67.568 46.031 67.422 46.141 C67.276 46.250 67.234 46.302 67.109 46.453 C66.984 46.604 67.161 46.151 66.672 47.047 C66.182 47.943 64.661 50.859 64.172 51.828 C63.682 52.797 63.839 52.562 63.734 52.859 C63.630 53.156 63.578 53.365 63.547 53.609 Z M96.359 45.109 C96.255 45.240 96.193 45.312 96.109 45.516 C96.026 45.719 95.911 46.120 95.859 46.328 C95.807 46.536 95.818 46.448 95.797 46.766 C95.776 47.083 95.755 47.917 95.734 48.234 C95.714 48.552 95.714 48.500 95.672 48.672 C95.630 48.844 95.568 49.078 95.484 49.266 C95.401 49.453 95.302 49.625 95.172 49.797 C95.042 49.969 94.948 50.099 94.703 50.297 C94.458 50.495 93.911 50.849 93.703 50.984 C93.495 51.120 93.589 51.062 93.453 51.109 C93.318 51.156 93.052 51.245 92.891 51.266 C92.729 51.286 92.573 51.250 92.484 51.234 C92.396 51.219 92.448 51.250 92.359 51.172 C92.271 51.094 92.083 50.974 91.953 50.766 C91.823 50.557 91.693 50.141 91.578 49.922 C91.464 49.703 91.370 49.578 91.266 49.453 C91.161 49.328 91.068 49.245 90.953 49.172 C90.839 49.099 90.714 49.047 90.578 49.016 C90.443 48.984 90.260 48.979 90.141 48.984 C90.021 48.990 89.974 49.005 89.859 49.047 C89.745 49.089 89.578 49.156 89.453 49.234 C89.328 49.312 89.219 49.401 89.109 49.516 C89.000 49.630 88.880 49.792 88.797 49.922 C88.714 50.052 88.661 50.167 88.609 50.297 C88.557 50.427 88.526 50.521 88.484 50.703 C88.443 50.885 88.391 51.156 88.359 51.391 C88.328 51.625 88.312 51.500 88.297 52.109 C88.281 52.719 88.266 54.552 88.266 55.047 C88.266 55.542 88.286 54.698 88.297 55.078 C88.307 55.458 88.328 56.948 88.328 57.328 C88.328 57.708 88.302 57.208 88.297 57.359 C88.292 57.510 88.307 58.016 88.297 58.234 C88.286 58.453 88.245 58.427 88.234 58.672 C88.224 58.917 88.224 59.469 88.234 59.703 C88.245 59.938 88.255 59.932 88.297 60.078 C88.339 60.224 88.411 60.432 88.484 60.578 C88.557 60.724 88.651 60.849 88.734 60.953 C88.818 61.057 88.896 61.130 88.984 61.203 C89.073 61.276 89.161 61.339 89.266 61.391 C89.370 61.443 89.464 61.495 89.609 61.516 C89.755 61.536 90.010 61.526 90.141 61.516 C90.271 61.505 90.260 61.516 90.391 61.453 C90.521 61.391 90.766 61.266 90.922 61.141 C91.078 61.016 91.214 60.870 91.328 60.703 C91.443 60.536 91.536 60.328 91.609 60.141 C91.682 59.953 91.724 59.812 91.766 59.578 C91.807 59.344 91.839 59.099 91.859 58.734 C91.880 58.370 91.875 57.703 91.891 57.391 C91.906 57.078 91.922 57.036 91.953 56.859 C91.984 56.682 92.016 56.505 92.078 56.328 C92.141 56.151 92.234 55.953 92.328 55.797 C92.422 55.641 92.510 55.531 92.641 55.391 C92.771 55.250 92.927 55.099 93.109 54.953 C93.292 54.807 93.573 54.620 93.734 54.516 C93.896 54.411 93.938 54.391 94.078 54.328 C94.219 54.266 94.432 54.177 94.578 54.141 C94.724 54.104 94.839 54.099 94.953 54.109 C95.068 54.120 95.161 54.141 95.266 54.203 C95.370 54.266 95.510 54.411 95.578 54.484 C95.646 54.557 95.583 54.427 95.672 54.641 C95.760 54.854 95.995 55.510 96.109 55.766 C96.224 56.021 96.266 56.052 96.359 56.172 C96.453 56.292 96.531 56.396 96.672 56.484 C96.812 56.573 97.052 56.667 97.203 56.703 C97.354 56.740 97.474 56.714 97.578 56.703 C97.682 56.693 97.714 56.688 97.828 56.641 C97.943 56.594 98.120 56.526 98.266 56.422 C98.411 56.318 98.589 56.146 98.703 56.016 C98.818 55.885 98.859 55.844 98.953 55.641 C99.047 55.438 99.193 55.036 99.266 54.797 C99.339 54.557 99.354 54.458 99.391 54.203 C99.427 53.948 99.474 53.656 99.484 53.266 C99.495 52.875 99.490 52.474 99.453 51.859 C99.417 51.245 99.307 50.323 99.266 49.578 C99.224 48.833 99.224 47.906 99.203 47.391 C99.182 46.875 99.182 46.797 99.141 46.484 C99.099 46.172 99.026 45.766 98.953 45.516 C98.880 45.266 98.792 45.125 98.703 44.984 C98.615 44.844 98.500 44.745 98.422 44.672 C98.344 44.599 98.318 44.589 98.234 44.547 C98.151 44.505 98.062 44.443 97.922 44.422 C97.781 44.401 97.516 44.411 97.391 44.422 C97.266 44.432 97.281 44.432 97.172 44.484 C97.062 44.536 96.870 44.630 96.734 44.734 C96.599 44.839 96.464 44.979 96.359 45.109 Z M32.547 42.828 C32.422 43.057 32.255 43.458 32.172 43.672 C32.089 43.885 32.089 43.906 32.047 44.109 C32.005 44.312 31.943 44.521 31.922 44.891 C31.901 45.260 31.891 45.885 31.922 46.328 C31.953 46.771 32.016 47.125 32.109 47.547 C32.203 47.969 32.339 48.438 32.484 48.859 C32.630 49.281 32.760 49.625 32.984 50.078 C33.208 50.531 33.536 51.120 33.828 51.578 C34.120 52.036 34.521 52.547 34.734 52.828 C34.948 53.109 34.880 53.026 35.109 53.266 C35.339 53.505 35.786 53.974 36.109 54.266 C36.432 54.557 36.776 54.818 37.047 55.016 C37.318 55.214 37.516 55.328 37.734 55.453 C37.953 55.578 38.130 55.672 38.359 55.766 C38.589 55.859 38.885 55.958 39.109 56.016 C39.333 56.073 39.531 56.094 39.703 56.109 C39.875 56.125 39.948 56.135 40.141 56.109 C40.333 56.083 40.667 56.021 40.859 55.953 C41.052 55.885 41.177 55.792 41.297 55.703 C41.417 55.615 41.500 55.526 41.578 55.422 C41.656 55.318 41.724 55.177 41.766 55.078 C41.807 54.979 41.818 54.922 41.828 54.828 C41.839 54.734 41.839 54.615 41.828 54.516 C41.818 54.417 41.812 54.354 41.766 54.234 C41.719 54.115 41.641 53.938 41.547 53.797 C41.453 53.656 41.359 53.526 41.203 53.391 C41.047 53.255 40.818 53.094 40.609 52.984 C40.401 52.875 40.240 52.818 39.953 52.734 C39.667 52.651 39.193 52.578 38.891 52.484 C38.589 52.391 38.401 52.318 38.141 52.172 C37.880 52.026 37.547 51.786 37.328 51.609 C37.109 51.432 37.016 51.333 36.828 51.109 C36.641 50.885 36.359 50.500 36.203 50.266 C36.047 50.031 35.995 49.922 35.891 49.703 C35.786 49.484 35.672 49.240 35.578 48.953 C35.484 48.667 35.380 48.224 35.328 47.984 C35.276 47.745 35.276 47.719 35.266 47.516 C35.255 47.312 35.234 47.021 35.266 46.766 C35.297 46.510 35.401 46.156 35.453 45.984 C35.505 45.812 35.510 45.833 35.578 45.734 C35.646 45.635 35.771 45.479 35.859 45.391 C35.948 45.302 36.016 45.255 36.109 45.203 C36.203 45.151 36.260 45.104 36.422 45.078 C36.583 45.052 36.854 45.016 37.078 45.047 C37.302 45.078 37.547 45.161 37.766 45.266 C37.984 45.370 38.125 45.448 38.391 45.672 C38.656 45.896 39.120 46.365 39.359 46.609 C39.599 46.854 39.672 46.990 39.828 47.141 C39.984 47.292 40.146 47.422 40.297 47.516 C40.448 47.609 40.589 47.667 40.734 47.703 C40.880 47.740 41.031 47.755 41.172 47.734 C41.312 47.714 41.469 47.646 41.578 47.578 C41.688 47.510 41.766 47.422 41.828 47.328 C41.891 47.234 41.932 47.167 41.953 47.016 C41.974 46.865 41.984 46.615 41.953 46.422 C41.922 46.229 41.849 46.052 41.766 45.859 C41.682 45.667 41.557 45.443 41.453 45.266 C41.349 45.089 41.312 45.021 41.141 44.797 C40.969 44.573 40.724 44.245 40.422 43.922 C40.120 43.599 39.714 43.182 39.328 42.859 C38.943 42.536 38.432 42.193 38.109 41.984 C37.786 41.776 37.656 41.724 37.391 41.609 C37.125 41.495 36.781 41.370 36.516 41.297 C36.250 41.224 36.031 41.193 35.797 41.172 C35.562 41.151 35.292 41.161 35.109 41.172 C34.927 41.182 34.870 41.193 34.703 41.234 C34.536 41.276 34.271 41.359 34.109 41.422 C33.948 41.484 33.870 41.526 33.734 41.609 C33.599 41.693 33.432 41.807 33.297 41.922 C33.161 42.036 33.047 42.146 32.922 42.297 C32.797 42.448 32.672 42.599 32.547 42.828 Z M129.047 40.703 C128.922 40.859 128.724 41.146 128.609 41.359 C128.495 41.573 128.432 41.771 128.359 41.984 C128.286 42.198 128.349 41.906 128.172 42.641 C127.995 43.375 127.505 45.604 127.297 46.391 C127.089 47.177 127.016 47.151 126.922 47.359 C126.828 47.568 126.797 47.568 126.734 47.641 C126.672 47.714 126.604 47.760 126.547 47.797 C126.490 47.833 126.443 47.849 126.391 47.859 C126.339 47.870 126.318 47.891 126.234 47.859 C126.151 47.828 126.021 47.786 125.891 47.672 C125.760 47.557 125.599 47.380 125.453 47.172 C125.307 46.964 125.193 46.698 125.016 46.422 C124.839 46.146 124.562 45.734 124.391 45.516 C124.219 45.297 124.146 45.229 123.984 45.109 C123.823 44.990 123.557 44.859 123.422 44.797 C123.286 44.734 123.297 44.745 123.172 44.734 C123.047 44.724 122.844 44.703 122.672 44.734 C122.500 44.766 122.276 44.859 122.141 44.922 C122.005 44.984 121.948 45.036 121.859 45.109 C121.771 45.182 121.703 45.224 121.609 45.359 C121.516 45.495 121.349 45.807 121.297 45.922 C121.245 46.036 121.307 46.005 121.297 46.047 C121.286 46.089 121.245 46.026 121.234 46.172 C121.224 46.318 121.224 46.750 121.234 46.922 C121.245 47.094 121.245 47.031 121.297 47.203 C121.349 47.375 121.411 47.630 121.547 47.953 C121.682 48.276 121.651 48.255 122.109 49.141 C122.568 50.026 123.891 52.516 124.297 53.266 C124.703 54.016 124.432 53.495 124.547 53.641 C124.661 53.786 124.859 54.016 124.984 54.141 C125.109 54.266 125.182 54.318 125.297 54.391 C125.411 54.464 125.542 54.531 125.672 54.578 C125.802 54.625 125.906 54.661 126.078 54.672 C126.250 54.682 126.542 54.667 126.703 54.641 C126.865 54.615 126.901 54.589 127.047 54.516 C127.193 54.443 127.385 54.370 127.578 54.203 C127.771 54.036 128.057 53.703 128.203 53.516 C128.349 53.328 128.370 53.260 128.453 53.078 C128.536 52.896 128.620 52.688 128.703 52.422 C128.786 52.156 128.911 51.667 128.953 51.484 C128.995 51.302 128.943 51.375 128.953 51.328 C128.964 51.281 129.005 51.250 129.016 51.203 C129.026 51.156 128.943 51.406 129.016 51.047 C129.089 50.688 129.339 49.531 129.453 49.047 C129.568 48.562 129.661 48.318 129.703 48.141 C129.745 47.964 129.682 48.073 129.703 47.984 C129.724 47.896 129.786 47.781 129.828 47.609 C129.870 47.438 129.922 47.083 129.953 46.953 C129.984 46.823 129.932 47.172 130.016 46.828 C130.099 46.484 130.359 45.276 130.453 44.891 C130.547 44.505 130.547 44.646 130.578 44.516 C130.609 44.385 130.620 44.198 130.641 44.109 C130.661 44.021 130.682 44.073 130.703 43.984 C130.724 43.896 130.745 43.667 130.766 43.578 C130.786 43.490 130.776 43.682 130.828 43.453 C130.880 43.224 131.031 42.573 131.078 42.203 C131.125 41.833 131.130 41.490 131.109 41.234 C131.089 40.979 131.021 40.818 130.953 40.672 C130.885 40.526 130.807 40.443 130.703 40.359 C130.599 40.276 130.458 40.203 130.328 40.172 C130.198 40.141 130.026 40.161 129.922 40.172 C129.818 40.182 129.797 40.193 129.703 40.234 C129.609 40.276 129.469 40.344 129.359 40.422 C129.250 40.500 129.172 40.547 129.047 40.703 Z M105.422 39.047 C105.286 39.125 105.255 39.130 105.109 39.266 C104.964 39.401 104.682 39.693 104.547 39.859 C104.411 40.026 104.391 40.083 104.297 40.266 C104.203 40.448 104.234 40.120 103.984 40.953 C103.734 41.786 103.005 44.531 102.797 45.266 C102.589 46.000 102.828 45.057 102.734 45.359 C102.641 45.661 102.328 46.776 102.234 47.078 C102.141 47.380 102.214 47.026 102.172 47.172 C102.130 47.318 102.026 47.807 101.984 47.953 C101.943 48.099 101.932 48.010 101.922 48.047 C101.911 48.083 101.953 48.057 101.922 48.172 C101.891 48.286 101.766 48.620 101.734 48.734 C101.703 48.849 101.870 48.349 101.734 48.859 C101.599 49.370 101.062 51.266 100.922 51.797 C100.781 52.328 100.891 51.870 100.891 52.047 C100.891 52.224 100.885 52.661 100.922 52.859 C100.958 53.057 101.042 53.135 101.109 53.234 C101.177 53.333 101.255 53.396 101.328 53.453 C101.401 53.510 101.479 53.547 101.547 53.578 C101.615 53.609 101.620 53.630 101.734 53.641 C101.849 53.651 102.073 53.672 102.234 53.641 C102.396 53.609 102.568 53.526 102.703 53.453 C102.839 53.380 102.911 53.339 103.047 53.203 C103.182 53.068 103.375 52.854 103.516 52.641 C103.656 52.427 103.766 52.188 103.891 51.922 C104.016 51.656 104.135 51.297 104.266 51.047 C104.396 50.797 104.521 50.615 104.672 50.422 C104.823 50.229 105.026 50.031 105.172 49.891 C105.318 49.750 105.318 49.745 105.547 49.578 C105.776 49.411 106.281 49.057 106.547 48.891 C106.812 48.724 106.938 48.656 107.141 48.578 C107.344 48.500 107.552 48.443 107.766 48.422 C107.979 48.401 108.208 48.417 108.422 48.453 C108.635 48.490 108.844 48.594 109.047 48.641 C109.250 48.688 109.432 48.729 109.641 48.734 C109.849 48.740 110.141 48.698 110.297 48.672 C110.453 48.646 110.464 48.635 110.578 48.578 C110.693 48.521 110.849 48.443 110.984 48.328 C111.120 48.214 111.292 48.031 111.391 47.891 C111.490 47.750 111.531 47.630 111.578 47.484 C111.625 47.339 111.661 47.203 111.672 47.016 C111.682 46.828 111.677 46.578 111.641 46.359 C111.604 46.141 111.526 45.911 111.453 45.703 C111.380 45.495 111.536 45.771 111.203 45.109 C110.870 44.448 109.766 42.349 109.453 41.734 C109.141 41.120 109.464 41.682 109.328 41.422 C109.193 41.161 108.849 40.510 108.641 40.172 C108.432 39.833 108.234 39.578 108.078 39.391 C107.922 39.203 107.839 39.146 107.703 39.047 C107.568 38.948 107.443 38.859 107.266 38.797 C107.089 38.734 106.797 38.688 106.641 38.672 C106.484 38.656 106.448 38.682 106.328 38.703 C106.208 38.724 106.073 38.740 105.922 38.797 C105.771 38.854 105.557 38.969 105.422 39.047 Z M52.922 38.609 C52.828 38.766 52.839 38.781 52.797 38.922 C52.755 39.062 52.693 39.208 52.672 39.453 C52.651 39.698 52.641 40.099 52.672 40.391 C52.703 40.682 52.786 40.964 52.859 41.203 C52.932 41.443 52.995 41.589 53.109 41.828 C53.224 42.068 53.380 42.354 53.547 42.641 C53.714 42.927 53.964 43.292 54.109 43.547 C54.255 43.802 54.354 44.016 54.422 44.172 C54.490 44.328 54.500 44.391 54.516 44.484 C54.531 44.578 54.542 44.661 54.516 44.734 C54.490 44.807 54.406 44.880 54.359 44.922 C54.312 44.964 54.344 44.953 54.234 44.984 C54.125 45.016 53.839 45.068 53.703 45.109 C53.568 45.151 53.500 45.193 53.422 45.234 C53.344 45.276 53.318 45.281 53.234 45.359 C53.151 45.438 53.000 45.568 52.922 45.703 C52.844 45.839 52.792 46.026 52.766 46.172 C52.740 46.318 52.740 46.417 52.766 46.578 C52.792 46.740 52.854 46.964 52.922 47.141 C52.990 47.318 53.068 47.464 53.172 47.641 C53.276 47.818 53.354 47.953 53.547 48.203 C53.740 48.453 54.042 48.828 54.328 49.141 C54.615 49.453 55.000 49.828 55.266 50.078 C55.531 50.328 55.589 50.391 55.922 50.641 C56.255 50.891 56.849 51.328 57.266 51.578 C57.682 51.828 58.167 52.026 58.422 52.141 C58.677 52.255 58.630 52.224 58.797 52.266 C58.964 52.307 59.193 52.370 59.422 52.391 C59.651 52.411 59.990 52.401 60.172 52.391 C60.354 52.380 60.375 52.370 60.516 52.328 C60.656 52.286 60.859 52.219 61.016 52.141 C61.172 52.062 61.307 51.984 61.453 51.859 C61.599 51.734 61.771 51.562 61.891 51.391 C62.010 51.219 62.099 51.047 62.172 50.828 C62.245 50.609 62.302 50.297 62.328 50.078 C62.354 49.859 62.339 49.688 62.328 49.516 C62.318 49.344 62.318 49.276 62.266 49.047 C62.214 48.818 62.130 48.448 62.016 48.141 C61.901 47.833 61.786 47.578 61.578 47.203 C61.370 46.828 60.943 46.193 60.766 45.891 C60.589 45.589 60.578 45.542 60.516 45.391 C60.453 45.240 60.411 45.104 60.391 44.984 C60.370 44.865 60.375 44.755 60.391 44.672 C60.406 44.589 60.349 44.620 60.484 44.484 C60.620 44.349 61.031 44.047 61.203 43.859 C61.375 43.672 61.453 43.479 61.516 43.359 C61.578 43.240 61.568 43.266 61.578 43.141 C61.589 43.016 61.609 42.797 61.578 42.609 C61.547 42.422 61.505 42.255 61.391 42.016 C61.276 41.776 61.120 41.490 60.891 41.172 C60.661 40.854 60.349 40.464 60.016 40.109 C59.682 39.755 59.286 39.375 58.891 39.047 C58.495 38.719 58.021 38.380 57.641 38.141 C57.260 37.901 56.922 37.740 56.609 37.609 C56.297 37.479 56.036 37.411 55.766 37.359 C55.495 37.307 55.193 37.297 54.984 37.297 C54.776 37.297 54.661 37.328 54.516 37.359 C54.370 37.391 54.219 37.443 54.109 37.484 C54.000 37.526 53.984 37.526 53.859 37.609 C53.734 37.693 53.516 37.818 53.359 37.984 C53.203 38.151 53.016 38.453 52.922 38.609 Z M56.828 46.641 C56.943 46.729 57.094 46.880 57.172 46.984 C57.250 47.089 57.292 47.203 57.297 47.266 C57.302 47.328 57.234 47.344 57.203 47.359 C57.172 47.375 57.188 47.396 57.109 47.359 C57.031 47.323 56.833 47.214 56.734 47.141 C56.635 47.068 56.583 47.005 56.516 46.922 C56.448 46.839 56.359 46.714 56.328 46.641 C56.297 46.568 56.302 46.516 56.328 46.484 C56.354 46.453 56.401 46.427 56.484 46.453 C56.568 46.479 56.714 46.552 56.828 46.641 Z" fill="#111111" fill-rule="evenodd" stroke="none"/>
</g>
<g id="layer-text">
<text x="14.844" y="162" font-family="Wix Madefor Text" font-weight="700" font-size="4.798" text-anchor="start" letter-spacing="0" fill="#111111">COLORBLOCK</text>
<text x="51.532" y="161.48" font-family="Wix Madefor Text" font-weight="600" font-size="3.351" text-anchor="start" letter-spacing="0" fill="#111111">×</text>
<text x="56.289" y="162" font-family="Wix Madefor Text" font-weight="700" font-size="4.798" text-anchor="start" letter-spacing="0" fill="#111111">DNA</text>
<text x="123" y="160" font-family="Wix Madefor Text" font-weight="600" font-size="3.351" text-anchor="middle" letter-spacing="0.034" fill="#111111">Dinner · 10 oct 2026 · 18:00</text>
<text x="123" y="164.692" font-family="Wix Madefor Text" font-weight="600" font-size="3.351" text-anchor="middle" letter-spacing="0.034" fill="#111111">DNA Kitchen, Samokatnaya 4s53</text>
</g>
<g id="layer-guides">
<path d="M3.001 84.999 L161 85 L161 5.398 L84.1 52.814 L83.97 52.89 L83.882 52.938 L83.611 53.07 L83.518 53.109 L83.235 53.213 L83.139 53.243 L82.848 53.318 L82.749 53.338 L82.451 53.383 L82.351 53.393 L82.05 53.409 L81.95 53.409 L81.649 53.393 L81.549 53.383 L81.251 53.338 L81.152 53.318 L80.861 53.243 L80.765 53.213 L80.482 53.109 L80.389 53.07 L80.118 52.938 L80.03 52.89 L79.9 52.814 L3.019 5.387 Z" fill="none" stroke="#1a9850" stroke-width="0.2" stroke-dasharray="0.5 1" /><path d="M3.001 184.999 L161 185 L161 105.398 L84.1 152.814 L83.97 152.89 L83.882 152.938 L83.611 153.07 L83.518 153.109 L83.235 153.213 L83.139 153.243 L82.848 153.318 L82.749 153.338 L82.451 153.383 L82.351 153.393 L82.05 153.409 L81.95 153.409 L81.649 153.393 L81.549 153.383 L81.251 153.338 L81.152 153.318 L80.861 153.243 L80.765 153.213 L80.482 153.109 L80.389 153.07 L80.118 152.938 L80.03 152.89 L79.9 152.814 L3.019 105.387 Z" fill="none" stroke="#1a9850" stroke-width="0.2" stroke-dasharray="0.5 1" /><text x="82" y="8" font-family="Wix Madefor Text" font-weight="700" font-size="2.4" text-anchor="middle" letter-spacing="0" fill="#111111">FRONT (print side 1)</text><text x="82" y="12" font-family="Wix Madefor Text" font-weight="500" font-size="2" text-anchor="middle" letter-spacing="0" fill="#111111">name warped for the seat: eye 430 up, 450 away, V open 90 deg</text><text x="82" y="108" font-family="Wix Madefor Text" font-weight="700" font-size="2.4" text-anchor="middle" letter-spacing="0" fill="#111111">BACK (print side 2)</text><text x="82" y="112" font-family="Wix Madefor Text" font-weight="500" font-size="2" text-anchor="middle" letter-spacing="0" fill="#111111">drawn as seen from the back: lockup + details set straight</text><text x="83.5" y="86.5" font-family="Wix Madefor Text" font-weight="500" font-size="2" text-anchor="start" letter-spacing="0" fill="#111111">crease (valley from the printed face)</text><text x="82" y="16" font-family="Wix Madefor Text" font-weight="500" font-size="2" text-anchor="middle" letter-spacing="0" fill="#111111">164 x 88 mm; top edge 88 at the ends, 50.6 at the crease</text>
</g>
</svg>
