<?xml version="1.0" encoding="UTF-8"?>
<svg xmlns="http://www.w3.org/2000/svg" width="164mm" height="188mm" viewBox="0 0 164 188">
<title>Sit Down Tanya Andrianova</title>
<g id="layer-cut">
<path d="M0 87.975 L0.001 87.999 L0.025 88 L163.975 88 L163.999 87.999 L164 87.975 L164 0.024 L163.999 0.002 L163.979 0.013 L82.525 50.261 L82.437 50.309 L82.345 50.349 L82.249 50.378 L82.15 50.398 L82.05 50.409 L81.95 50.409 L81.85 50.398 L81.751 50.378 L81.655 50.349 L81.563 50.309 L81.475 50.261 L0.021 0.013 L0.001 0.002 L0 0.024 Z" fill="none" stroke="#e2007a" stroke-width="0.25" stroke-linejoin="round"/><path d="M0 187.975 L0.001 187.999 L0.025 188 L163.975 188 L163.999 187.999 L164 187.975 L164 100.024 L163.999 100.002 L163.979 100.013 L82.525 150.261 L82.437 150.309 L82.345 150.349 L82.249 150.378 L82.15 150.398 L82.05 150.409 L81.95 150.409 L81.85 150.398 L81.751 150.378 L81.655 150.349 L81.563 150.309 L81.475 150.261 L0.021 100.013 L0.001 100.002 L0 100.024 Z" fill="none" stroke="#e2007a" stroke-width="0.25" stroke-linejoin="round"/>
</g>
<g id="layer-crease">
<line x1="82" y1="88" x2="82" y2="50.585" fill="none" stroke="#0072ce" stroke-width="0.3" stroke-dasharray="2.4 1.2" data-fold="valley" data-score="printed face"/><line x1="82" y1="188" x2="82" y2="150.585" fill="none" stroke="#0072ce" stroke-width="0.3" stroke-dasharray="2.4 1.2" data-fold="valley" data-score="front face (appears from the back as a mountain)"/>
</g>
<g id="layer-art">
<path d="M77.016 82.016 C77.042 82.177 77.104 82.443 77.172 82.609 C77.240 82.776 77.339 82.906 77.422 83.016 C77.505 83.125 77.557 83.172 77.672 83.266 C77.786 83.359 77.932 83.490 78.109 83.578 C78.286 83.667 78.573 83.755 78.734 83.797 C78.896 83.839 78.958 83.833 79.078 83.828 C79.198 83.823 79.333 83.797 79.453 83.766 C79.573 83.734 79.609 83.745 79.797 83.641 C79.984 83.536 80.385 83.255 80.578 83.141 C80.771 83.026 80.823 83.005 80.953 82.953 C81.083 82.901 81.161 82.870 81.359 82.828 C81.557 82.786 81.906 82.755 82.141 82.703 C82.375 82.651 82.552 82.599 82.766 82.516 C82.979 82.432 83.104 82.380 83.422 82.203 C83.740 82.026 84.385 81.609 84.672 81.453 C84.958 81.297 85.010 81.307 85.141 81.266 C85.271 81.224 85.307 81.203 85.453 81.203 C85.599 81.203 85.714 81.151 86.016 81.266 C86.318 81.380 87.010 81.776 87.266 81.891 C87.521 82.005 87.432 81.943 87.547 81.953 C87.661 81.964 87.839 81.964 87.953 81.953 C88.068 81.943 88.109 81.932 88.234 81.891 C88.359 81.849 88.562 81.776 88.703 81.703 C88.844 81.630 88.932 81.589 89.078 81.453 C89.224 81.318 89.474 81.026 89.578 80.891 C89.682 80.755 89.661 80.755 89.703 80.641 C89.745 80.526 89.807 80.375 89.828 80.203 C89.849 80.031 89.849 79.797 89.828 79.609 C89.807 79.422 89.766 79.276 89.703 79.078 C89.641 78.880 90.036 79.641 89.453 78.422 C88.870 77.203 86.839 73.026 86.203 71.766 C85.568 70.505 85.807 71.083 85.641 70.859 C85.474 70.635 85.359 70.536 85.203 70.422 C85.047 70.307 84.896 70.219 84.703 70.172 C84.510 70.125 84.224 70.130 84.047 70.141 C83.870 70.151 83.797 70.177 83.641 70.234 C83.484 70.292 83.318 70.359 83.109 70.484 C82.901 70.609 82.594 70.818 82.391 70.984 C82.188 71.151 82.062 71.276 81.891 71.484 C81.719 71.693 81.927 71.130 81.359 72.234 C80.792 73.339 78.995 77.078 78.484 78.109 C77.974 79.141 78.370 78.271 78.297 78.422 C78.224 78.573 78.120 78.865 78.047 79.016 C77.974 79.167 77.974 79.094 77.859 79.328 C77.745 79.562 77.484 80.125 77.359 80.422 C77.234 80.719 77.167 80.906 77.109 81.109 C77.052 81.312 77.031 81.490 77.016 81.641 C77.000 81.792 76.990 81.854 77.016 82.016 Z M83.422 76.766 C83.484 76.729 83.562 76.693 83.641 76.703 C83.719 76.714 83.828 76.781 83.891 76.828 C83.953 76.875 83.974 76.906 84.016 76.984 C84.057 77.062 84.120 77.177 84.141 77.297 C84.161 77.417 84.161 77.583 84.141 77.703 C84.120 77.823 84.078 77.917 84.016 78.016 C83.953 78.115 83.844 78.229 83.766 78.297 C83.688 78.365 83.635 78.396 83.547 78.422 C83.458 78.448 83.318 78.469 83.234 78.453 C83.151 78.438 83.094 78.380 83.047 78.328 C83.000 78.276 82.969 78.250 82.953 78.141 C82.938 78.031 82.932 77.823 82.953 77.672 C82.974 77.521 83.026 77.359 83.078 77.234 C83.130 77.109 83.208 77.000 83.266 76.922 C83.323 76.844 83.359 76.802 83.422 76.766 Z M71.484 77.672 C71.510 78.094 71.568 78.208 71.609 78.391 C71.651 78.573 71.651 78.599 71.734 78.766 C71.818 78.932 71.964 79.214 72.109 79.391 C72.255 79.568 72.464 79.724 72.609 79.828 C72.755 79.932 72.859 79.969 72.984 80.016 C73.109 80.062 73.219 80.099 73.359 80.109 C73.500 80.120 73.698 80.109 73.828 80.078 C73.958 80.047 74.036 80.005 74.141 79.922 C74.245 79.839 74.370 79.708 74.453 79.578 C74.536 79.448 74.589 79.318 74.641 79.141 C74.693 78.964 74.734 78.760 74.766 78.516 C74.797 78.271 74.807 79.312 74.828 77.672 C74.849 76.031 74.901 70.365 74.891 68.672 C74.880 66.979 74.807 67.776 74.766 67.516 C74.724 67.255 74.714 67.271 74.641 67.109 C74.568 66.948 74.453 66.714 74.328 66.547 C74.203 66.380 73.995 66.203 73.891 66.109 C73.786 66.016 73.807 66.036 73.703 65.984 C73.599 65.932 73.417 65.839 73.266 65.797 C73.115 65.755 72.948 65.724 72.797 65.734 C72.646 65.745 72.490 65.786 72.359 65.859 C72.229 65.932 72.120 66.016 72.016 66.172 C71.911 66.328 71.802 66.568 71.734 66.797 C71.667 67.026 71.635 67.146 71.609 67.547 C71.583 67.948 71.589 68.922 71.578 69.203 C71.568 69.484 71.552 68.745 71.547 69.234 C71.542 69.724 71.552 71.651 71.547 72.141 C71.542 72.630 71.521 71.865 71.516 72.172 C71.510 72.479 71.521 73.677 71.516 73.984 C71.510 74.292 71.490 73.708 71.484 74.016 C71.479 74.323 71.490 75.521 71.484 75.828 C71.479 76.135 71.453 75.552 71.453 75.859 C71.453 76.167 71.458 77.250 71.484 77.672 Z M100.016 66.703 C99.932 66.745 99.812 66.812 99.672 66.797 C99.531 66.781 99.370 66.724 99.172 66.609 C98.974 66.495 98.906 66.474 98.484 66.109 C98.062 65.745 97.026 64.766 96.641 64.422 C96.255 64.078 96.328 64.161 96.172 64.047 C96.016 63.932 95.891 63.828 95.703 63.734 C95.516 63.641 95.203 63.531 95.047 63.484 C94.891 63.438 94.891 63.453 94.766 63.453 C94.641 63.453 94.448 63.458 94.297 63.484 C94.146 63.510 94.005 63.552 93.859 63.609 C93.714 63.667 93.599 63.714 93.422 63.828 C93.245 63.943 92.984 64.109 92.797 64.297 C92.609 64.484 92.422 64.734 92.297 64.953 C92.172 65.172 92.109 65.312 92.047 65.609 C91.984 65.906 91.922 64.958 91.922 66.734 C91.922 68.510 92.016 74.589 92.047 76.266 C92.078 77.943 92.073 76.609 92.109 76.797 C92.146 76.984 92.198 77.219 92.266 77.391 C92.333 77.562 92.422 77.714 92.516 77.828 C92.609 77.943 92.734 78.021 92.828 78.078 C92.922 78.135 92.984 78.151 93.078 78.172 C93.172 78.193 93.286 78.208 93.391 78.203 C93.495 78.198 93.578 78.182 93.703 78.141 C93.828 78.099 93.984 78.057 94.141 77.953 C94.297 77.849 94.526 77.630 94.641 77.516 C94.755 77.401 94.766 77.370 94.828 77.266 C94.891 77.161 94.953 77.073 95.016 76.891 C95.078 76.708 95.161 76.411 95.203 76.172 C95.245 75.932 95.255 75.880 95.266 75.453 C95.276 75.026 95.271 73.922 95.266 73.609 C95.260 73.297 95.234 74.062 95.234 73.578 C95.234 73.094 95.240 71.281 95.266 70.703 C95.292 70.125 95.349 70.245 95.391 70.109 C95.432 69.974 95.464 69.958 95.516 69.891 C95.568 69.823 95.646 69.745 95.703 69.703 C95.760 69.661 95.802 69.651 95.859 69.641 C95.917 69.630 95.979 69.630 96.047 69.641 C96.115 69.651 96.141 69.641 96.266 69.703 C96.391 69.766 96.594 69.870 96.797 70.016 C97.000 70.161 97.182 70.307 97.484 70.578 C97.786 70.849 98.276 71.339 98.609 71.641 C98.943 71.943 99.260 72.214 99.484 72.391 C99.708 72.568 99.776 72.609 99.953 72.703 C100.130 72.797 100.385 72.901 100.547 72.953 C100.708 73.005 100.786 73.010 100.922 73.016 C101.057 73.021 101.224 73.005 101.359 72.984 C101.495 72.964 101.583 72.948 101.734 72.891 C101.885 72.833 102.104 72.734 102.266 72.641 C102.427 72.547 102.568 72.443 102.703 72.328 C102.839 72.214 102.964 72.094 103.078 71.953 C103.193 71.812 103.297 71.682 103.391 71.484 C103.484 71.286 103.583 71.031 103.641 70.766 C103.698 70.500 103.745 71.427 103.734 69.891 C103.724 68.354 103.615 63.115 103.578 61.547 C103.542 59.979 103.547 60.797 103.516 60.484 C103.484 60.172 103.453 59.911 103.391 59.672 C103.328 59.432 103.245 59.214 103.141 59.047 C103.036 58.880 102.880 58.755 102.766 58.672 C102.651 58.589 102.578 58.568 102.453 58.547 C102.328 58.526 102.172 58.516 102.016 58.547 C101.859 58.578 101.688 58.630 101.516 58.734 C101.344 58.839 101.104 59.057 100.984 59.172 C100.865 59.286 100.859 59.318 100.797 59.422 C100.734 59.526 100.672 59.599 100.609 59.797 C100.547 59.995 100.458 60.385 100.422 60.609 C100.385 60.833 100.391 60.312 100.391 61.141 C100.391 61.969 100.427 64.760 100.422 65.578 C100.417 66.396 100.385 65.917 100.359 66.047 C100.333 66.177 100.297 66.276 100.266 66.359 C100.234 66.443 100.214 66.490 100.172 66.547 C100.130 66.604 100.099 66.661 100.016 66.703 Z M60.641 71.203 C60.776 71.177 60.797 71.151 60.891 71.078 C60.984 71.005 61.130 70.854 61.203 70.766 C61.276 70.677 61.266 70.703 61.328 70.547 C61.391 70.391 61.516 70.052 61.578 69.828 C61.641 69.604 61.641 69.391 61.703 69.203 C61.766 69.016 61.875 68.812 61.953 68.703 C62.031 68.594 62.094 68.573 62.172 68.547 C62.250 68.521 62.354 68.536 62.422 68.547 C62.490 68.557 62.484 68.536 62.578 68.609 C62.672 68.682 62.812 68.755 62.984 68.984 C63.156 69.214 63.370 69.547 63.609 69.984 C63.849 70.422 64.130 70.990 64.422 71.609 C64.714 72.229 65.130 73.208 65.359 73.703 C65.589 74.198 65.667 74.339 65.797 74.578 C65.927 74.818 66.036 74.984 66.141 75.141 C66.245 75.297 66.323 75.401 66.422 75.516 C66.521 75.630 66.609 75.724 66.734 75.828 C66.859 75.932 67.005 76.047 67.172 76.141 C67.339 76.234 67.609 76.344 67.734 76.391 C67.859 76.438 67.823 76.422 67.922 76.422 C68.021 76.422 68.229 76.411 68.328 76.391 C68.427 76.370 68.464 76.333 68.516 76.297 C68.568 76.260 68.599 76.240 68.641 76.172 C68.682 76.104 68.745 76.036 68.766 75.891 C68.786 75.745 68.807 75.542 68.766 75.297 C68.724 75.052 68.609 74.693 68.516 74.422 C68.422 74.151 68.401 74.104 68.203 73.672 C68.005 73.240 67.516 72.245 67.328 71.828 C67.141 71.411 67.135 71.349 67.078 71.172 C67.021 70.995 66.995 70.932 66.984 70.766 C66.974 70.599 66.984 70.323 67.016 70.172 C67.047 70.021 66.995 70.073 67.172 69.859 C67.349 69.646 67.885 69.115 68.078 68.891 C68.271 68.667 68.245 68.667 68.328 68.516 C68.411 68.365 68.516 68.151 68.578 67.984 C68.641 67.818 68.672 67.693 68.703 67.516 C68.734 67.339 68.766 67.172 68.766 66.922 C68.766 66.672 68.745 66.307 68.703 66.016 C68.661 65.724 68.609 65.479 68.516 65.172 C68.422 64.865 68.286 64.495 68.141 64.172 C67.995 63.849 67.880 63.609 67.641 63.234 C67.401 62.859 67.036 62.328 66.703 61.922 C66.370 61.516 65.995 61.130 65.641 60.797 C65.286 60.464 65.182 60.359 64.578 59.922 C63.974 59.484 62.646 58.578 62.016 58.172 C61.385 57.766 61.094 57.630 60.797 57.484 C60.500 57.339 60.427 57.328 60.234 57.297 C60.042 57.266 59.771 57.286 59.641 57.297 C59.510 57.307 59.542 57.307 59.453 57.359 C59.365 57.411 59.198 57.526 59.109 57.609 C59.021 57.693 58.974 57.771 58.922 57.859 C58.870 57.948 58.849 57.953 58.797 58.141 C58.745 58.328 58.651 58.724 58.609 58.984 C58.568 59.245 58.589 58.094 58.547 59.703 C58.505 61.312 58.380 67.042 58.359 68.641 C58.339 70.240 58.380 69.073 58.422 69.297 C58.464 69.521 58.526 69.781 58.609 69.984 C58.693 70.188 58.781 70.349 58.922 70.516 C59.062 70.682 59.318 70.880 59.453 70.984 C59.589 71.089 59.630 71.099 59.734 71.141 C59.839 71.182 59.927 71.224 60.078 71.234 C60.229 71.245 60.505 71.229 60.641 71.203 Z M63.859 65.422 C63.677 65.339 63.406 65.208 63.172 65.047 C62.938 64.885 62.635 64.641 62.453 64.453 C62.271 64.266 62.161 64.062 62.078 63.922 C61.995 63.781 61.984 63.719 61.953 63.609 C61.922 63.500 61.901 63.370 61.891 63.266 C61.880 63.161 61.875 63.099 61.891 62.984 C61.906 62.870 61.953 62.677 61.984 62.578 C62.016 62.479 62.031 62.453 62.078 62.391 C62.125 62.328 62.188 62.250 62.266 62.203 C62.344 62.156 62.469 62.125 62.547 62.109 C62.625 62.094 62.641 62.094 62.734 62.109 C62.828 62.125 62.922 62.115 63.109 62.203 C63.297 62.292 63.620 62.464 63.859 62.641 C64.099 62.818 64.380 63.094 64.547 63.266 C64.714 63.438 64.755 63.490 64.859 63.672 C64.964 63.854 65.115 64.214 65.172 64.359 C65.229 64.505 65.203 64.427 65.203 64.547 C65.203 64.667 65.214 64.938 65.172 65.078 C65.130 65.219 65.042 65.312 64.953 65.391 C64.865 65.469 64.755 65.521 64.641 65.547 C64.526 65.573 64.396 65.568 64.266 65.547 C64.135 65.526 64.042 65.505 63.859 65.422 Z M109.484 53.547 C109.234 53.818 109.057 53.995 108.734 54.422 C108.411 54.849 107.870 55.599 107.547 56.109 C107.224 56.620 107.016 57.031 106.797 57.484 C106.578 57.938 106.401 58.359 106.234 58.828 C106.068 59.297 105.911 59.781 105.797 60.297 C105.682 60.812 105.583 61.406 105.547 61.922 C105.510 62.438 105.557 63.047 105.578 63.391 C105.599 63.734 105.625 63.771 105.672 63.984 C105.719 64.198 105.776 64.443 105.859 64.672 C105.943 64.901 106.078 65.177 106.172 65.359 C106.266 65.542 106.307 65.615 106.422 65.766 C106.536 65.917 106.688 66.109 106.859 66.266 C107.031 66.422 107.266 66.589 107.453 66.703 C107.641 66.818 107.818 66.891 107.984 66.953 C108.151 67.016 108.307 67.047 108.453 67.078 C108.599 67.109 108.672 67.130 108.859 67.141 C109.047 67.151 109.333 67.161 109.578 67.141 C109.823 67.120 110.099 67.068 110.328 67.016 C110.557 66.964 110.630 66.964 110.953 66.828 C111.276 66.693 111.932 66.380 112.266 66.203 C112.599 66.026 112.641 65.995 112.953 65.766 C113.266 65.536 113.807 65.115 114.141 64.828 C114.474 64.542 114.641 64.380 114.953 64.047 C115.266 63.714 115.651 63.302 116.016 62.828 C116.380 62.354 116.818 61.729 117.141 61.203 C117.464 60.677 117.745 60.104 117.953 59.672 C118.161 59.240 118.245 59.031 118.391 58.609 C118.536 58.188 118.724 57.562 118.828 57.141 C118.932 56.719 118.974 56.365 119.016 56.078 C119.057 55.792 119.068 55.719 119.078 55.422 C119.089 55.125 119.089 54.583 119.078 54.297 C119.068 54.010 119.047 53.906 119.016 53.703 C118.984 53.500 118.943 53.281 118.891 53.078 C118.839 52.875 118.776 52.672 118.703 52.484 C118.630 52.297 118.547 52.120 118.453 51.953 C118.359 51.786 118.260 51.635 118.141 51.484 C118.021 51.333 117.870 51.172 117.734 51.047 C117.599 50.922 117.490 50.833 117.328 50.734 C117.167 50.635 116.943 50.526 116.766 50.453 C116.589 50.380 116.417 50.333 116.266 50.297 C116.115 50.260 116.062 50.245 115.859 50.234 C115.656 50.224 115.344 50.203 115.047 50.234 C114.750 50.266 114.380 50.339 114.078 50.422 C113.776 50.505 113.479 50.630 113.234 50.734 C112.990 50.839 112.880 50.891 112.609 51.047 C112.339 51.203 111.781 51.557 111.609 51.672 C111.438 51.786 111.714 51.630 111.578 51.734 C111.443 51.839 111.021 52.120 110.797 52.297 C110.573 52.474 110.453 52.589 110.234 52.797 C110.016 53.005 109.734 53.276 109.484 53.547 Z M113.078 62.297 C112.896 62.469 112.911 62.443 112.766 62.547 C112.620 62.651 112.448 62.797 112.203 62.922 C111.958 63.047 111.505 63.224 111.297 63.297 C111.089 63.370 111.078 63.349 110.953 63.359 C110.828 63.370 110.693 63.380 110.547 63.359 C110.401 63.339 110.224 63.297 110.078 63.234 C109.932 63.172 109.776 63.062 109.672 62.984 C109.568 62.906 109.531 62.865 109.453 62.766 C109.375 62.667 109.276 62.536 109.203 62.391 C109.130 62.245 109.068 62.109 109.016 61.891 C108.964 61.672 108.906 61.365 108.891 61.078 C108.875 60.792 108.891 60.479 108.922 60.172 C108.953 59.865 109.021 59.500 109.078 59.234 C109.135 58.969 109.161 58.865 109.266 58.578 C109.370 58.292 109.557 57.823 109.703 57.516 C109.849 57.208 109.964 57.010 110.141 56.734 C110.318 56.458 110.526 56.146 110.766 55.859 C111.005 55.573 111.344 55.234 111.578 55.016 C111.812 54.797 111.958 54.693 112.172 54.547 C112.385 54.401 112.620 54.250 112.859 54.141 C113.099 54.031 113.396 53.938 113.609 53.891 C113.823 53.844 113.974 53.849 114.141 53.859 C114.307 53.870 114.453 53.891 114.609 53.953 C114.766 54.016 114.943 54.125 115.078 54.234 C115.214 54.344 115.312 54.427 115.422 54.609 C115.531 54.792 115.661 55.078 115.734 55.328 C115.807 55.578 115.839 55.875 115.859 56.109 C115.880 56.344 115.880 56.469 115.859 56.734 C115.839 57.000 115.786 57.417 115.734 57.703 C115.682 57.990 115.641 58.161 115.547 58.453 C115.453 58.745 115.307 59.146 115.172 59.453 C115.036 59.760 114.901 60.016 114.734 60.297 C114.568 60.578 114.318 60.938 114.172 61.141 C114.026 61.344 114.042 61.323 113.859 61.516 C113.677 61.708 113.260 62.125 113.078 62.297 Z M76.047 62.516 C76.188 62.682 76.438 62.880 76.578 62.984 C76.719 63.089 76.781 63.099 76.891 63.141 C77.000 63.182 77.094 63.224 77.234 63.234 C77.375 63.245 77.625 63.219 77.734 63.203 C77.844 63.188 77.812 63.193 77.891 63.141 C77.969 63.089 78.120 62.979 78.203 62.891 C78.286 62.802 78.328 62.750 78.391 62.609 C78.453 62.469 78.526 62.302 78.578 62.047 C78.630 61.792 78.672 61.453 78.703 61.078 C78.734 60.703 78.734 60.125 78.766 59.797 C78.797 59.469 78.844 59.286 78.891 59.109 C78.938 58.932 79.005 58.812 79.047 58.734 C79.089 58.656 79.094 58.667 79.141 58.641 C79.188 58.615 79.271 58.578 79.328 58.578 C79.385 58.578 79.406 58.578 79.484 58.641 C79.562 58.703 79.693 58.823 79.797 58.953 C79.901 59.083 79.859 58.943 80.109 59.422 C80.359 59.901 81.016 61.297 81.297 61.828 C81.578 62.359 81.651 62.401 81.797 62.609 C81.943 62.818 81.953 62.854 82.172 63.078 C82.391 63.302 82.828 63.734 83.109 63.953 C83.391 64.172 83.656 64.297 83.859 64.391 C84.062 64.484 84.161 64.495 84.328 64.516 C84.495 64.536 84.724 64.526 84.859 64.516 C84.995 64.505 85.010 64.495 85.141 64.453 C85.271 64.411 85.474 64.349 85.641 64.266 C85.807 64.182 85.974 64.078 86.141 63.953 C86.307 63.828 86.505 63.661 86.641 63.516 C86.776 63.370 86.870 63.214 86.953 63.078 C87.036 62.943 87.089 62.839 87.141 62.703 C87.193 62.568 87.229 62.474 87.266 62.266 C87.302 62.057 87.354 63.146 87.359 61.453 C87.365 59.760 87.323 53.807 87.297 52.109 C87.271 50.411 87.229 51.448 87.203 51.266 C87.177 51.083 87.188 51.135 87.141 51.016 C87.094 50.896 87.005 50.672 86.922 50.547 C86.839 50.422 86.745 50.339 86.641 50.266 C86.536 50.193 86.438 50.135 86.297 50.109 C86.156 50.083 85.917 50.099 85.797 50.109 C85.677 50.120 85.677 50.130 85.578 50.172 C85.479 50.214 85.307 50.297 85.203 50.359 C85.099 50.422 85.057 50.443 84.953 50.547 C84.849 50.651 84.667 50.865 84.578 50.984 C84.490 51.104 84.479 51.125 84.422 51.266 C84.365 51.406 84.281 51.599 84.234 51.828 C84.188 52.057 84.161 51.802 84.141 52.641 C84.120 53.479 84.125 56.052 84.109 56.859 C84.094 57.667 84.089 57.281 84.047 57.484 C84.005 57.688 83.927 57.943 83.859 58.078 C83.792 58.214 83.703 58.250 83.641 58.297 C83.578 58.344 83.536 58.349 83.484 58.359 C83.432 58.370 83.406 58.380 83.328 58.359 C83.250 58.339 83.115 58.286 83.016 58.234 C82.917 58.182 82.849 58.151 82.734 58.047 C82.620 57.943 82.448 57.760 82.328 57.609 C82.208 57.458 82.203 57.490 82.016 57.141 C81.828 56.792 81.609 56.401 81.203 55.516 C80.797 54.630 79.911 52.562 79.578 51.828 C79.245 51.094 79.328 51.323 79.203 51.109 C79.078 50.896 78.995 50.745 78.828 50.547 C78.661 50.349 78.359 50.062 78.203 49.922 C78.047 49.781 78.016 49.776 77.891 49.703 C77.766 49.630 77.599 49.542 77.453 49.484 C77.307 49.427 77.151 49.380 77.016 49.359 C76.880 49.339 76.771 49.333 76.641 49.359 C76.510 49.385 76.344 49.453 76.234 49.516 C76.125 49.578 76.047 49.667 75.984 49.734 C75.922 49.802 75.911 49.812 75.859 49.922 C75.807 50.031 75.724 50.177 75.672 50.391 C75.620 50.604 75.568 50.932 75.547 51.203 C75.526 51.474 75.552 51.875 75.547 52.016 C75.542 52.156 75.531 50.656 75.516 52.047 C75.500 53.438 75.458 58.880 75.453 60.359 C75.448 61.839 75.458 60.708 75.484 60.922 C75.510 61.135 75.568 61.464 75.609 61.641 C75.651 61.818 75.661 61.839 75.734 61.984 C75.807 62.130 75.906 62.349 76.047 62.516 Z M46.422 62.391 C47.005 62.818 48.490 63.797 49.109 64.203 C49.729 64.609 49.865 64.672 50.141 64.828 C50.417 64.984 50.495 65.026 50.766 65.141 C51.036 65.255 51.505 65.432 51.766 65.516 C52.026 65.599 52.135 65.609 52.328 65.641 C52.521 65.672 52.693 65.703 52.922 65.703 C53.151 65.703 53.464 65.682 53.703 65.641 C53.943 65.599 54.161 65.531 54.359 65.453 C54.557 65.375 54.740 65.266 54.891 65.172 C55.042 65.078 55.115 65.042 55.266 64.891 C55.417 64.740 55.630 64.526 55.797 64.266 C55.964 64.005 56.146 63.656 56.266 63.328 C56.385 63.000 56.464 62.578 56.516 62.297 C56.568 62.016 56.568 61.865 56.578 61.641 C56.589 61.417 56.589 61.188 56.578 60.953 C56.568 60.719 56.557 60.531 56.516 60.234 C56.474 59.938 56.432 59.589 56.328 59.172 C56.224 58.755 56.057 58.193 55.891 57.734 C55.724 57.276 55.526 56.828 55.328 56.422 C55.130 56.016 54.964 55.714 54.703 55.297 C54.443 54.880 54.120 54.380 53.766 53.922 C53.411 53.464 52.943 52.932 52.578 52.547 C52.214 52.161 52.005 51.964 51.578 51.609 C51.151 51.255 50.443 50.734 50.016 50.422 C49.589 50.109 49.370 49.964 49.016 49.734 C48.661 49.505 48.224 49.219 47.891 49.047 C47.557 48.875 47.240 48.766 47.016 48.703 C46.792 48.641 46.667 48.667 46.547 48.672 C46.427 48.677 46.391 48.693 46.297 48.734 C46.203 48.776 46.078 48.844 45.984 48.922 C45.891 49.000 45.818 49.052 45.734 49.203 C45.651 49.354 45.547 49.594 45.484 49.828 C45.422 50.062 45.438 49.130 45.359 50.609 C45.281 52.089 45.068 57.099 45.016 58.703 C44.964 60.307 45.031 59.922 45.047 60.234 C45.062 60.547 45.068 60.427 45.109 60.578 C45.151 60.729 45.214 60.964 45.297 61.141 C45.380 61.318 45.422 61.432 45.609 61.641 C45.797 61.849 45.839 61.964 46.422 62.391 Z M53.234 59.984 C53.224 60.203 53.214 60.250 53.172 60.422 C53.130 60.594 53.068 60.833 52.984 61.016 C52.901 61.198 52.797 61.375 52.672 61.516 C52.547 61.656 52.359 61.781 52.234 61.859 C52.109 61.938 52.005 61.958 51.922 61.984 C51.839 62.010 51.885 62.016 51.734 62.016 C51.583 62.016 51.234 62.021 51.016 61.984 C50.797 61.948 50.604 61.870 50.422 61.797 C50.240 61.724 50.115 61.661 49.922 61.547 C49.729 61.432 49.469 61.271 49.266 61.109 C49.062 60.948 48.854 60.771 48.703 60.578 C48.552 60.385 48.443 60.198 48.359 59.953 C48.276 59.708 48.229 59.448 48.203 59.109 C48.177 58.771 48.182 58.599 48.203 57.922 C48.224 57.245 48.297 55.625 48.328 55.047 C48.359 54.469 48.359 54.641 48.391 54.453 C48.422 54.266 48.474 54.052 48.516 53.922 C48.557 53.792 48.583 53.750 48.641 53.672 C48.698 53.594 48.802 53.500 48.859 53.453 C48.917 53.406 48.891 53.406 48.984 53.391 C49.078 53.375 49.240 53.318 49.422 53.359 C49.604 53.401 49.859 53.510 50.078 53.641 C50.297 53.771 50.521 53.953 50.734 54.141 C50.948 54.328 51.120 54.479 51.359 54.766 C51.599 55.052 51.964 55.536 52.172 55.859 C52.380 56.182 52.495 56.458 52.609 56.703 C52.724 56.948 52.776 57.073 52.859 57.328 C52.943 57.583 53.047 57.938 53.109 58.234 C53.172 58.531 53.214 58.818 53.234 59.109 C53.255 59.401 53.245 59.766 53.234 59.984 Z M61.484 53.203 C61.599 53.339 61.807 53.547 61.984 53.672 C62.161 53.797 62.401 53.896 62.547 53.953 C62.693 54.010 62.755 54.005 62.859 54.016 C62.964 54.026 63.068 54.026 63.172 54.016 C63.276 54.005 63.380 53.984 63.484 53.953 C63.589 53.922 63.599 53.932 63.797 53.828 C63.995 53.724 64.490 53.422 64.672 53.328 C64.854 53.234 64.776 53.276 64.891 53.266 C65.005 53.255 65.240 53.255 65.359 53.266 C65.479 53.276 65.495 53.286 65.609 53.328 C65.724 53.370 65.865 53.422 66.047 53.516 C66.229 53.609 66.302 53.630 66.703 53.891 C67.104 54.151 68.109 54.839 68.453 55.078 C68.797 55.318 68.635 55.203 68.766 55.328 C68.896 55.453 69.094 55.641 69.234 55.828 C69.375 56.016 69.432 56.031 69.609 56.453 C69.786 56.875 70.109 57.922 70.297 58.359 C70.484 58.797 70.583 58.885 70.734 59.078 C70.885 59.271 71.052 59.401 71.203 59.516 C71.354 59.630 71.495 59.703 71.641 59.766 C71.786 59.828 71.964 59.870 72.078 59.891 C72.193 59.911 72.245 59.901 72.328 59.891 C72.411 59.880 72.505 59.859 72.578 59.828 C72.651 59.797 72.708 59.755 72.766 59.703 C72.823 59.651 72.870 59.620 72.922 59.516 C72.974 59.411 73.052 59.250 73.078 59.078 C73.104 58.906 73.099 58.698 73.078 58.484 C73.057 58.271 73.161 58.568 72.953 57.797 C72.745 57.026 72.016 54.536 71.828 53.859 C71.641 53.182 71.839 53.771 71.828 53.734 C71.818 53.698 71.786 53.714 71.766 53.641 C71.745 53.568 71.724 53.370 71.703 53.297 C71.682 53.224 71.693 53.380 71.641 53.203 C71.589 53.026 71.443 52.411 71.391 52.234 C71.339 52.057 71.359 52.245 71.328 52.141 C71.297 52.036 71.286 51.885 71.203 51.609 C71.120 51.333 70.995 51.047 70.828 50.484 C70.661 49.922 70.318 48.625 70.203 48.234 C70.089 47.844 70.161 48.214 70.141 48.141 C70.120 48.068 70.099 47.870 70.078 47.797 C70.057 47.724 70.036 47.776 70.016 47.703 C69.995 47.630 69.974 47.432 69.953 47.359 C69.932 47.286 69.911 47.339 69.891 47.266 C69.870 47.193 69.849 46.995 69.828 46.922 C69.807 46.849 69.786 46.901 69.766 46.828 C69.745 46.755 69.724 46.557 69.703 46.484 C69.682 46.411 69.661 46.464 69.641 46.391 C69.620 46.318 69.630 46.229 69.578 46.047 C69.526 45.865 69.422 45.536 69.328 45.297 C69.234 45.057 69.109 44.786 69.016 44.609 C68.922 44.432 68.911 44.401 68.766 44.234 C68.620 44.068 68.344 43.776 68.141 43.609 C67.938 43.443 67.724 43.328 67.547 43.234 C67.370 43.141 67.203 43.089 67.078 43.047 C66.953 43.005 66.917 42.995 66.797 42.984 C66.677 42.974 66.474 42.974 66.359 42.984 C66.245 42.995 66.240 42.984 66.109 43.047 C65.979 43.109 65.708 43.266 65.578 43.359 C65.448 43.453 65.448 43.453 65.328 43.609 C65.208 43.766 65.448 43.182 64.859 44.297 C64.271 45.411 62.380 49.130 61.797 50.297 C61.214 51.464 61.453 51.057 61.359 51.297 C61.266 51.536 61.266 51.573 61.234 51.734 C61.203 51.896 61.161 52.078 61.172 52.266 C61.182 52.453 61.245 52.703 61.297 52.859 C61.349 53.016 61.370 53.068 61.484 53.203 Z M67.422 50.672 C67.339 50.698 67.193 50.688 67.109 50.672 C67.026 50.656 66.990 50.625 66.922 50.578 C66.854 50.531 66.771 50.474 66.703 50.391 C66.635 50.307 66.552 50.193 66.516 50.078 C66.479 49.964 66.474 49.823 66.484 49.703 C66.495 49.583 66.542 49.448 66.578 49.359 C66.615 49.271 66.646 49.229 66.703 49.172 C66.760 49.115 66.844 49.042 66.922 49.016 C67.000 48.990 67.115 49.005 67.172 49.016 C67.229 49.026 67.214 49.026 67.266 49.078 C67.318 49.130 67.427 49.240 67.484 49.328 C67.542 49.417 67.578 49.521 67.609 49.609 C67.641 49.698 67.661 49.729 67.672 49.859 C67.682 49.990 67.682 50.281 67.672 50.391 C67.661 50.500 67.651 50.469 67.609 50.516 C67.568 50.562 67.505 50.646 67.422 50.672 Z M97.172 43.953 C96.984 44.401 96.370 45.964 96.109 46.578 C95.849 47.193 95.745 47.391 95.609 47.641 C95.474 47.891 95.396 47.969 95.297 48.078 C95.198 48.188 95.089 48.250 95.016 48.297 C94.943 48.344 94.948 48.349 94.859 48.359 C94.771 48.370 94.578 48.370 94.484 48.359 C94.391 48.349 94.406 48.359 94.297 48.297 C94.188 48.234 94.083 48.193 93.828 47.984 C93.573 47.776 92.995 47.234 92.766 47.047 C92.536 46.859 92.599 46.922 92.453 46.859 C92.307 46.797 92.083 46.703 91.891 46.672 C91.698 46.641 91.469 46.651 91.297 46.672 C91.125 46.693 91.016 46.734 90.859 46.797 C90.703 46.859 90.536 46.922 90.359 47.047 C90.182 47.172 89.922 47.417 89.797 47.547 C89.672 47.677 89.661 47.724 89.609 47.828 C89.557 47.932 89.505 48.021 89.484 48.172 C89.464 48.323 89.453 48.557 89.484 48.734 C89.516 48.911 89.589 49.073 89.672 49.234 C89.755 49.396 89.870 49.552 89.984 49.703 C90.099 49.854 89.974 49.740 90.359 50.141 C90.745 50.542 91.901 51.698 92.297 52.109 C92.693 52.521 92.599 52.432 92.734 52.609 C92.870 52.786 93.016 53.005 93.109 53.172 C93.203 53.339 93.245 53.458 93.297 53.609 C93.349 53.760 93.391 53.922 93.422 54.078 C93.453 54.234 93.464 54.193 93.484 54.547 C93.505 54.901 93.526 55.844 93.547 56.203 C93.568 56.562 93.578 56.542 93.609 56.703 C93.641 56.865 93.677 57.026 93.734 57.172 C93.792 57.318 93.880 57.474 93.953 57.578 C94.026 57.682 94.083 57.734 94.172 57.797 C94.260 57.859 94.401 57.922 94.484 57.953 C94.568 57.984 94.562 57.984 94.672 57.984 C94.781 57.984 94.958 58.010 95.141 57.953 C95.323 57.896 95.578 57.776 95.766 57.641 C95.953 57.505 96.130 57.333 96.266 57.141 C96.401 56.948 96.505 56.698 96.578 56.484 C96.651 56.271 96.677 56.500 96.703 55.859 C96.729 55.219 96.703 53.370 96.734 52.641 C96.766 51.911 96.802 51.875 96.891 51.484 C96.979 51.094 96.807 51.427 97.266 50.297 C97.724 49.167 99.172 45.833 99.641 44.703 C100.109 43.573 99.984 43.807 100.078 43.516 C100.172 43.224 100.182 43.135 100.203 42.953 C100.224 42.771 100.214 42.547 100.203 42.422 C100.193 42.297 100.172 42.271 100.141 42.203 C100.109 42.135 100.089 42.078 100.016 42.016 C99.943 41.953 99.807 41.865 99.703 41.828 C99.599 41.792 99.547 41.771 99.391 41.797 C99.234 41.823 98.948 41.901 98.766 41.984 C98.583 42.068 98.458 42.156 98.297 42.297 C98.135 42.438 97.953 42.620 97.797 42.828 C97.641 43.036 97.453 43.370 97.359 43.547 C97.266 43.724 97.266 43.823 97.234 43.891 C97.203 43.958 97.359 43.505 97.172 43.953 Z M32.484 45.703 C32.464 46.083 32.432 45.984 32.422 46.172 C32.411 46.359 32.432 46.646 32.422 46.828 C32.411 47.010 32.370 47.099 32.359 47.266 C32.349 47.432 32.391 47.318 32.359 47.828 C32.328 48.339 32.198 49.719 32.172 50.328 C32.146 50.938 32.182 51.203 32.203 51.484 C32.224 51.766 32.260 51.870 32.297 52.016 C32.333 52.161 32.349 52.219 32.422 52.359 C32.495 52.500 32.646 52.740 32.734 52.859 C32.823 52.979 32.849 53.000 32.953 53.078 C33.057 53.156 33.234 53.271 33.359 53.328 C33.484 53.385 33.594 53.406 33.703 53.422 C33.812 53.438 33.911 53.438 34.016 53.422 C34.120 53.406 34.245 53.365 34.328 53.328 C34.411 53.292 34.432 53.292 34.516 53.203 C34.599 53.115 34.745 52.953 34.828 52.797 C34.911 52.641 34.964 52.458 35.016 52.266 C35.068 52.073 35.099 51.943 35.141 51.641 C35.182 51.339 35.214 50.781 35.266 50.453 C35.318 50.125 35.385 49.859 35.453 49.672 C35.521 49.484 35.615 49.396 35.672 49.328 C35.729 49.260 35.740 49.266 35.797 49.266 C35.854 49.266 35.917 49.250 36.016 49.328 C36.115 49.406 36.240 49.500 36.391 49.734 C36.542 49.969 36.708 50.266 36.922 50.734 C37.135 51.203 37.547 52.229 37.672 52.547 C37.797 52.865 37.630 52.531 37.672 52.641 C37.714 52.750 37.703 52.630 37.922 53.203 C38.141 53.776 38.698 55.380 38.984 56.078 C39.271 56.776 39.484 57.109 39.641 57.391 C39.797 57.672 39.812 57.641 39.922 57.766 C40.031 57.891 40.156 58.026 40.297 58.141 C40.438 58.255 40.578 58.365 40.766 58.453 C40.953 58.542 41.260 58.635 41.422 58.672 C41.583 58.708 41.641 58.682 41.734 58.672 C41.828 58.661 41.896 58.646 41.984 58.609 C42.073 58.573 42.167 58.542 42.266 58.453 C42.365 58.365 42.495 58.224 42.578 58.078 C42.661 57.932 42.714 57.766 42.766 57.578 C42.818 57.391 42.849 57.370 42.891 56.953 C42.932 56.536 42.984 55.802 43.016 55.078 C43.047 54.354 43.057 53.130 43.078 52.609 C43.099 52.089 43.130 52.208 43.141 51.953 C43.151 51.698 43.120 51.609 43.141 51.078 C43.161 50.547 43.245 49.339 43.266 48.766 C43.286 48.193 43.276 47.922 43.266 47.641 C43.255 47.359 43.234 47.250 43.203 47.078 C43.172 46.906 43.151 46.781 43.078 46.609 C43.005 46.438 42.859 46.182 42.766 46.047 C42.672 45.911 42.620 45.880 42.516 45.797 C42.411 45.714 42.266 45.609 42.141 45.547 C42.016 45.484 41.896 45.443 41.766 45.422 C41.635 45.401 41.495 45.391 41.359 45.422 C41.224 45.453 41.068 45.526 40.953 45.609 C40.839 45.693 40.760 45.766 40.672 45.922 C40.583 46.078 40.484 46.333 40.422 46.547 C40.359 46.760 40.339 46.891 40.297 47.203 C40.255 47.516 40.224 48.089 40.172 48.422 C40.120 48.755 40.031 49.042 39.984 49.203 C39.938 49.365 39.938 49.328 39.891 49.391 C39.844 49.453 39.781 49.552 39.703 49.578 C39.625 49.604 39.536 49.630 39.422 49.547 C39.307 49.464 39.156 49.292 39.016 49.078 C38.875 48.865 38.828 48.828 38.578 48.266 C38.328 47.703 37.693 46.146 37.516 45.703 C37.339 45.260 37.630 45.911 37.516 45.609 C37.401 45.307 36.943 44.193 36.828 43.891 C36.714 43.589 36.880 43.943 36.828 43.797 C36.776 43.651 36.578 43.156 36.516 43.016 C36.453 42.875 36.464 42.979 36.453 42.953 C36.443 42.927 36.547 43.062 36.453 42.859 C36.359 42.656 36.078 42.036 35.891 41.734 C35.703 41.432 35.526 41.234 35.328 41.047 C35.130 40.859 34.911 40.714 34.703 40.609 C34.495 40.505 34.224 40.453 34.078 40.422 C33.932 40.391 33.911 40.411 33.828 40.422 C33.745 40.432 33.677 40.438 33.578 40.484 C33.479 40.531 33.328 40.620 33.234 40.703 C33.141 40.786 33.089 40.844 33.016 40.984 C32.943 41.125 32.854 41.339 32.797 41.547 C32.740 41.755 32.714 41.844 32.672 42.234 C32.630 42.625 32.578 43.312 32.547 43.891 C32.516 44.469 32.505 45.323 32.484 45.703 Z M128.484 42.359 C128.443 42.500 128.516 42.359 128.484 42.484 C128.453 42.609 128.536 42.083 128.297 43.109 C128.057 44.135 127.307 47.562 127.047 48.641 C126.786 49.719 126.828 49.354 126.734 49.578 C126.641 49.802 126.573 49.885 126.484 49.984 C126.396 50.083 126.281 50.141 126.203 50.172 C126.125 50.203 126.068 50.182 126.016 50.172 C125.964 50.161 125.995 50.203 125.891 50.109 C125.786 50.016 125.557 49.833 125.391 49.609 C125.224 49.385 125.151 49.260 124.891 48.766 C124.630 48.271 124.057 47.073 123.828 46.641 C123.599 46.208 123.630 46.312 123.516 46.172 C123.401 46.031 123.234 45.880 123.141 45.797 C123.047 45.714 123.057 45.719 122.953 45.672 C122.849 45.625 122.672 45.542 122.516 45.516 C122.359 45.490 122.156 45.500 122.016 45.516 C121.875 45.531 121.818 45.542 121.672 45.609 C121.526 45.677 121.281 45.818 121.141 45.922 C121.000 46.026 120.927 46.094 120.828 46.234 C120.729 46.375 120.604 46.630 120.547 46.766 C120.490 46.901 120.495 46.927 120.484 47.047 C120.474 47.167 120.464 47.323 120.484 47.484 C120.505 47.646 120.557 47.844 120.609 48.016 C120.661 48.188 120.620 48.141 120.797 48.516 C120.974 48.891 121.109 49.182 121.672 50.266 C122.234 51.349 123.661 54.094 124.172 55.016 C124.682 55.938 124.578 55.615 124.734 55.797 C124.891 55.979 124.995 56.031 125.109 56.109 C125.224 56.188 125.328 56.229 125.422 56.266 C125.516 56.302 125.557 56.318 125.672 56.328 C125.786 56.339 125.938 56.359 126.109 56.328 C126.281 56.297 126.536 56.214 126.703 56.141 C126.870 56.068 126.943 56.026 127.109 55.891 C127.276 55.755 127.562 55.484 127.703 55.328 C127.844 55.172 127.849 55.167 127.953 54.953 C128.057 54.740 128.224 54.354 128.328 54.047 C128.432 53.740 128.432 53.740 128.578 53.109 C128.724 52.479 129.078 50.802 129.203 50.266 C129.328 49.729 129.297 50.021 129.328 49.891 C129.359 49.760 129.359 49.615 129.391 49.484 C129.422 49.354 129.443 49.411 129.516 49.109 C129.589 48.807 129.682 48.276 129.828 47.672 C129.974 47.068 130.286 45.917 130.391 45.484 C130.495 45.052 130.422 45.208 130.453 45.078 C130.484 44.948 130.547 44.833 130.578 44.703 C130.609 44.573 130.609 44.427 130.641 44.297 C130.672 44.167 130.682 44.271 130.766 43.922 C130.849 43.573 131.068 42.562 131.141 42.203 C131.214 41.844 131.193 41.948 131.203 41.766 C131.214 41.583 131.214 41.260 131.203 41.109 C131.193 40.958 131.172 40.943 131.141 40.859 C131.109 40.776 131.068 40.682 131.016 40.609 C130.964 40.536 130.901 40.474 130.828 40.422 C130.755 40.370 130.693 40.318 130.578 40.297 C130.464 40.276 130.250 40.286 130.141 40.297 C130.031 40.307 130.016 40.318 129.922 40.359 C129.828 40.401 129.724 40.427 129.578 40.547 C129.432 40.667 129.188 40.896 129.047 41.078 C128.906 41.260 128.828 41.427 128.734 41.641 C128.641 41.854 128.526 42.219 128.484 42.359 Z M106.828 36.984 C106.708 37.109 106.750 37.036 106.641 37.234 C106.531 37.432 106.302 37.844 106.172 38.172 C106.042 38.500 105.953 38.854 105.859 39.203 C105.766 39.552 105.661 40.073 105.609 40.266 C105.557 40.458 105.578 40.245 105.547 40.359 C105.516 40.474 105.453 40.839 105.422 40.953 C105.391 41.068 105.370 41.010 105.359 41.047 C105.349 41.083 105.401 41.021 105.359 41.172 C105.318 41.323 105.151 41.802 105.109 41.953 C105.068 42.104 105.120 42.042 105.109 42.078 C105.099 42.115 105.057 42.135 105.047 42.172 C105.036 42.208 105.161 41.875 105.047 42.297 C104.932 42.719 104.484 44.286 104.359 44.703 C104.234 45.120 104.339 44.651 104.297 44.797 C104.255 44.943 104.151 45.432 104.109 45.578 C104.068 45.724 104.057 45.635 104.047 45.672 C104.036 45.708 104.078 45.682 104.047 45.797 C104.016 45.911 103.891 46.245 103.859 46.359 C103.828 46.474 103.880 46.406 103.859 46.484 C103.839 46.562 103.755 46.750 103.734 46.828 C103.714 46.906 103.755 46.875 103.734 46.953 C103.714 47.031 103.630 47.219 103.609 47.297 C103.589 47.375 103.734 46.943 103.609 47.422 C103.484 47.901 103.005 49.599 102.859 50.172 C102.714 50.745 102.755 50.635 102.734 50.859 C102.714 51.083 102.703 51.323 102.734 51.516 C102.766 51.708 102.833 51.891 102.922 52.016 C103.010 52.141 103.161 52.214 103.266 52.266 C103.370 52.318 103.432 52.328 103.547 52.328 C103.661 52.328 103.812 52.312 103.953 52.266 C104.094 52.219 104.245 52.146 104.391 52.047 C104.536 51.948 104.719 51.781 104.828 51.672 C104.938 51.562 104.964 51.521 105.047 51.391 C105.130 51.260 105.177 51.271 105.328 50.891 C105.479 50.510 105.818 49.469 105.953 49.109 C106.089 48.750 106.057 48.870 106.141 48.734 C106.224 48.599 106.250 48.500 106.453 48.297 C106.656 48.094 106.990 47.792 107.359 47.516 C107.729 47.240 108.276 46.880 108.672 46.641 C109.068 46.401 109.521 46.182 109.734 46.078 C109.948 45.974 109.844 46.031 109.953 46.016 C110.062 46.000 110.255 45.974 110.391 45.984 C110.526 45.995 110.615 46.010 110.766 46.078 C110.917 46.146 111.104 46.292 111.297 46.391 C111.490 46.490 111.698 46.620 111.922 46.672 C112.146 46.724 112.453 46.719 112.641 46.703 C112.828 46.688 112.896 46.651 113.047 46.578 C113.198 46.505 113.417 46.365 113.547 46.266 C113.677 46.167 113.740 46.104 113.828 45.984 C113.917 45.865 114.021 45.677 114.078 45.547 C114.135 45.417 114.156 45.344 114.172 45.203 C114.188 45.062 114.188 44.859 114.172 44.703 C114.156 44.547 114.135 44.448 114.078 44.266 C114.021 44.083 114.411 44.771 113.828 43.609 C113.245 42.448 111.214 38.484 110.578 37.297 C109.943 36.109 110.161 36.667 110.016 36.484 C109.870 36.302 109.823 36.286 109.703 36.203 C109.583 36.120 109.406 36.031 109.297 35.984 C109.188 35.938 109.167 35.932 109.047 35.922 C108.927 35.911 108.698 35.911 108.578 35.922 C108.458 35.932 108.469 35.932 108.328 35.984 C108.188 36.036 107.896 36.151 107.734 36.234 C107.573 36.318 107.510 36.359 107.359 36.484 C107.208 36.609 106.948 36.859 106.828 36.984 Z M108.672 43.203 C108.609 43.281 108.557 43.318 108.484 43.359 C108.411 43.401 108.318 43.443 108.234 43.453 C108.151 43.464 108.052 43.453 107.984 43.422 C107.917 43.391 107.865 43.318 107.828 43.266 C107.792 43.214 107.776 43.208 107.766 43.109 C107.755 43.010 107.755 42.786 107.766 42.672 C107.776 42.557 107.771 42.542 107.828 42.422 C107.885 42.302 108.031 42.047 108.109 41.953 C108.188 41.859 108.240 41.875 108.297 41.859 C108.354 41.844 108.380 41.823 108.453 41.859 C108.526 41.896 108.667 42.000 108.734 42.078 C108.802 42.156 108.833 42.260 108.859 42.328 C108.885 42.396 108.891 42.391 108.891 42.484 C108.891 42.578 108.896 42.771 108.859 42.891 C108.823 43.010 108.734 43.125 108.672 43.203 Z M137.734 35.047 C137.573 35.193 137.297 35.464 137.141 35.672 C136.984 35.880 136.885 36.104 136.797 36.297 C136.708 36.490 136.693 36.505 136.609 36.828 C136.526 37.151 136.359 37.979 136.297 38.234 C136.234 38.490 136.245 38.312 136.234 38.359 C136.224 38.406 136.255 38.422 136.234 38.516 C136.214 38.609 136.151 38.740 136.109 38.922 C136.068 39.104 136.016 39.474 135.984 39.609 C135.953 39.745 135.932 39.688 135.922 39.734 C135.911 39.781 135.964 39.714 135.922 39.891 C135.880 40.068 135.714 40.620 135.672 40.797 C135.630 40.974 135.818 40.354 135.672 40.953 C135.526 41.552 135.089 43.146 134.797 44.391 C134.505 45.635 134.078 47.667 133.922 48.422 C133.766 49.177 133.870 48.755 133.859 48.922 C133.849 49.089 133.849 49.286 133.859 49.422 C133.870 49.557 133.880 49.625 133.922 49.734 C133.964 49.844 134.057 50.000 134.109 50.078 C134.161 50.156 134.167 50.161 134.234 50.203 C134.302 50.245 134.406 50.307 134.516 50.328 C134.625 50.349 134.792 50.339 134.891 50.328 C134.990 50.318 135.031 50.297 135.109 50.266 C135.188 50.234 135.250 50.214 135.359 50.141 C135.469 50.068 135.656 49.932 135.766 49.828 C135.875 49.724 135.932 49.641 136.016 49.516 C136.099 49.391 136.182 49.266 136.266 49.078 C136.349 48.891 136.432 48.656 136.516 48.391 C136.599 48.125 136.656 47.771 136.766 47.484 C136.875 47.198 137.068 46.854 137.172 46.672 C137.276 46.490 137.266 46.521 137.391 46.391 C137.516 46.260 137.583 46.151 137.922 45.891 C138.260 45.630 139.036 45.078 139.422 44.828 C139.807 44.578 140.031 44.479 140.234 44.391 C140.438 44.302 140.526 44.312 140.641 44.297 C140.755 44.281 140.812 44.281 140.922 44.297 C141.031 44.312 141.068 44.292 141.297 44.391 C141.526 44.490 142.083 44.797 142.297 44.891 C142.510 44.984 142.448 44.948 142.578 44.953 C142.708 44.958 142.943 44.943 143.078 44.922 C143.214 44.901 143.255 44.896 143.391 44.828 C143.526 44.760 143.760 44.620 143.891 44.516 C144.021 44.411 144.089 44.328 144.172 44.203 C144.255 44.078 144.344 43.880 144.391 43.766 C144.438 43.651 144.443 43.635 144.453 43.516 C144.464 43.396 144.464 43.177 144.453 43.047 C144.443 42.917 144.443 42.901 144.391 42.734 C144.339 42.568 144.266 42.328 144.141 42.047 C144.016 41.766 143.755 41.260 143.641 41.047 C143.526 40.833 143.526 40.901 143.453 40.766 C143.380 40.630 143.276 40.370 143.203 40.234 C143.130 40.099 143.411 40.682 143.016 39.953 C142.620 39.224 141.255 36.635 140.828 35.859 C140.401 35.083 140.578 35.458 140.453 35.297 C140.328 35.135 140.193 34.995 140.078 34.891 C139.964 34.786 139.870 34.729 139.766 34.672 C139.661 34.615 139.589 34.573 139.453 34.547 C139.318 34.521 139.109 34.505 138.953 34.516 C138.797 34.526 138.656 34.562 138.516 34.609 C138.375 34.656 138.240 34.724 138.109 34.797 C137.979 34.870 137.896 34.901 137.734 35.047 Z M139.172 41.422 C139.120 41.510 139.036 41.568 138.984 41.609 C138.932 41.651 138.917 41.661 138.859 41.672 C138.802 41.682 138.708 41.703 138.641 41.672 C138.573 41.641 138.495 41.573 138.453 41.484 C138.411 41.396 138.385 41.260 138.391 41.141 C138.396 41.021 138.453 40.854 138.484 40.766 C138.516 40.677 138.536 40.661 138.578 40.609 C138.620 40.557 138.682 40.484 138.734 40.453 C138.786 40.422 138.833 40.411 138.891 40.422 C138.948 40.432 139.026 40.474 139.078 40.516 C139.130 40.557 139.167 40.578 139.203 40.672 C139.240 40.766 139.302 40.953 139.297 41.078 C139.292 41.203 139.224 41.333 139.172 41.422 Z M23.641 35.172 C23.542 35.286 23.896 34.589 23.359 35.547 C22.823 36.505 21.016 39.818 20.422 40.922 C19.828 42.026 19.932 41.875 19.797 42.172 C19.661 42.469 19.651 42.562 19.609 42.703 C19.568 42.844 19.557 42.880 19.547 43.016 C19.536 43.151 19.536 43.391 19.547 43.516 C19.557 43.641 19.557 43.646 19.609 43.766 C19.661 43.885 19.766 44.104 19.859 44.234 C19.953 44.365 20.057 44.458 20.172 44.547 C20.286 44.635 20.411 44.708 20.547 44.766 C20.682 44.823 20.849 44.870 20.984 44.891 C21.120 44.911 21.250 44.901 21.359 44.891 C21.469 44.880 21.521 44.870 21.641 44.828 C21.760 44.786 21.938 44.714 22.078 44.641 C22.219 44.568 22.359 44.453 22.484 44.391 C22.609 44.328 22.729 44.292 22.828 44.266 C22.927 44.240 22.974 44.234 23.078 44.234 C23.182 44.234 23.359 44.250 23.453 44.266 C23.547 44.281 23.484 44.255 23.641 44.328 C23.797 44.401 24.026 44.474 24.391 44.703 C24.755 44.932 25.526 45.484 25.828 45.703 C26.130 45.922 26.062 45.880 26.203 46.016 C26.344 46.151 26.562 46.385 26.672 46.516 C26.781 46.646 26.786 46.661 26.859 46.797 C26.932 46.932 27.016 47.057 27.109 47.328 C27.203 47.599 27.328 48.130 27.422 48.422 C27.516 48.714 27.568 48.870 27.672 49.078 C27.776 49.286 27.938 49.526 28.047 49.672 C28.156 49.818 28.219 49.865 28.328 49.953 C28.438 50.042 28.583 50.141 28.703 50.203 C28.823 50.266 28.911 50.307 29.047 50.328 C29.182 50.349 29.380 50.359 29.516 50.328 C29.651 50.297 29.766 50.229 29.859 50.141 C29.953 50.052 30.031 49.891 30.078 49.797 C30.125 49.703 30.130 49.760 30.141 49.578 C30.151 49.396 30.182 49.062 30.141 48.703 C30.099 48.344 29.943 47.656 29.891 47.422 C29.839 47.188 29.922 47.708 29.828 47.297 C29.734 46.885 29.422 45.365 29.328 44.953 C29.234 44.542 29.276 44.875 29.266 44.828 C29.255 44.781 29.297 44.807 29.266 44.672 C29.234 44.536 29.109 44.151 29.078 44.016 C29.047 43.880 29.193 44.328 29.078 43.859 C28.964 43.391 28.505 41.672 28.391 41.203 C28.276 40.734 28.411 41.135 28.391 41.047 C28.370 40.958 28.432 41.375 28.266 40.672 C28.099 39.969 27.599 37.620 27.391 36.828 C27.182 36.036 27.120 36.135 27.016 35.922 C26.911 35.708 26.891 35.693 26.766 35.547 C26.641 35.401 26.411 35.172 26.266 35.047 C26.120 34.922 26.021 34.870 25.891 34.797 C25.760 34.724 25.620 34.656 25.484 34.609 C25.349 34.562 25.234 34.526 25.078 34.516 C24.922 34.505 24.698 34.516 24.547 34.547 C24.396 34.578 24.271 34.651 24.172 34.703 C24.073 34.755 24.042 34.781 23.953 34.859 C23.865 34.938 23.740 35.057 23.641 35.172 Z M25.484 40.859 C25.510 40.943 25.516 40.990 25.516 41.078 C25.516 41.167 25.526 41.302 25.484 41.391 C25.443 41.479 25.339 41.573 25.266 41.609 C25.193 41.646 25.104 41.620 25.047 41.609 C24.990 41.599 24.969 41.583 24.922 41.547 C24.875 41.510 24.812 41.458 24.766 41.391 C24.719 41.323 24.661 41.234 24.641 41.141 C24.620 41.047 24.630 40.911 24.641 40.828 C24.651 40.745 24.651 40.714 24.703 40.641 C24.755 40.568 24.870 40.427 24.953 40.391 C25.036 40.354 25.135 40.391 25.203 40.422 C25.271 40.453 25.312 40.505 25.359 40.578 C25.406 40.651 25.458 40.776 25.484 40.859 Z M50.172 33.672 C50.115 33.760 50.047 33.896 50.016 34.016 C49.984 34.135 49.979 34.276 49.984 34.391 C49.990 34.505 50.016 34.604 50.047 34.703 C50.078 34.802 50.120 34.891 50.172 34.984 C50.224 35.078 50.255 35.146 50.359 35.266 C50.464 35.385 50.500 35.474 50.797 35.703 C51.094 35.932 51.833 36.406 52.141 36.641 C52.448 36.875 52.500 36.938 52.641 37.109 C52.781 37.281 52.906 37.500 52.984 37.672 C53.062 37.844 53.078 37.896 53.109 38.141 C53.141 38.385 53.167 38.969 53.172 39.141 C53.177 39.312 53.151 38.792 53.141 39.172 C53.130 39.552 53.141 40.396 53.109 41.422 C53.078 42.448 52.974 44.438 52.953 45.328 C52.932 46.219 52.958 46.427 52.984 46.766 C53.010 47.104 53.052 47.182 53.109 47.359 C53.167 47.536 53.266 47.714 53.328 47.828 C53.391 47.943 53.385 47.943 53.484 48.047 C53.583 48.151 53.755 48.344 53.922 48.453 C54.089 48.562 54.349 48.656 54.484 48.703 C54.620 48.750 54.641 48.734 54.734 48.734 C54.828 48.734 54.948 48.729 55.047 48.703 C55.146 48.677 55.240 48.635 55.328 48.578 C55.417 48.521 55.505 48.443 55.578 48.359 C55.651 48.276 55.703 48.229 55.766 48.078 C55.828 47.927 55.901 47.781 55.953 47.453 C56.005 47.125 56.036 47.094 56.078 46.109 C56.120 45.125 56.172 42.396 56.203 41.547 C56.234 40.698 56.234 41.182 56.266 41.016 C56.297 40.849 56.349 40.667 56.391 40.547 C56.432 40.427 56.469 40.365 56.516 40.297 C56.562 40.229 56.604 40.188 56.672 40.141 C56.740 40.094 56.802 40.036 56.922 40.016 C57.042 39.995 57.120 39.964 57.391 40.016 C57.661 40.068 58.312 40.276 58.547 40.328 C58.781 40.380 58.688 40.349 58.797 40.328 C58.906 40.307 59.089 40.266 59.203 40.203 C59.318 40.141 59.411 40.052 59.484 39.953 C59.557 39.854 59.615 39.760 59.641 39.609 C59.667 39.458 59.651 39.177 59.641 39.047 C59.630 38.917 59.651 38.964 59.578 38.828 C59.505 38.693 59.401 38.448 59.203 38.234 C59.005 38.021 59.120 38.036 58.391 37.547 C57.661 37.057 55.656 35.807 54.828 35.297 C54.000 34.786 53.766 34.693 53.422 34.484 C53.078 34.276 53.052 34.214 52.766 34.047 C52.479 33.880 51.969 33.604 51.703 33.484 C51.438 33.365 51.359 33.349 51.172 33.328 C50.984 33.307 50.714 33.333 50.578 33.359 C50.443 33.385 50.427 33.432 50.359 33.484 C50.292 33.536 50.229 33.583 50.172 33.672 Z" fill="#111111" fill-rule="evenodd" stroke="none"/>
</g>
<g id="layer-text">
<text x="14.844" y="162" font-family="Wix Madefor Text" font-weight="700" font-size="4.798" text-anchor="start" letter-spacing="0" fill="#111111">COLORBLOCK</text>
<text x="51.532" y="161.48" font-family="Wix Madefor Text" font-weight="600" font-size="3.351" text-anchor="start" letter-spacing="0" fill="#111111">×</text>
<text x="56.289" y="162" font-family="Wix Madefor Text" font-weight="700" font-size="4.798" text-anchor="start" letter-spacing="0" fill="#111111">DNA</text>
<text x="123" y="160" font-family="Wix Madefor Text" font-weight="600" font-size="3.351" text-anchor="middle" letter-spacing="0.034" fill="#111111">Dinner · 10 oct 2026 · 18:00</text>
<text x="123" y="164.692" font-family="Wix Madefor Text" font-weight="600" font-size="3.351" text-anchor="middle" letter-spacing="0.034" fill="#111111">DNA Kitchen, Samokatnaya 4s53</text>
</g>
<g id="layer-guides">
<path d="M3.001 84.999 L161 85 L161 5.398 L84.1 52.814 L83.97 52.89 L83.882 52.938 L83.611 53.07 L83.518 53.109 L83.235 53.213 L83.139 53.243 L82.848 53.318 L82.749 53.338 L82.451 53.383 L82.351 53.393 L82.05 53.409 L81.95 53.409 L81.649 53.393 L81.549 53.383 L81.251 53.338 L81.152 53.318 L80.861 53.243 L80.765 53.213 L80.482 53.109 L80.389 53.07 L80.118 52.938 L80.03 52.89 L79.9 52.814 L3.019 5.387 Z" fill="none" stroke="#1a9850" stroke-width="0.2" stroke-dasharray="0.5 1" /><path d="M3.001 184.999 L161 185 L161 105.398 L84.1 152.814 L83.97 152.89 L83.882 152.938 L83.611 153.07 L83.518 153.109 L83.235 153.213 L83.139 153.243 L82.848 153.318 L82.749 153.338 L82.451 153.383 L82.351 153.393 L82.05 153.409 L81.95 153.409 L81.649 153.393 L81.549 153.383 L81.251 153.338 L81.152 153.318 L80.861 153.243 L80.765 153.213 L80.482 153.109 L80.389 153.07 L80.118 152.938 L80.03 152.89 L79.9 152.814 L3.019 105.387 Z" fill="none" stroke="#1a9850" stroke-width="0.2" stroke-dasharray="0.5 1" /><text x="82" y="8" font-family="Wix Madefor Text" font-weight="700" font-size="2.4" text-anchor="middle" letter-spacing="0" fill="#111111">FRONT (print side 1)</text><text x="82" y="12" font-family="Wix Madefor Text" font-weight="500" font-size="2" text-anchor="middle" letter-spacing="0" fill="#111111">name warped for the seat: eye 430 up, 450 away, V open 90 deg</text><text x="82" y="108" font-family="Wix Madefor Text" font-weight="700" font-size="2.4" text-anchor="middle" letter-spacing="0" fill="#111111">BACK (print side 2)</text><text x="82" y="112" font-family="Wix Madefor Text" font-weight="500" font-size="2" text-anchor="middle" letter-spacing="0" fill="#111111">drawn as seen from the back: lockup + details set straight</text><text x="83.5" y="86.5" font-family="Wix Madefor Text" font-weight="500" font-size="2" text-anchor="start" letter-spacing="0" fill="#111111">crease (valley from the printed face)</text><text x="82" y="16" font-family="Wix Madefor Text" font-weight="500" font-size="2" text-anchor="middle" letter-spacing="0" fill="#111111">164 x 88 mm; top edge 88 at the ends, 50.6 at the crease</text>
</g>
</svg>
