<?xml version="1.0" encoding="UTF-8"?>
<svg xmlns="http://www.w3.org/2000/svg" width="132.625mm" height="135.661mm" viewBox="0 0 132.625 135.661">
<g id="layer-cut" fill="none" stroke="#e5007d" stroke-width="0.25" stroke-linejoin="round"><path d="M0.024 96.824C-0.023 97.326 0 97.836 0 98.34C0 98.654 -0.028 98.981 0.006 99.293C0.017 99.392 0.049 99.486 0.058 99.586C0.074 99.779 0.047 99.975 0.069 100.168C0.08 100.267 0.112 100.361 0.12 100.461C0.331 102.966 1.128 105.656 2.57 107.746C2.763 108.026 2.981 108.282 3.203 108.537C3.282 108.627 3.345 108.729 3.426 108.816C3.812 109.232 4.267 109.597 4.741 109.908C4.885 110.002 5.024 110.105 5.177 110.184C5.387 110.293 5.599 110.399 5.813 110.502C5.95 110.568 6.092 110.618 6.213 110.714C6.464 110.912 6.588 111.208 6.594 111.523C6.605 112.201 6.594 112.882 6.594 113.561C6.594 114.879 6.594 116.198 6.594 117.517C6.594 121.473 6.594 125.429 6.594 129.386C6.594 130.824 6.594 132.263 6.594 133.702C6.594 133.901 6.594 134.101 6.594 134.301C6.594 134.731 6.597 135.136 6.959 135.434C7.284 135.7 7.68 135.661 8.073 135.661C8.313 135.661 8.553 135.661 8.793 135.661C10.272 135.661 11.751 135.661 13.23 135.661C19.146 135.661 25.062 135.661 30.978 135.661C53.962 135.661 76.947 135.661 99.931 135.661C106.407 135.661 112.882 135.661 119.358 135.661C120.997 135.661 122.636 135.661 124.275 135.661C124.554 135.661 124.834 135.661 125.114 135.661C125.508 135.661 125.903 135.7 126.228 135.434C126.624 135.109 126.594 134.648 126.594 134.183C126.594 133.466 126.594 132.75 126.594 132.033C126.594 128.808 126.594 125.583 126.594 122.358C126.594 119.691 126.594 117.023 126.594 114.356C126.594 113.48 126.594 112.604 126.594 111.728C126.594 111.45 126.594 111.171 126.594 110.892C126.594 110.738 126.584 110.579 126.615 110.427C126.685 110.091 126.884 109.961 127.092 109.733C127.166 109.652 127.223 109.558 127.284 109.468C127.615 108.976 127.806 108.433 127.967 107.866C128.248 106.875 128.453 105.863 128.701 104.863C129.398 102.053 130.067 99.236 130.764 96.426C131.162 94.822 131.553 93.217 131.951 91.613C132.096 91.03 132.244 90.447 132.389 89.863C132.477 89.508 132.58 89.154 132.619 88.788C132.673 88.282 132.638 87.646 132.318 87.226C132.091 86.926 131.698 86.69 131.32 86.649C131.204 86.636 131.085 86.643 130.969 86.643C130.854 86.643 130.735 86.636 130.62 86.649C130.205 86.693 129.766 86.946 129.474 87.237C129.416 87.295 129.374 87.368 129.324 87.432C129.046 87.792 128.857 88.189 128.698 88.613C128.56 88.982 128.497 89.368 128.138 89.602C127.621 89.937 126.904 89.713 126.67 89.144C126.543 88.835 126.594 88.465 126.594 88.14C126.594 87.461 126.594 86.782 126.594 86.102C126.594 83.745 126.594 81.388 126.594 79.031C126.594 70.96 126.594 62.889 126.594 54.818C126.594 41.554 126.594 28.289 126.594 15.024C126.594 11.508 126.594 7.992 126.594 4.476C126.594 3.557 126.594 2.638 126.594 1.719C126.594 1.3 126.671 0.813 126.425 0.444C126.129 0.001 125.713 0 125.234 0C125.034 0 124.834 0 124.634 0C123.075 0 121.517 0 119.958 0C113.362 0 106.767 0 100.171 0C76.907 0 53.643 0 30.378 0C24.542 0 18.706 0 12.87 0C11.431 0 9.992 0 8.553 0C8.353 0 8.153 0 7.954 0C7.558 0 7.187 -0.007 6.887 0.293C6.557 0.622 6.594 1.05 6.594 1.48C6.594 1.719 6.594 1.959 6.594 2.199C6.594 3.797 6.594 5.395 6.594 6.994C6.594 13.507 6.594 20.02 6.594 26.534C6.594 39.92 6.594 53.306 6.594 66.692C6.594 70.968 6.594 75.243 6.594 79.519C6.594 80.918 6.594 82.316 6.594 83.715C6.594 84.154 6.594 84.594 6.594 85.033C6.594 85.26 6.618 85.502 6.575 85.725C6.438 86.437 5.729 86.513 5.188 86.783C4.948 86.904 4.693 87.011 4.463 87.15C4.04 87.406 3.665 87.711 3.293 88.034C3.209 88.107 3.107 88.166 3.027 88.246C2.93 88.343 2.857 88.457 2.766 88.561C2.676 88.665 2.571 88.755 2.483 88.862C1.334 90.251 0.566 92.683 0.302 94.442C0.271 94.648 0.216 94.851 0.193 95.06C0.166 95.315 0.142 95.569 0.12 95.825C0.112 95.924 0.08 96.018 0.069 96.117C0.05 96.29 0.072 96.465 0.058 96.638C0.04 96.84 0.054 96.596 0.024 96.824ZM4.48 101.277C4.4 100.906 4.335 100.534 4.266 100.161C4.248 100.063 4.255 99.965 4.244 99.867C4.232 99.769 4.201 99.674 4.192 99.575C4.18 99.423 4.198 99.27 4.181 99.118C4.17 99.019 4.138 98.925 4.13 98.825C4.108 98.562 4.125 98.291 4.125 98.026C4.125 97.797 4.111 97.564 4.13 97.336C4.138 97.237 4.17 97.143 4.181 97.044C4.198 96.892 4.18 96.738 4.192 96.586C4.201 96.487 4.232 96.394 4.244 96.295C4.255 96.196 4.249 96.098 4.266 95.999C4.339 95.58 4.432 95.163 4.516 94.744C4.582 94.415 4.703 94.047 4.972 93.833C5.484 93.426 6.269 93.63 6.518 94.235C6.63 94.51 6.594 94.824 6.594 95.114C6.594 95.509 6.594 95.905 6.594 96.301C6.594 97.527 6.594 98.753 6.594 99.979C6.594 100.335 6.594 100.691 6.594 101.047C6.594 101.304 6.625 101.584 6.55 101.834C6.35 102.499 5.515 102.76 4.972 102.328C4.657 102.078 4.576 101.648 4.48 101.277Z"/></g>
<g id="layer-crease" fill="none" stroke="#00a0e9" stroke-width="0.25" stroke-dasharray="2 1.2"><path d="M6.594 49.661 L126.594 49.661"/><path d="M1.926 89.661 L127.157 89.661M128.032 89.661 L132.441 89.661"/></g>
<g id="layer-art" fill="#000000" fill-rule="evenodd" stroke="none"><path d="M41.406 27.433C41.563 27.546 41.37 27.353 41.524 27.496C41.654 27.617 41.638 27.766 41.664 27.924C41.674 27.988 41.701 28.047 41.711 28.112C41.753 28.368 41.703 28.606 41.831 28.862C42.036 29.27 42.635 29.368 42.961 29.042C43.29 28.713 43.219 27.98 43.219 27.549C43.219 26.299 43.219 25.049 43.219 23.799C43.219 23.329 43.14 22.648 42.531 22.613C42.03 22.584 41.747 22.953 41.72 23.424C41.712 23.569 41.734 23.718 41.711 23.862C41.701 23.926 41.674 23.985 41.664 24.049C41.638 24.205 41.669 24.346 41.57 24.485C41.52 24.556 41.469 24.557 41.406 24.602C41.252 24.586 41.436 24.634 41.281 24.603C40.994 24.543 40.761 24.195 40.586 23.987C40.475 23.854 40.338 23.744 40.226 23.612C40.009 23.353 39.794 23.086 39.531 22.869C39.208 22.602 38.673 22.441 38.281 22.639C37.774 22.896 38.092 23.417 38.322 23.737C38.438 23.897 38.585 24.023 38.711 24.174C38.78 24.256 38.834 24.346 38.908 24.424C39.007 24.53 39.118 24.625 39.211 24.737C39.319 24.864 39.412 24.992 39.531 25.112C39.747 25.327 40.141 25.787 40.141 26.112C40.141 26.395 39.838 26.73 39.658 26.924C39.585 27.003 39.53 27.092 39.461 27.174C39.369 27.284 39.256 27.376 39.164 27.487C38.973 27.714 38.781 27.939 38.6 28.174C38.395 28.44 38.177 28.913 38.531 29.151C38.85 29.364 39.369 29.234 39.656 29.027C39.951 28.815 40.183 28.511 40.414 28.237C40.507 28.125 40.618 28.03 40.717 27.924C40.876 27.755 41.001 27.561 41.219 27.455C41.288 27.421 41.336 27.441 41.406 27.433ZM26.969 25.596C27.144 25.679 26.915 25.523 27.092 25.636C27.336 25.792 27.462 26.285 27.552 26.549C27.685 26.945 27.815 27.341 27.948 27.737C28.056 28.054 28.147 28.374 28.297 28.674C28.35 28.78 28.397 28.895 28.476 28.985C28.726 29.269 29.209 29.419 29.531 29.165C30.041 28.763 29.629 27.979 29.469 27.487C29.42 27.337 29.359 27.196 29.303 27.049C29.216 26.823 29.159 26.587 29.072 26.362C28.937 26.009 28.813 25.652 28.678 25.299C28.469 24.753 28.315 24.143 28.079 23.612C27.889 23.182 27.775 22.778 27.281 22.612C27.199 22.584 27.119 22.555 27.031 22.551C26.942 22.547 26.866 22.566 26.781 22.59C26.719 22.608 26.653 22.614 26.594 22.641C26.234 22.804 26.027 23.19 25.906 23.549C25.716 24.116 25.517 24.679 25.303 25.237C25.193 25.524 25.12 25.825 25.01 26.112C24.844 26.545 24.675 26.983 24.531 27.424C24.389 27.863 23.987 28.684 24.367 29.09C24.737 29.485 25.365 29.216 25.578 28.799C25.754 28.456 25.866 28.101 25.989 27.737C26.123 27.341 26.252 26.945 26.386 26.549C26.475 26.285 26.602 25.792 26.845 25.636C27.023 25.523 26.793 25.679 26.969 25.596ZM45.614 28.737C45.646 28.592 45.688 28.445 45.711 28.299C45.731 28.177 45.719 28.047 45.719 27.924C45.719 27.695 45.719 27.466 45.719 27.237C45.719 26.716 45.719 26.195 45.719 25.674C45.719 25.195 45.719 24.716 45.719 24.237C45.719 24.014 45.747 23.769 45.711 23.549C45.686 23.39 45.641 23.124 45.565 22.987C45.287 22.489 44.588 22.489 44.31 22.987C44.245 23.104 44.234 23.233 44.212 23.362C44.2 23.426 44.174 23.485 44.164 23.549C44.144 23.671 44.156 23.801 44.156 23.924C44.156 24.153 44.156 24.382 44.156 24.612C44.156 25.466 44.156 26.32 44.156 27.174C44.156 27.669 44.105 28.194 44.241 28.674C44.353 29.074 44.809 29.392 45.219 29.187C45.415 29.088 45.522 28.924 45.614 28.737ZM50.219 25.595C50.151 25.57 50.096 25.57 50.033 25.526C49.87 25.412 49.687 25.095 49.573 24.924C49.424 24.699 49.272 24.473 49.142 24.237C48.896 23.787 48.549 23.131 48.156 22.807C47.959 22.643 47.662 22.536 47.406 22.551C46.951 22.576 46.621 22.981 46.595 23.424C46.569 23.879 46.594 24.343 46.594 24.799C46.594 25.716 46.594 26.632 46.594 27.549C46.594 27.974 46.518 28.81 46.908 29.088C47.289 29.361 47.909 29.237 48.025 28.737C48.044 28.654 48.073 28.57 48.086 28.487C48.106 28.365 48.094 28.234 48.094 28.112C48.094 27.821 48.079 27.526 48.095 27.237C48.1 27.149 48.135 27.072 48.149 26.987C48.184 26.767 48.11 26.485 48.29 26.308C48.433 26.168 48.258 26.356 48.406 26.247C48.58 26.304 48.354 26.181 48.531 26.267C48.775 26.386 48.93 26.708 49.073 26.924C49.316 27.29 49.53 27.675 49.76 28.049C49.97 28.391 50.153 28.78 50.469 29.042C50.666 29.205 50.963 29.312 51.219 29.298C51.649 29.273 52.005 28.916 52.03 28.487C52.057 28.011 52.031 27.526 52.031 27.049C52.031 26.112 52.031 25.174 52.031 24.237C52.031 23.764 52.15 22.979 51.656 22.703C51.225 22.462 50.71 22.697 50.6 23.174C50.576 23.277 50.539 23.381 50.533 23.487C50.512 23.838 50.531 24.197 50.531 24.549C50.531 24.692 50.547 24.845 50.524 24.987C50.514 25.051 50.487 25.11 50.476 25.174C50.456 25.287 50.453 25.387 50.383 25.485C50.322 25.57 50.287 25.549 50.219 25.595ZM62.844 29.188C62.972 29.091 63.093 29.011 63.169 28.862C63.217 28.769 63.257 28.652 63.274 28.549C63.306 28.349 63.281 28.127 63.281 27.924C63.281 27.487 63.281 27.049 63.281 26.612C63.281 25.799 63.281 24.987 63.281 24.174C63.281 23.789 63.35 23.34 63.169 22.987C63.064 22.781 62.825 22.597 62.594 22.557C62.51 22.542 62.427 22.55 62.344 22.527C62.002 22.436 61.403 22.487 61.031 22.487C60.664 22.487 60.124 22.436 59.781 22.527C59.698 22.55 59.615 22.543 59.531 22.556C59.378 22.582 59.218 22.657 59.101 22.758C59.032 22.818 58.991 22.904 58.955 22.987C58.792 23.354 59.064 23.704 59.406 23.819C59.533 23.862 59.652 23.848 59.781 23.869C59.889 23.886 59.982 23.923 60.094 23.924C60.714 23.931 61.773 23.725 61.717 24.674C61.697 25.013 61.342 25.217 61.031 25.235C60.703 25.254 60.356 25.192 60.031 25.244C59.967 25.254 59.908 25.281 59.844 25.292C59.418 25.366 59.088 25.489 59.094 25.987C59.098 26.333 59.4 26.552 59.719 26.604C59.801 26.618 59.886 26.606 59.969 26.619C60.054 26.633 60.131 26.668 60.219 26.673C60.525 26.69 60.854 26.629 61.156 26.682C61.524 26.745 61.822 27.112 61.695 27.487C61.621 27.705 61.38 27.878 61.156 27.917C61.035 27.937 60.904 27.924 60.781 27.924C60.552 27.924 60.323 27.921 60.094 27.924C59.925 27.926 59.763 27.978 59.594 27.988C59.218 28.01 58.845 28.336 58.914 28.737C58.966 29.04 59.239 29.244 59.531 29.292C59.615 29.305 59.698 29.298 59.781 29.321C60.097 29.405 60.456 29.362 60.781 29.362C61.094 29.362 61.406 29.362 61.719 29.362C61.882 29.362 62.058 29.38 62.219 29.354C62.283 29.344 62.342 29.317 62.406 29.306C62.49 29.293 62.574 29.303 62.656 29.276C62.722 29.254 62.781 29.217 62.844 29.188ZM34.906 29.319C35.334 29.163 35.761 28.927 36.094 28.61C36.595 28.132 36.977 27.293 37.086 26.612C37.119 26.411 37.094 26.189 37.094 25.987C37.094 25.764 37.122 25.519 37.086 25.299C36.977 24.618 36.595 23.779 36.094 23.301C35.606 22.836 34.94 22.538 34.281 22.431C34.14 22.409 33.987 22.424 33.844 22.424C33.681 22.424 33.505 22.405 33.344 22.431C33.09 22.472 32.835 22.541 32.594 22.633C32.209 22.781 31.883 23.01 31.594 23.299C31.491 23.401 31.382 23.5 31.289 23.612C30.861 24.123 30.643 24.776 30.539 25.424C30.509 25.605 30.531 25.804 30.531 25.987C30.531 26.149 30.513 26.325 30.539 26.487C30.594 26.831 30.685 27.23 30.829 27.549C31.015 27.958 31.278 28.296 31.594 28.612C32.137 29.155 32.885 29.487 33.656 29.487C33.859 29.487 34.081 29.512 34.281 29.479C34.494 29.445 34.702 29.387 34.906 29.319ZM33.656 27.986C32.994 27.91 32.472 27.422 32.261 26.799C32.227 26.698 32.181 26.593 32.164 26.487C32.15 26.404 32.162 26.319 32.149 26.237C32.135 26.151 32.097 26.075 32.097 25.987C32.097 25.898 32.135 25.822 32.149 25.737C32.162 25.654 32.15 25.569 32.164 25.487C32.18 25.384 32.211 25.274 32.24 25.174C32.41 24.593 32.91 24.032 33.531 23.931C33.689 23.906 33.872 23.916 34.031 23.926C34.181 23.934 34.335 24 34.469 24.065C35.093 24.37 35.362 24.892 35.476 25.549C35.491 25.634 35.525 25.711 35.53 25.799C35.537 25.919 35.543 26.055 35.524 26.174C35.514 26.238 35.487 26.297 35.476 26.362C35.462 26.446 35.47 26.529 35.447 26.612C35.27 27.245 34.776 27.868 34.094 27.979C33.952 28.002 33.799 27.987 33.656 27.986ZM56.156 24.728C56.092 24.728 56.034 24.742 55.969 24.728C55.773 24.682 55.501 24.335 55.385 24.174C55.19 23.904 54.997 23.632 54.803 23.362C54.682 23.194 54.564 23.003 54.406 22.869C54.239 22.728 54.054 22.652 53.844 22.606C53.782 22.592 53.72 22.564 53.656 22.564C53.546 22.564 53.379 22.612 53.281 22.661C52.962 22.824 53.005 23.206 53.116 23.487C53.303 23.961 54.052 24.616 54.03 25.112C54.017 25.387 53.828 25.587 53.678 25.799C53.461 26.105 53.242 26.476 53.22 26.862C53.184 27.49 53.251 27.975 53.65 28.487C53.715 28.569 53.766 28.659 53.845 28.729C54.184 29.03 54.649 29.22 55.094 29.292C55.259 29.318 55.429 29.28 55.594 29.306C55.658 29.317 55.717 29.344 55.781 29.354C55.942 29.38 56.118 29.362 56.281 29.362C56.464 29.362 56.663 29.383 56.844 29.354C56.908 29.344 56.967 29.317 57.031 29.306C57.136 29.29 57.24 29.306 57.344 29.277C58.02 29.087 58.031 28.444 58.031 27.862C58.031 26.903 58.031 25.945 58.031 24.987C58.031 24.51 58.057 24.025 58.03 23.549C58.025 23.461 57.991 23.384 57.976 23.299C57.965 23.236 57.966 23.173 57.945 23.112C57.825 22.756 57.455 22.556 57.094 22.619C56.824 22.666 56.584 22.975 56.539 23.237C56.521 23.34 56.541 23.446 56.524 23.549C56.51 23.635 56.475 23.711 56.47 23.799C56.456 24.052 56.508 24.317 56.377 24.549C56.319 24.652 56.245 24.669 56.156 24.728ZM55.406 27.856C55.275 27.805 55.142 27.762 55.033 27.667C54.938 27.584 54.883 27.479 54.844 27.362C54.7 26.931 55.019 26.616 55.406 26.487C55.569 26.432 55.736 26.398 55.906 26.446C56.533 26.622 56.665 27.399 56.156 27.79C56.096 27.836 56.041 27.851 55.969 27.867C55.715 27.926 55.659 27.919 55.406 27.856ZM48.562 63.512C46.968 63.972 46.631 65.642 46.167 67.018C46.076 67.288 45.995 67.558 45.916 67.831C45.781 68.292 45.613 68.744 45.478 69.206C45.307 69.793 45.087 70.368 44.916 70.956C44.781 71.419 44.594 71.867 44.459 72.331C44.269 72.981 44.024 73.617 43.834 74.268C43.522 75.338 43.157 76.395 42.812 77.456C42.677 77.872 42.538 78.286 42.416 78.706C42.301 79.101 42.14 79.486 42.07 79.893C42.052 79.998 42.024 80.101 42.007 80.206C41.991 80.309 42.009 80.415 41.993 80.518C41.979 80.603 41.941 80.68 41.941 80.768C41.941 80.856 41.979 80.933 41.993 81.018C42.006 81.101 41.994 81.185 42.007 81.268C42.048 81.516 42.189 81.755 42.334 81.955C42.555 82.258 42.96 82.402 43.312 82.463C43.443 82.485 43.552 82.524 43.687 82.517C43.775 82.512 43.852 82.478 43.937 82.463C44.278 82.404 44.605 82.299 44.875 82.073C45.238 81.769 45.523 81.378 45.734 80.956C45.785 80.854 45.814 80.746 45.861 80.643C46.269 79.742 46.614 79.135 47.625 78.852C47.708 78.829 47.791 78.837 47.875 78.823C47.983 78.806 48.076 78.77 48.187 78.768C48.604 78.763 49.021 78.768 49.437 78.768C50.256 78.768 51.139 78.711 51.812 79.275C52.233 79.628 52.48 80.153 52.702 80.643C52.748 80.746 52.778 80.854 52.828 80.956C53.241 81.781 53.961 82.518 54.937 82.518C55.175 82.518 55.397 82.51 55.625 82.433C56.463 82.149 56.796 81.347 56.748 80.518C56.743 80.43 56.709 80.354 56.695 80.268C56.665 80.082 56.655 79.888 56.603 79.706C56.526 79.432 56.424 79.162 56.333 78.893C56.185 78.456 56.043 78.017 55.895 77.581C55.727 77.083 55.563 76.584 55.416 76.081C55.263 75.556 55.069 75.042 54.916 74.518C54.726 73.867 54.481 73.231 54.291 72.581C54.002 71.592 53.623 70.631 53.334 69.643C53.181 69.119 52.987 68.605 52.834 68.081C52.699 67.619 52.549 67.162 52.395 66.706C52.333 66.52 52.299 66.326 52.228 66.143C51.98 65.496 51.758 64.808 51.305 64.268C50.988 63.89 50.432 63.544 49.937 63.463C49.875 63.453 49.812 63.458 49.75 63.448C49.686 63.438 49.627 63.411 49.562 63.4C49.424 63.378 49.265 63.386 49.125 63.395C48.958 63.404 48.727 63.469 48.562 63.512ZM49.312 71.707C49.472 71.767 49.276 71.656 49.437 71.736C49.51 71.773 49.568 71.837 49.625 71.893C49.923 72.188 50.113 72.602 50.18 73.018C50.2 73.14 50.187 73.27 50.187 73.393C50.187 73.495 50.197 73.604 50.18 73.706C50.11 74.111 49.589 74.45 49.187 74.386C48.834 74.329 48.512 74.116 48.398 73.768C48.366 73.668 48.375 73.559 48.375 73.456C48.375 73.313 48.36 73.159 48.382 73.018C48.447 72.615 48.733 71.908 49.125 71.735C49.19 71.706 49.245 71.717 49.312 71.707ZM32.437 63.025C32.31 63.058 32.191 63.067 32.062 63.088C31.877 63.118 31.68 63.175 31.5 63.227C30.672 63.469 29.853 63.842 29.187 64.4C29.032 64.531 28.894 64.687 28.75 64.831C28.627 64.954 28.494 65.072 28.382 65.206C28.203 65.42 28.062 65.656 27.916 65.893C27.636 66.347 27.44 66.821 27.291 67.331C27.261 67.434 27.213 67.536 27.195 67.643C27.166 67.81 27.145 67.976 27.118 68.143C27.107 68.207 27.08 68.266 27.07 68.331C27.028 68.59 27.062 68.88 27.062 69.143C27.062 69.366 27.034 69.61 27.07 69.831C27.08 69.895 27.107 69.954 27.118 70.018C27.128 70.08 27.122 70.143 27.132 70.206C27.221 70.753 27.481 71.421 27.772 71.893C28.335 72.809 28.975 73.318 29.875 73.871C30.167 74.051 30.494 74.167 30.812 74.29C31.265 74.464 31.722 74.611 32.187 74.746C32.496 74.836 32.816 74.887 33.125 74.977C33.589 75.112 34.049 75.241 34.5 75.415C35.114 75.652 35.736 76.168 35.881 76.831C35.904 76.938 35.937 77.031 35.937 77.143C35.937 77.255 35.905 77.348 35.881 77.456C35.815 77.754 35.651 77.992 35.437 78.206C35.04 78.603 34.549 78.797 34 78.886C33.742 78.927 33.449 78.896 33.187 78.893C33.076 78.891 32.983 78.855 32.875 78.838C32.813 78.828 32.75 78.833 32.687 78.823C32.064 78.722 31.424 78.395 30.875 78.095C30.558 77.921 30.261 77.708 29.937 77.546C29.723 77.438 29.481 77.354 29.25 77.29C29.129 77.256 28.999 77.268 28.875 77.268C28.772 77.268 28.664 77.259 28.562 77.275C27.941 77.376 27.37 77.874 27.147 78.456C27.061 78.679 26.969 79.094 27.007 79.331C27.018 79.395 27.044 79.454 27.055 79.518C27.192 80.31 27.716 80.844 28.312 81.338C29.364 82.207 30.667 82.732 32 82.963C32.064 82.974 32.123 83 32.187 83.011C32.291 83.027 32.397 83.009 32.5 83.025C32.586 83.039 32.662 83.074 32.75 83.079C32.978 83.092 33.209 83.081 33.437 83.081C33.713 83.081 34.043 83.117 34.312 83.073C34.377 83.063 34.436 83.036 34.5 83.025C34.603 83.009 34.709 83.027 34.812 83.011C35.982 82.822 37.147 82.345 38.062 81.588C38.301 81.39 38.542 81.195 38.743 80.956C39.161 80.457 39.556 79.88 39.791 79.268C39.885 79.023 39.951 78.77 40.021 78.518C40.056 78.396 40.097 78.268 40.118 78.143C40.131 78.06 40.119 77.976 40.132 77.893C40.146 77.807 40.181 77.731 40.186 77.643C40.2 77.395 40.187 77.142 40.187 76.893C40.187 76.65 40.219 76.383 40.18 76.143C40.17 76.079 40.143 76.02 40.132 75.956C40.122 75.893 40.128 75.83 40.118 75.768C40.073 75.496 39.983 75.217 39.895 74.956C39.817 74.725 39.74 74.49 39.639 74.268C39.589 74.157 39.523 74.059 39.459 73.956C39.343 73.766 39.234 73.574 39.103 73.393C39.038 73.302 38.954 73.229 38.882 73.143C38.814 73.061 38.76 72.971 38.686 72.893C38.351 72.537 37.856 72.172 37.437 71.915C37.279 71.817 37.104 71.742 36.937 71.659C36.732 71.556 36.527 71.435 36.312 71.352C35.882 71.187 35.443 71.044 35 70.915C34.525 70.776 34.038 70.678 33.562 70.54C33.291 70.461 33.01 70.397 32.75 70.282C32.648 70.237 32.537 70.206 32.437 70.156C31.95 69.912 31.409 69.411 31.377 68.831C31.357 68.483 31.51 68.136 31.75 67.893C32.136 67.502 32.518 67.301 33.062 67.213C33.204 67.19 33.357 67.206 33.5 67.206C33.643 67.206 33.796 67.19 33.937 67.213C34.396 67.287 34.906 67.469 35.312 67.691C36.206 68.18 37.087 69.057 38.187 68.685C38.507 68.578 38.774 68.404 38.993 68.143C39.143 67.963 39.269 67.737 39.353 67.518C39.45 67.267 39.484 66.968 39.445 66.706C39.432 66.623 39.444 66.538 39.43 66.456C39.327 65.822 38.871 65.327 38.437 64.893C37.627 64.082 36.368 63.444 35.25 63.2C35.104 63.168 34.96 63.112 34.812 63.088C34.75 63.078 34.687 63.083 34.625 63.073C34.539 63.059 34.463 63.025 34.375 63.02C34.251 63.012 34.123 63.03 34 63.011C33.914 62.997 33.838 62.962 33.75 62.957C33.533 62.944 33.277 62.928 33.062 62.963C32.977 62.977 32.9 63.011 32.812 63.017C32.688 63.024 32.562 63.02 32.437 63.025ZM64.062 63.025C63.816 63.088 63.558 63.096 63.312 63.165C62.581 63.37 61.883 63.654 61.25 64.081C61.125 64.165 60.991 64.241 60.875 64.338C60.787 64.411 60.713 64.5 60.625 64.573C60.52 64.661 60.409 64.731 60.314 64.831C60.24 64.908 60.186 64.999 60.118 65.081C60.063 65.146 59.999 65.203 59.945 65.268C59.848 65.384 59.772 65.518 59.687 65.643C59.277 66.251 59.05 66.818 58.854 67.518C58.819 67.64 58.778 67.768 58.757 67.893C58.747 67.955 58.753 68.018 58.743 68.081C58.732 68.145 58.705 68.204 58.695 68.268C58.672 68.411 58.694 68.561 58.686 68.706C58.679 68.834 58.625 68.949 58.625 69.081C58.625 69.212 58.679 69.327 58.686 69.456C58.694 69.6 58.672 69.75 58.695 69.893C58.961 71.543 59.745 72.794 61.187 73.684C61.921 74.137 62.736 74.443 63.562 74.684C63.871 74.774 64.191 74.825 64.5 74.915C65.049 75.075 65.591 75.228 66.125 75.434C66.817 75.7 67.378 76.205 67.507 76.956C67.518 77.018 67.548 77.079 67.548 77.143C67.548 77.207 67.518 77.268 67.507 77.331C67.336 78.325 66.47 78.739 65.562 78.886C65.323 78.924 65.055 78.893 64.812 78.893C64.578 78.893 64.352 78.824 64.125 78.774C63.758 78.694 63.267 78.525 62.937 78.345C62.261 77.976 61.627 77.5 60.875 77.29C60.754 77.256 60.624 77.268 60.5 77.268C59.925 77.268 59.594 77.423 59.187 77.831C59.025 77.993 58.858 78.175 58.772 78.393C58.687 78.608 58.577 78.913 58.564 79.143C58.556 79.279 58.595 79.388 58.618 79.518C58.694 79.957 58.899 80.302 59.18 80.643C59.248 80.725 59.301 80.816 59.377 80.892C59.452 80.967 59.543 81.02 59.625 81.088C59.751 81.193 59.871 81.298 60 81.399C60.848 82.061 61.946 82.606 63 82.836C63.146 82.868 63.29 82.924 63.437 82.948C63.5 82.958 63.563 82.953 63.625 82.963C63.711 82.977 63.787 83.011 63.875 83.017C63.958 83.021 64.042 83.012 64.125 83.025C64.211 83.039 64.287 83.074 64.375 83.079C64.603 83.092 64.834 83.081 65.062 83.081C65.338 83.081 65.668 83.117 65.937 83.073C66.002 83.063 66.061 83.036 66.125 83.025C66.208 83.012 66.292 83.024 66.375 83.011C66.439 83 66.498 82.973 66.562 82.963C66.625 82.953 66.688 82.958 66.75 82.948C66.875 82.928 67.003 82.886 67.125 82.852C68.158 82.562 68.916 82.215 69.75 81.525C69.902 81.4 70.05 81.287 70.186 81.143C70.26 81.065 70.314 80.975 70.382 80.893C70.521 80.728 70.67 80.574 70.79 80.393C71.301 79.621 71.658 78.745 71.805 77.831C71.818 77.748 71.807 77.663 71.82 77.581C71.83 77.516 71.857 77.457 71.868 77.393C71.894 77.232 71.875 77.056 71.875 76.893C71.875 76.73 71.894 76.554 71.868 76.393C71.857 76.329 71.83 76.27 71.82 76.206C71.807 76.123 71.818 76.038 71.805 75.956C71.708 75.355 71.495 74.678 71.202 74.143C70.989 73.755 70.727 73.418 70.445 73.081C70.377 72.999 70.324 72.908 70.248 72.832C70.173 72.756 70.082 72.704 70 72.636C69.661 72.352 69.316 72.085 68.937 71.852C68.229 71.416 67.417 71.165 66.625 70.934C66.52 70.903 66.419 70.86 66.312 70.836C65.699 70.701 64.947 70.535 64.375 70.282C64.229 70.218 64.078 70.171 63.937 70.095C63.512 69.863 63.031 69.41 63.002 68.893C62.946 67.935 63.835 67.35 64.687 67.213C64.829 67.19 64.982 67.206 65.125 67.206C65.248 67.206 65.378 67.193 65.5 67.213C65.925 67.281 66.363 67.403 66.75 67.596C67.714 68.079 68.636 69.084 69.812 68.685C70.11 68.584 70.415 68.385 70.618 68.143C70.768 67.963 70.894 67.737 70.978 67.518C71.059 67.307 71.062 67.116 71.062 66.893C71.062 66.75 71.078 66.597 71.055 66.456C70.953 65.828 70.493 65.323 70.062 64.893C69.153 63.985 67.639 63.293 66.375 63.088C66.313 63.078 66.25 63.083 66.187 63.073C66.102 63.059 66.025 63.025 65.937 63.02C65.834 63.014 65.728 63.027 65.625 63.011C65.539 62.997 65.463 62.962 65.375 62.957C65.158 62.944 64.902 62.928 64.687 62.963C64.602 62.977 64.525 63.011 64.437 63.017C64.313 63.024 64.187 63.02 64.062 63.025ZM48.375 86.415C47.987 86.499 47.589 86.567 47.25 86.791C47.101 86.889 46.935 87.007 46.82 87.143C46.577 87.43 46.319 87.957 46.257 88.331C46.247 88.393 46.253 88.456 46.243 88.518C46.229 88.604 46.194 88.68 46.189 88.768C46.172 89.058 46.187 89.353 46.187 89.643C46.187 90.101 46.187 90.56 46.187 91.018C46.187 95.497 46.187 99.976 46.187 104.456C46.187 104.914 46.187 105.372 46.187 105.831C46.187 106.059 46.199 106.29 46.186 106.518C46.181 106.606 46.146 106.682 46.132 106.768C46.098 106.983 46.114 107.238 46.127 107.456C46.133 107.563 46.18 107.66 46.186 107.768C46.196 107.933 46.169 108.104 46.195 108.268C46.283 108.814 46.482 109.423 46.882 109.823C47.07 110.011 47.314 110.142 47.562 110.226C47.664 110.26 47.769 110.306 47.875 110.323C47.977 110.34 48.085 110.331 48.187 110.331C48.29 110.331 48.398 110.34 48.5 110.323C49.059 110.232 49.573 109.835 49.825 109.331C49.909 109.164 50.025 108.826 50.055 108.643C50.065 108.581 50.06 108.518 50.07 108.456C50.084 108.37 50.118 108.293 50.123 108.206C50.133 108.039 50.117 107.872 50.127 107.706C50.133 107.598 50.18 107.501 50.186 107.393C50.206 107.041 50.187 106.683 50.187 106.331C50.187 105.497 50.178 104.664 50.188 103.831C50.189 103.719 50.225 103.626 50.243 103.518C50.263 103.394 50.237 103.267 50.257 103.143C50.32 102.752 50.527 102.11 51 102.082C51.101 102.076 51.215 102.072 51.312 102.104C52.019 102.334 52.515 103.516 52.828 104.143C52.932 104.351 53.043 104.556 53.139 104.768C53.186 104.871 53.216 104.979 53.266 105.081C53.409 105.373 53.567 105.659 53.702 105.956C53.739 106.037 53.761 106.124 53.798 106.206C53.942 106.523 54.12 106.825 54.264 107.143C54.504 107.672 54.736 108.21 55.041 108.706C55.185 108.94 55.316 109.185 55.5 109.393C55.587 109.491 55.653 109.611 55.752 109.698C56.089 109.998 56.608 110.312 57.062 110.386C57.145 110.399 57.23 110.387 57.312 110.4C57.443 110.421 57.551 110.47 57.687 110.448C57.752 110.438 57.811 110.411 57.875 110.4C58.064 110.37 58.258 110.361 58.437 110.282C58.85 110.1 59.208 109.77 59.352 109.331C59.379 109.248 59.369 109.165 59.382 109.081C59.396 108.995 59.438 108.919 59.429 108.831C59.422 108.766 59.393 108.707 59.382 108.643C59.369 108.56 59.381 108.476 59.368 108.393C59.32 108.098 59.15 107.738 59.041 107.456C58.958 107.24 58.831 107.041 58.736 106.831C58.699 106.749 58.676 106.662 58.639 106.581C58.486 106.242 58.307 105.913 58.141 105.581C57.849 104.997 57.552 104.416 57.266 103.831C57.196 103.687 57.149 103.536 57.078 103.393C56.749 102.733 56.37 102.064 56.243 101.331C56.228 101.245 56.194 101.168 56.189 101.081C56.134 100.127 56.822 99.403 57.291 98.643C57.779 97.852 58.223 96.874 58.382 95.956C58.408 95.808 58.469 95.666 58.493 95.518C58.503 95.456 58.497 95.393 58.507 95.331C58.518 95.266 58.545 95.207 58.555 95.143C58.568 95.06 58.557 94.976 58.57 94.893C58.584 94.807 58.618 94.731 58.623 94.643C58.632 94.497 58.618 94.351 58.627 94.206C58.633 94.098 58.68 94.001 58.686 93.893C58.706 93.546 58.706 93.178 58.686 92.831C58.68 92.723 58.633 92.626 58.627 92.518C58.618 92.374 58.641 92.224 58.618 92.081C58.607 92.016 58.58 91.957 58.57 91.893C58.557 91.81 58.568 91.726 58.555 91.643C58.545 91.579 58.518 91.52 58.507 91.456C58.497 91.393 58.503 91.33 58.493 91.268C58.453 91.021 58.362 90.698 58.291 90.456C57.859 88.977 56.887 87.728 55.5 87.034C54.949 86.759 54.232 86.561 53.625 86.463C53.542 86.45 53.458 86.461 53.375 86.448C53.289 86.434 53.213 86.4 53.125 86.395C52.979 86.386 52.833 86.4 52.687 86.392C52.58 86.385 52.483 86.338 52.375 86.332C51.961 86.308 51.54 86.331 51.125 86.331C50.667 86.331 50.208 86.331 49.75 86.331C49.522 86.331 49.29 86.319 49.062 86.332C48.975 86.337 48.898 86.372 48.812 86.386C48.67 86.409 48.519 86.398 48.375 86.415ZM52.25 90.525C52.477 90.583 52.714 90.59 52.937 90.666C53.476 90.848 53.929 91.22 54.228 91.706C54.35 91.904 54.517 92.35 54.555 92.581C54.565 92.643 54.56 92.706 54.57 92.768C54.58 92.832 54.607 92.891 54.618 92.956C54.64 93.097 54.625 93.25 54.625 93.393C54.625 93.536 54.64 93.689 54.618 93.831C54.504 94.536 54.251 95.226 53.687 95.698C53.378 95.957 52.96 96.134 52.562 96.198C52.48 96.211 52.395 96.2 52.312 96.213C52.227 96.227 52.15 96.262 52.062 96.266C51.95 96.271 51.858 96.23 51.75 96.213C51.667 96.2 51.583 96.212 51.5 96.198C51.348 96.173 51.199 96.102 51.062 96.034C50.592 95.798 50.339 95.338 50.257 94.831C50.244 94.748 50.256 94.663 50.243 94.581C50.232 94.516 50.205 94.457 50.195 94.393C50.166 94.212 50.187 94.013 50.187 93.831C50.187 92.694 49.988 90.852 51.5 90.588C51.781 90.539 51.961 90.514 52.25 90.525ZM17.75 86.769C17.104 87.126 16.749 87.735 16.632 88.456C16.622 88.518 16.628 88.581 16.618 88.643C16.607 88.707 16.58 88.766 16.57 88.831C16.55 88.954 16.568 89.081 16.561 89.206C16.555 89.313 16.508 89.41 16.502 89.518C16.485 89.808 16.5 90.103 16.5 90.393C16.5 90.643 16.5 90.893 16.5 91.143C16.5 91.286 16.485 91.439 16.507 91.581C16.518 91.645 16.545 91.704 16.555 91.768C16.584 91.949 16.562 92.148 16.562 92.331C16.562 92.726 16.562 93.122 16.562 93.518C16.562 94.56 16.562 95.601 16.562 96.643C16.562 98.351 16.562 100.06 16.562 101.768C16.562 102.331 16.562 102.893 16.562 103.456C16.562 103.746 16.578 104.041 16.561 104.331C16.555 104.438 16.508 104.535 16.502 104.643C16.478 105.057 16.5 105.478 16.5 105.893C16.5 106.308 16.478 106.729 16.502 107.143C16.508 107.251 16.555 107.348 16.561 107.456C16.572 107.641 16.54 107.834 16.57 108.018C16.58 108.082 16.607 108.141 16.618 108.206C16.628 108.268 16.622 108.331 16.632 108.393C16.721 108.937 16.943 109.524 17.375 109.886C17.704 110.162 18.079 110.268 18.5 110.268C18.643 110.268 18.796 110.284 18.937 110.261C19.754 110.128 20.307 109.283 20.43 108.518C20.443 108.435 20.432 108.351 20.445 108.268C20.455 108.204 20.482 108.145 20.493 108.081C20.528 107.86 20.5 107.616 20.5 107.393C20.5 106.914 20.5 106.435 20.5 105.956C20.5 105.206 20.491 104.455 20.5 103.706C20.502 103.535 20.562 103.378 20.562 103.206C20.564 102.347 20.445 101.266 21.187 100.651C21.435 100.446 21.812 100.326 22.125 100.275C22.249 100.255 22.376 100.281 22.5 100.261C22.564 100.25 22.623 100.223 22.687 100.213C22.849 100.187 23.025 100.206 23.187 100.206C23.521 100.206 23.854 100.202 24.187 100.206C24.299 100.207 24.392 100.243 24.5 100.261C24.624 100.281 24.751 100.255 24.875 100.275C25.422 100.364 25.945 100.631 26.2 101.143C26.318 101.378 26.341 101.64 26.382 101.893C26.393 101.957 26.42 102.016 26.43 102.081C26.456 102.242 26.437 102.418 26.437 102.581C26.437 102.893 26.437 103.206 26.437 103.518C26.437 104.31 26.437 105.101 26.437 105.893C26.437 106.287 26.416 106.687 26.439 107.081C26.445 107.188 26.492 107.285 26.498 107.393C26.512 107.622 26.488 107.852 26.502 108.081C26.507 108.168 26.541 108.245 26.555 108.331C26.565 108.393 26.56 108.456 26.57 108.518C26.637 108.929 26.875 109.544 27.189 109.823C27.316 109.936 27.474 110.021 27.625 110.096C27.762 110.164 27.91 110.236 28.062 110.261C28.184 110.28 28.315 110.268 28.437 110.268C28.752 110.268 29.025 110.237 29.312 110.093C29.887 109.806 30.187 109.179 30.318 108.581C30.332 108.517 30.357 108.457 30.368 108.393C30.384 108.29 30.366 108.184 30.382 108.081C30.393 108.016 30.42 107.957 30.43 107.893C30.45 107.771 30.437 107.641 30.437 107.518C30.437 107.289 30.437 107.06 30.437 106.831C30.437 106.247 30.437 105.664 30.437 105.081C30.437 100.622 30.437 96.164 30.437 91.706C30.437 91.122 30.437 90.539 30.437 89.956C30.437 89.665 30.453 89.37 30.436 89.081C30.43 88.973 30.383 88.876 30.377 88.768C30.337 88.083 30.103 87.322 29.5 86.916C29.296 86.779 29.051 86.689 28.812 86.637C28.749 86.623 28.689 86.598 28.625 86.588C28.43 86.556 28.25 86.596 28.062 86.637C27.224 86.821 26.704 87.503 26.57 88.331C26.56 88.393 26.565 88.456 26.555 88.518C26.541 88.604 26.507 88.68 26.502 88.768C26.488 88.997 26.512 89.227 26.498 89.456C26.492 89.563 26.445 89.66 26.439 89.768C26.425 90.016 26.437 90.269 26.437 90.518C26.437 91.018 26.437 91.518 26.437 92.018C26.437 92.433 26.46 92.854 26.436 93.268C26.431 93.356 26.396 93.432 26.382 93.518C26.372 93.58 26.378 93.643 26.368 93.706C26.274 94.283 25.875 94.804 25.312 94.995C25.148 95.051 24.981 95.06 24.812 95.088C24.704 95.105 24.612 95.141 24.5 95.143C24.104 95.148 23.708 95.143 23.312 95.143C23.025 95.143 22.652 95.18 22.375 95.136C22.311 95.125 22.252 95.098 22.187 95.088C22.125 95.078 22.062 95.083 22 95.073C21.673 95.02 21.36 94.876 21.125 94.643C21.027 94.546 20.929 94.452 20.861 94.331C20.474 93.638 20.572 92.845 20.562 92.081C20.56 91.91 20.5 91.753 20.5 91.581C20.499 91.039 20.5 90.497 20.5 89.956C20.5 89.603 20.519 89.245 20.498 88.893C20.493 88.805 20.459 88.729 20.445 88.643C20.432 88.56 20.443 88.476 20.43 88.393C20.417 88.309 20.387 88.226 20.369 88.143C20.195 87.354 19.682 86.776 18.875 86.636C18.723 86.609 18.595 86.573 18.437 86.582C18.208 86.595 17.96 86.682 17.75 86.769ZM35 86.463C34.794 86.516 34.577 86.535 34.375 86.604C33.892 86.767 33.494 87.026 33.21 87.456C32.995 87.782 32.881 88.199 32.82 88.581C32.807 88.663 32.818 88.748 32.805 88.831C32.795 88.895 32.768 88.954 32.757 89.018C32.731 89.179 32.75 89.355 32.75 89.518C32.75 89.851 32.75 90.185 32.75 90.518C32.75 92.539 32.75 94.56 32.75 96.581C32.75 99.581 32.75 102.581 32.75 105.581C32.75 106.122 32.75 106.664 32.75 107.206C32.75 107.448 32.719 107.716 32.757 107.956C32.768 108.02 32.795 108.079 32.805 108.143C32.822 108.246 32.803 108.352 32.82 108.456C32.849 108.638 32.901 108.843 32.96 109.018C33.042 109.257 33.187 109.502 33.334 109.706C33.68 110.185 34.312 110.42 34.875 110.511C34.958 110.524 35.042 110.512 35.125 110.525C35.189 110.536 35.248 110.563 35.312 110.573C35.414 110.59 35.522 110.581 35.625 110.581C37.083 110.581 38.542 110.581 40 110.581C40.396 110.581 40.792 110.581 41.187 110.581C41.39 110.581 41.612 110.605 41.812 110.573C41.877 110.563 41.936 110.536 42 110.525C42.083 110.512 42.167 110.524 42.25 110.511C42.371 110.491 42.508 110.467 42.625 110.434C43.076 110.307 43.503 110.067 43.805 109.706C44.058 109.403 44.191 109.025 44.257 108.643C44.268 108.579 44.295 108.52 44.305 108.456C44.322 108.354 44.312 108.246 44.312 108.143C44.312 108.02 44.325 107.89 44.305 107.768C44.205 107.146 43.914 106.528 43.375 106.166C43.087 105.973 42.717 105.831 42.375 105.775C42.313 105.765 42.25 105.771 42.187 105.761C42.102 105.747 42.025 105.712 41.937 105.707C41.75 105.696 41.562 105.715 41.375 105.704C41.267 105.698 41.17 105.651 41.062 105.645C40.437 105.608 39.756 105.643 39.125 105.643C38.962 105.643 38.786 105.662 38.625 105.636C38.561 105.625 38.502 105.598 38.437 105.588C38.375 105.578 38.312 105.583 38.25 105.573C37.449 105.443 37.049 105.037 36.834 104.268C36.805 104.165 36.822 104.06 36.805 103.956C36.795 103.891 36.768 103.832 36.757 103.768C36.735 103.627 36.75 103.473 36.75 103.331C36.75 102.999 36.732 102.662 36.752 102.331C36.757 102.243 36.791 102.166 36.805 102.081C36.815 102.018 36.81 101.955 36.82 101.893C36.957 101.051 37.484 100.596 38.312 100.463C38.416 100.446 38.522 100.465 38.625 100.448C38.783 100.423 38.897 100.393 39.062 100.393C39.521 100.393 39.979 100.393 40.437 100.393C40.66 100.393 40.905 100.421 41.125 100.386C41.189 100.375 41.248 100.348 41.312 100.338C41.457 100.315 41.606 100.346 41.75 100.323C42.722 100.166 43.51 99.705 43.791 98.706C43.883 98.377 43.875 98.044 43.875 97.706C43.875 97.401 43.797 97.109 43.673 96.831C43.344 96.089 42.79 95.71 42 95.573C41.915 95.558 41.838 95.525 41.75 95.52C41.688 95.516 41.625 95.521 41.562 95.511C41.477 95.497 41.4 95.462 41.312 95.457C40.606 95.416 39.894 95.495 39.187 95.454C39.08 95.448 38.983 95.401 38.875 95.395C38.729 95.386 38.583 95.4 38.437 95.392C38.35 95.386 38.272 95.355 38.187 95.336C37.867 95.266 37.565 95.172 37.314 94.948C37.065 94.727 36.873 94.281 36.82 93.956C36.81 93.893 36.815 93.83 36.805 93.768C36.795 93.704 36.768 93.645 36.757 93.581C36.728 93.4 36.75 93.201 36.75 93.018C36.75 92.815 36.725 92.594 36.757 92.393C36.768 92.329 36.795 92.27 36.805 92.206C36.815 92.143 36.81 92.08 36.82 92.018C36.865 91.737 36.989 91.441 37.148 91.206C37.411 90.815 37.937 90.658 38.375 90.588C38.499 90.568 38.626 90.593 38.75 90.573C38.814 90.563 38.873 90.536 38.937 90.525C39.158 90.49 39.402 90.518 39.625 90.518C40.256 90.518 40.937 90.553 41.562 90.517C41.67 90.51 41.767 90.463 41.875 90.457C41.979 90.451 42.085 90.465 42.187 90.448C42.674 90.37 43.347 90.141 43.68 89.767C44.448 88.903 44.317 87.69 43.437 86.963C43.186 86.755 42.867 86.659 42.562 86.56C42.258 86.461 41.998 86.472 41.687 86.454C41.58 86.448 41.483 86.401 41.375 86.395C40.878 86.366 40.372 86.393 39.875 86.393C38.937 86.393 38 86.393 37.062 86.393C36.606 86.393 36.143 86.368 35.687 86.395C35.6 86.4 35.523 86.434 35.437 86.448C35.296 86.471 35.143 86.457 35 86.463ZM7.125 86.184C6.458 86.287 5.793 86.481 5.187 86.784C4.731 87.012 4.291 87.241 3.875 87.54C3.652 87.7 3.46 87.897 3.25 88.073C3.168 88.142 3.077 88.194 3.002 88.27C2.926 88.345 2.874 88.436 2.805 88.518C2.713 88.628 2.6 88.72 2.507 88.831C1.755 89.727 1.287 90.858 0.917 91.956C0.718 92.545 0.537 93.155 0.43 93.768C0.401 93.936 0.347 94.1 0.32 94.268C0.29 94.455 0.273 94.644 0.243 94.831C0.232 94.895 0.205 94.954 0.195 95.018C0.178 95.121 0.197 95.227 0.18 95.331C0.166 95.416 0.132 95.493 0.127 95.581C0.121 95.684 0.134 95.79 0.118 95.893C0.104 95.979 0.069 96.055 0.064 96.143C0.054 96.309 0.071 96.477 0.061 96.643C0.055 96.751 0.008 96.848 0.002 96.956C-0.021 97.349 -0 97.749 -0 98.143C-0 98.516 -0.02 98.896 0.002 99.268C0.008 99.376 0.055 99.473 0.061 99.581C0.072 99.768 0.053 99.956 0.064 100.143C0.069 100.231 0.104 100.307 0.118 100.393C0.138 100.517 0.112 100.644 0.132 100.768C0.143 100.832 0.17 100.891 0.18 100.956C0.193 101.038 0.182 101.123 0.195 101.206C0.205 101.27 0.232 101.329 0.243 101.393C0.256 101.476 0.244 101.56 0.257 101.643C0.288 101.832 0.335 102.017 0.368 102.206C0.504 102.991 0.724 103.762 0.98 104.518C1.135 104.979 1.302 105.456 1.516 105.893C1.933 106.746 2.394 107.6 3.007 108.331C3.081 108.418 3.169 108.493 3.243 108.581C3.407 108.776 3.563 108.965 3.75 109.142C3.828 109.215 3.918 109.269 4 109.338C4.065 109.393 4.122 109.456 4.187 109.511C4.868 110.081 5.772 110.56 6.625 110.809C6.892 110.887 7.165 110.919 7.437 110.963C7.502 110.973 7.561 111 7.625 111.011C7.865 111.049 8.132 111.018 8.375 111.018C8.582 111.018 8.793 111.028 9 111.017C9.088 111.011 9.164 110.977 9.25 110.963C9.312 110.953 9.375 110.958 9.437 110.948C9.708 110.904 9.99 110.833 10.25 110.745C11.077 110.466 11.829 110.018 12.5 109.463C12.782 109.229 13.068 108.988 13.305 108.706C13.355 108.646 13.395 108.578 13.445 108.518C13.727 108.181 13.99 107.844 14.202 107.456C14.278 107.316 14.326 107.164 14.389 107.018C14.498 106.765 14.599 106.166 14.555 105.893C14.449 105.236 14.114 104.519 13.562 104.122C13.459 104.047 13.37 103.962 13.25 103.915C13.114 103.861 12.957 103.799 12.812 103.775C11.91 103.629 11.182 104.429 10.562 104.948C10.111 105.326 9.527 105.666 8.937 105.761C8.796 105.783 8.643 105.768 8.5 105.768C8.337 105.768 8.161 105.787 8 105.761C7.092 105.614 6.353 104.968 5.807 104.268C5.053 103.303 4.575 101.902 4.368 100.706C4.357 100.642 4.33 100.582 4.32 100.518C4.31 100.456 4.315 100.393 4.305 100.331C4.291 100.245 4.257 100.168 4.252 100.081C4.247 99.997 4.256 99.913 4.243 99.831C4.229 99.745 4.194 99.668 4.189 99.581C4.181 99.435 4.194 99.289 4.186 99.143C4.18 99.035 4.133 98.938 4.127 98.831C4.112 98.582 4.125 98.329 4.125 98.081C4.125 97.832 4.112 97.579 4.127 97.331C4.133 97.223 4.18 97.126 4.186 97.018C4.194 96.872 4.181 96.726 4.189 96.581C4.194 96.493 4.229 96.416 4.243 96.331C4.256 96.248 4.247 96.164 4.252 96.081C4.257 95.993 4.291 95.916 4.305 95.831C4.315 95.768 4.31 95.705 4.32 95.643C4.357 95.413 4.417 95.181 4.478 94.956C4.495 94.893 4.496 94.831 4.507 94.768C4.536 94.603 4.6 94.429 4.647 94.268C4.852 93.565 5.201 92.815 5.605 92.206C5.731 92.014 5.86 91.819 6.007 91.643C6.366 91.216 7.028 90.722 7.562 90.541C7.907 90.424 8.325 90.374 8.687 90.395C8.775 90.4 8.852 90.433 8.937 90.448C9.628 90.568 10.22 90.957 10.75 91.4C11.051 91.652 11.342 91.936 11.687 92.129C12.071 92.343 12.25 92.393 12.687 92.393C12.791 92.393 12.9 92.402 13 92.37C13.087 92.341 13.169 92.293 13.25 92.252C13.386 92.185 13.513 92.121 13.625 92.017C14.15 91.523 14.5 90.872 14.5 90.143C14.5 90.04 14.509 89.932 14.493 89.831C14.419 89.375 14.182 88.95 13.916 88.581C13.749 88.35 13.513 88.156 13.312 87.956C12.369 87.012 10.872 86.362 9.562 86.15C9.459 86.134 9.353 86.152 9.25 86.136C9.164 86.122 9.088 86.087 9 86.082C8.814 86.071 8.624 86.081 8.437 86.081C8.215 86.081 7.97 86.052 7.75 86.088C7.686 86.098 7.627 86.125 7.562 86.136C7.415 86.159 7.273 86.153 7.125 86.184ZM69.461 28.986C69.499 28.921 69.545 28.872 69.571 28.799C69.721 28.371 69.656 27.643 69.656 27.174C69.656 25.945 69.671 24.715 69.656 23.487C69.65 23.005 69.305 22.534 68.781 22.619C67.985 22.748 68.188 23.73 68.155 24.299C68.15 24.387 68.115 24.464 68.101 24.549C68.087 24.633 68.097 24.717 68.071 24.799C67.89 25.352 67.379 25.299 66.906 25.299C66.744 25.299 66.566 25.319 66.406 25.292C66.318 25.276 66.234 25.231 66.156 25.188C65.616 24.887 65.809 24.062 65.78 23.549C65.77 23.373 65.708 23.144 65.629 22.987C65.401 22.532 64.798 22.477 64.476 22.862C64.259 23.121 64.32 23.324 64.274 23.612C64.264 23.676 64.236 23.735 64.226 23.799C64.2 23.96 64.219 24.136 64.219 24.299C64.219 25.424 64.219 26.549 64.219 27.674C64.219 27.797 64.207 27.927 64.226 28.049C64.236 28.113 64.264 28.172 64.274 28.237C64.29 28.339 64.277 28.445 64.283 28.549C64.294 28.745 64.399 28.967 64.539 29.104C64.625 29.189 64.73 29.218 64.844 29.242C64.905 29.256 64.967 29.284 65.031 29.284C65.327 29.284 65.56 29.049 65.67 28.799C65.707 28.715 65.711 28.637 65.726 28.549C65.741 28.464 65.775 28.387 65.78 28.299C65.795 28.032 65.746 27.751 65.789 27.487C65.868 26.998 66.19 26.799 66.656 26.799C67.025 26.799 67.702 26.71 67.946 27.051C68.069 27.223 68.069 27.353 68.101 27.549C68.115 27.635 68.15 27.711 68.155 27.799C68.184 28.308 68.043 29.087 68.719 29.242C68.904 29.285 68.975 29.287 69.156 29.215C69.285 29.164 69.362 29.077 69.461 28.986ZM90.482 28.924C90.719 28.287 90.656 27.595 90.656 26.924C90.656 25.862 90.669 24.799 90.656 23.737C90.655 23.625 90.619 23.532 90.601 23.424C90.587 23.34 90.597 23.256 90.571 23.174C90.447 22.795 90.121 22.549 89.719 22.619C89.597 22.64 89.493 22.715 89.408 22.801C89.296 22.912 89.191 23.078 89.164 23.237C89.149 23.319 89.162 23.404 89.149 23.487C89.135 23.572 89.1 23.649 89.095 23.737C89.079 24.025 89.146 24.474 89.072 24.737C88.908 25.319 88.459 25.299 87.969 25.299C87.786 25.299 87.587 25.321 87.406 25.292C87.149 25.25 86.89 25.05 86.805 24.799C86.747 24.63 86.781 24.413 86.781 24.237C86.781 24.134 86.79 24.026 86.774 23.924C86.764 23.86 86.736 23.801 86.726 23.737C86.681 23.456 86.75 23.268 86.607 22.987C86.406 22.595 85.885 22.482 85.539 22.76C85.467 22.818 85.413 22.909 85.366 22.987C85.137 23.365 85.219 23.993 85.219 24.424C85.219 25.487 85.219 26.549 85.219 27.612C85.219 27.834 85.191 28.079 85.226 28.299C85.236 28.363 85.263 28.422 85.274 28.487C85.311 28.712 85.311 28.86 85.476 29.048C85.702 29.305 86.126 29.347 86.405 29.151C86.501 29.083 86.576 28.966 86.629 28.862C86.731 28.656 86.708 28.457 86.72 28.237C86.726 28.129 86.774 28.032 86.78 27.924C86.799 27.585 86.71 27.323 86.97 27.049C87.08 26.934 87.19 26.864 87.344 26.821C87.483 26.782 87.638 26.799 87.781 26.799C88.223 26.799 88.652 26.717 88.96 27.112C89.168 27.379 89.09 27.797 89.094 28.112C89.095 28.223 89.131 28.316 89.149 28.424C89.203 28.76 89.223 29.068 89.594 29.215C89.802 29.297 89.948 29.297 90.156 29.215C90.313 29.152 90.383 29.051 90.482 28.924ZM73.906 29.319C74.922 28.948 75.628 28.141 75.928 27.112C75.958 27.008 76.006 26.906 76.024 26.799C76.034 26.737 76.029 26.674 76.039 26.612C76.049 26.547 76.076 26.488 76.086 26.424C76.115 26.245 76.115 25.665 76.086 25.487C76.076 25.422 76.049 25.363 76.039 25.299C76.029 25.237 76.034 25.174 76.024 25.112C75.958 24.704 75.788 24.275 75.572 23.924C75.074 23.115 74.283 22.583 73.344 22.431C73.163 22.402 72.964 22.424 72.781 22.424C72.22 22.424 71.632 22.57 71.156 22.885C70.73 23.166 70.351 23.591 70.642 24.112C70.74 24.287 70.897 24.385 71.094 24.417C71.457 24.476 71.729 24.25 72.031 24.099C72.165 24.032 72.325 23.986 72.469 23.946C72.57 23.917 72.677 23.924 72.781 23.924C72.884 23.924 72.992 23.915 73.094 23.931C73.779 24.043 74.355 24.83 74.461 25.487C74.481 25.608 74.469 25.739 74.469 25.862C74.469 26.161 74.481 26.449 74.383 26.737C74.287 27.022 74.117 27.276 73.906 27.487C73.58 27.814 73.316 27.987 72.844 27.987C72.741 27.987 72.633 27.996 72.531 27.979C72.39 27.956 72.222 27.898 72.094 27.834C71.7 27.637 71.117 27.231 70.726 27.676C70.27 28.195 70.696 28.722 71.156 29.026C71.958 29.556 73.014 29.616 73.906 29.319ZM94.835 27.487C94.718 27.772 94.642 27.847 94.344 27.944C94.161 28.004 93.906 28.017 93.719 27.965C93.324 27.854 92.836 27.471 92.469 27.433C92.366 27.422 92.25 27.471 92.156 27.508C91.997 27.571 91.879 27.706 91.81 27.862C91.776 27.94 91.781 28.028 91.781 28.112C91.781 28.656 92.216 28.938 92.656 29.158C92.778 29.22 92.902 29.295 93.031 29.339C93.404 29.465 93.706 29.487 94.094 29.487C94.237 29.487 94.39 29.502 94.531 29.479C95.512 29.321 96.359 28.697 96.524 27.674C96.552 27.497 96.54 27.29 96.53 27.112C96.519 26.921 96.444 26.718 96.359 26.549C96.271 26.373 96.17 26.191 96.03 26.051C95.581 25.602 94.881 25.425 94.281 25.293C93.858 25.201 93.063 25.008 93.164 24.424C93.223 24.084 93.601 23.924 93.906 23.924C94.306 23.924 94.53 23.927 94.906 24.097C95.188 24.225 95.47 24.432 95.781 24.479C96.155 24.535 96.527 24.155 96.531 23.799C96.532 23.716 96.535 23.629 96.508 23.549C96.465 23.423 96.372 23.329 96.281 23.237C95.882 22.833 95.336 22.576 94.781 22.479C94.717 22.468 94.658 22.442 94.594 22.431C94.433 22.405 94.257 22.424 94.094 22.424C93.911 22.424 93.712 22.402 93.531 22.431C92.76 22.556 92.006 22.949 91.643 23.674C91.521 23.919 91.456 24.219 91.414 24.487C91.39 24.632 91.464 24.967 91.511 25.112C91.552 25.236 91.585 25.369 91.643 25.487C92.009 26.217 92.799 26.509 93.531 26.715C93.941 26.83 94.663 26.881 94.82 27.362C94.88 27.544 94.795 27.306 94.835 27.487ZM107.21 27.487C107.093 27.772 107.017 27.847 106.719 27.944C106.536 28.004 106.281 28.017 106.094 27.965C105.699 27.854 105.211 27.471 104.844 27.433C104.741 27.422 104.625 27.471 104.531 27.508C104.372 27.571 104.254 27.706 104.185 27.862C104.151 27.94 104.156 28.028 104.156 28.112C104.156 28.656 104.591 28.938 105.031 29.158C105.153 29.22 105.277 29.295 105.406 29.339C105.779 29.465 106.081 29.487 106.469 29.487C106.612 29.487 106.765 29.502 106.906 29.479C107.887 29.321 108.734 28.697 108.899 27.674C108.927 27.497 108.915 27.29 108.905 27.112C108.894 26.921 108.819 26.718 108.734 26.549C108.659 26.398 108.574 26.24 108.461 26.113C108.391 26.034 108.301 25.982 108.219 25.918C107.755 25.556 107.222 25.417 106.656 25.293C106.233 25.201 105.438 25.008 105.539 24.424C105.598 24.084 105.976 23.924 106.281 23.924C106.681 23.924 106.905 23.927 107.281 24.097C107.563 24.225 107.845 24.432 108.156 24.479C108.528 24.535 108.906 24.155 108.906 23.799C108.906 23.15 107.956 22.664 107.406 22.543C107.26 22.511 107.116 22.455 106.969 22.431C106.808 22.405 106.632 22.424 106.469 22.424C106.286 22.424 106.087 22.402 105.906 22.431C105.391 22.515 104.789 22.743 104.414 23.119C104.36 23.172 104.322 23.24 104.275 23.299C104.075 23.555 103.904 23.847 103.851 24.174C103.828 24.315 103.844 24.469 103.844 24.612C103.844 24.734 103.831 24.865 103.851 24.987C103.876 25.139 103.947 25.287 104.016 25.424C104.068 25.528 104.114 25.64 104.179 25.737C104.505 26.22 105.116 26.495 105.656 26.652C106.099 26.782 106.94 26.841 107.169 27.299C107.203 27.367 107.195 27.417 107.21 27.487ZM82.364 28.862C82.537 28.586 82.625 28.288 82.74 27.987C82.867 27.656 82.981 27.323 83.094 26.987C83.123 26.9 83.165 26.821 83.197 26.737C83.308 26.447 83.399 26.151 83.51 25.862C83.596 25.636 83.654 25.4 83.74 25.174C83.876 24.821 83.999 24.464 84.135 24.112C84.348 23.555 84.586 22.814 83.781 22.635C83.692 22.615 83.617 22.649 83.531 22.668C83.157 22.75 82.99 23.058 82.803 23.362C82.752 23.445 82.714 23.536 82.649 23.61C82.493 23.788 82.259 23.88 82.031 23.917C81.85 23.946 81.652 23.924 81.469 23.924C81.306 23.924 81.13 23.943 80.969 23.917C80.844 23.896 80.699 23.845 80.594 23.776C80.277 23.566 80.203 23.197 79.961 22.926C79.665 22.592 79.095 22.476 78.79 22.862C78.698 22.978 78.651 23.153 78.658 23.299C78.662 23.387 78.694 23.465 78.713 23.549C78.792 23.909 78.934 24.262 79.052 24.612C79.335 25.45 79.665 26.273 79.948 27.112C80.033 27.364 80.134 27.61 80.219 27.862C80.308 28.129 80.41 28.499 80.553 28.737C80.789 29.126 81.01 29.299 81.469 29.299C81.922 29.299 82.078 29.224 82.364 28.862ZM81.656 25.517C81.712 25.574 81.774 25.597 81.813 25.674C81.917 25.88 81.825 26.202 81.649 26.338C81.502 26.452 81.683 26.3 81.531 26.392C81.341 26.292 81.605 26.5 81.408 26.351C81.31 26.277 81.257 26.162 81.219 26.049C81.199 25.989 81.172 25.925 81.165 25.862C81.144 25.654 81.333 25.487 81.531 25.49C81.708 25.492 81.477 25.495 81.656 25.517ZM101.051 28.924C101.45 28.297 101.602 27.55 101.865 26.862C102.063 26.345 102.23 25.816 102.428 25.299C102.539 25.01 102.63 24.713 102.74 24.424C102.773 24.34 102.815 24.26 102.844 24.174C102.969 23.801 103.233 23.141 102.899 22.807C102.804 22.712 102.658 22.667 102.531 22.634C102.419 22.603 102.325 22.639 102.219 22.674C102 22.748 101.807 22.921 101.679 23.112C101.613 23.21 101.575 23.325 101.508 23.424C101.341 23.672 101.079 23.868 100.781 23.917C100.601 23.946 100.402 23.924 100.219 23.924C100.056 23.924 99.88 23.943 99.719 23.917C99.594 23.896 99.449 23.845 99.344 23.776C98.882 23.47 98.846 22.864 98.281 22.674C98.123 22.621 98.005 22.6 97.844 22.654C97.72 22.696 97.592 22.756 97.517 22.869C97.185 23.368 97.621 24.117 97.781 24.612C97.83 24.761 97.891 24.903 97.947 25.049C98.034 25.275 98.091 25.511 98.178 25.737C98.336 26.15 98.494 26.567 98.636 26.987C98.735 27.281 98.836 27.572 98.947 27.862C99.077 28.2 99.161 28.556 99.367 28.862C99.498 29.056 99.731 29.25 99.969 29.292C100.07 29.309 100.179 29.299 100.281 29.299C100.384 29.299 100.495 29.309 100.594 29.276C100.786 29.211 100.923 29.069 101.051 28.924ZM100.094 25.517C100.182 25.504 100.251 25.474 100.344 25.496C100.763 25.593 100.593 26.175 100.344 26.351C100.128 26.503 100.424 26.288 100.219 26.384C100.027 26.227 99.906 26.131 99.907 25.862C99.907 25.798 99.907 25.733 99.937 25.674C99.976 25.597 100.038 25.574 100.094 25.517ZM96.375 63.512C96.11 63.589 95.856 63.698 95.625 63.854C95.532 63.917 95.454 64.001 95.375 64.081C94.57 64.884 94.281 66.085 93.937 67.143C93.715 67.828 93.492 68.515 93.291 69.206C93.156 69.668 92.987 70.124 92.833 70.581C92.791 70.705 92.765 70.83 92.728 70.956C92.575 71.48 92.381 71.994 92.228 72.518C92.056 73.108 91.819 73.678 91.647 74.268C91.475 74.856 91.256 75.43 91.084 76.018C90.949 76.48 90.799 76.936 90.645 77.393C90.541 77.703 90.46 78.02 90.355 78.331C90.243 78.663 90.139 78.995 90.041 79.331C89.883 79.872 89.665 80.51 89.757 81.081C89.805 81.375 89.91 81.652 90.084 81.893C90.324 82.226 90.736 82.395 91.125 82.463C91.255 82.485 91.364 82.524 91.5 82.517C91.588 82.512 91.665 82.478 91.75 82.463C92.09 82.404 92.418 82.299 92.687 82.073C93.051 81.769 93.335 81.378 93.547 80.956C93.597 80.854 93.627 80.746 93.673 80.643C94.082 79.742 94.427 79.135 95.437 78.852C95.52 78.829 95.603 78.837 95.687 78.823C95.818 78.802 95.928 78.768 96.062 78.768C96.479 78.767 96.896 78.768 97.312 78.768C97.623 78.768 97.94 78.752 98.25 78.77C98.338 78.775 98.414 78.809 98.5 78.823C98.562 78.833 98.625 78.828 98.687 78.838C99.015 78.892 99.372 79.063 99.625 79.275C100.046 79.628 100.292 80.153 100.514 80.643C100.561 80.746 100.59 80.854 100.641 80.956C101.054 81.781 101.774 82.518 102.75 82.518C102.987 82.518 103.21 82.51 103.437 82.433C104.005 82.24 104.399 81.727 104.493 81.143C104.512 81.021 104.5 80.891 104.5 80.768C104.5 80.645 104.512 80.515 104.493 80.393C104.38 79.694 104.156 79.004 103.937 78.331C103.85 78.061 103.743 77.795 103.682 77.518C103.588 77.093 103.394 76.686 103.272 76.268C102.911 75.031 102.464 73.818 102.103 72.581C101.968 72.117 101.782 71.669 101.647 71.206C101.494 70.681 101.3 70.168 101.147 69.643C101.11 69.518 101.084 69.392 101.042 69.268C100.909 68.874 100.763 68.48 100.647 68.081C100.494 67.556 100.3 67.043 100.147 66.518C100.11 66.393 100.088 66.266 100.041 66.143C100.008 66.058 99.967 65.979 99.938 65.893C99.882 65.727 99.837 65.553 99.764 65.393C99.385 64.555 98.984 63.872 98.062 63.56C97.961 63.526 97.856 63.48 97.75 63.463C97.688 63.453 97.625 63.458 97.562 63.448C97.498 63.438 97.439 63.411 97.375 63.4C97.044 63.347 96.693 63.428 96.375 63.512ZM97.125 71.707C97.284 71.767 97.089 71.656 97.25 71.736C97.323 71.773 97.381 71.837 97.437 71.893C97.736 72.188 97.926 72.602 97.993 73.018C98.012 73.14 98 73.27 98 73.393C98 73.495 98.01 73.604 97.992 73.706C97.922 74.111 97.401 74.45 97 74.386C96.647 74.329 96.324 74.116 96.211 73.768C96.178 73.668 96.187 73.559 96.187 73.456C96.187 73.313 96.172 73.159 96.195 73.018C96.26 72.615 96.545 71.908 96.937 71.735C97.003 71.706 97.058 71.717 97.125 71.707ZM74.812 63.768C74.275 64.148 73.987 64.685 73.882 65.331C73.872 65.393 73.878 65.456 73.868 65.518C73.854 65.604 73.819 65.68 73.814 65.768C73.795 66.1 73.816 66.436 73.812 66.768C73.811 66.88 73.775 66.972 73.757 67.081C73.73 67.25 73.73 67.474 73.757 67.643C73.768 67.707 73.795 67.766 73.805 67.831C73.828 67.972 73.812 68.125 73.812 68.268C73.812 68.518 73.812 68.768 73.812 69.018C73.812 69.664 73.812 70.31 73.812 70.956C73.812 71.414 73.812 71.872 73.812 72.331C73.812 72.559 73.824 72.79 73.811 73.018C73.804 73.147 73.752 73.262 73.75 73.393C73.732 74.872 73.75 76.352 73.75 77.831C73.75 78.328 73.723 78.834 73.752 79.331C73.758 79.438 73.805 79.535 73.811 79.643C73.821 79.809 73.804 79.977 73.814 80.143C73.819 80.231 73.854 80.307 73.868 80.393C73.881 80.476 73.869 80.56 73.882 80.643C73.958 81.11 74.154 81.623 74.5 81.954C75.19 82.612 76.375 82.64 77.061 81.954C77.254 81.761 77.451 81.403 77.54 81.143C77.599 80.968 77.651 80.763 77.68 80.581C77.697 80.477 77.678 80.371 77.695 80.268C77.705 80.204 77.732 80.145 77.743 80.081C77.781 79.841 77.75 79.573 77.75 79.331C77.75 78.831 77.75 78.331 77.75 77.831C77.75 77.588 77.719 77.32 77.757 77.081C77.768 77.016 77.795 76.957 77.805 76.893C77.828 76.749 77.797 76.6 77.82 76.456C77.943 75.689 78.277 75.136 79.062 74.915C79.312 74.845 79.557 74.844 79.812 74.829C79.92 74.823 80.017 74.776 80.125 74.77C80.477 74.749 80.835 74.768 81.187 74.768C81.322 74.768 81.432 74.802 81.562 74.823C81.706 74.846 81.855 74.824 82 74.832C82.209 74.844 82.702 74.989 82.875 75.104C83.297 75.384 83.539 75.841 83.618 76.331C83.634 76.434 83.616 76.54 83.632 76.643C83.643 76.707 83.67 76.766 83.68 76.831C83.703 76.972 83.687 77.125 83.687 77.268C83.687 77.518 83.687 77.768 83.687 78.018C83.687 78.598 83.656 79.189 83.689 79.768C83.694 79.856 83.729 79.932 83.743 80.018C83.762 80.141 83.744 80.269 83.752 80.393C83.759 80.517 83.798 80.646 83.82 80.768C83.941 81.469 84.373 82.117 85.062 82.351C85.164 82.385 85.269 82.431 85.375 82.448C85.477 82.465 85.585 82.456 85.687 82.456C85.975 82.456 86.312 82.398 86.562 82.246C87.185 81.87 87.505 81.281 87.618 80.581C87.634 80.477 87.616 80.371 87.632 80.268C87.643 80.204 87.67 80.145 87.68 80.081C87.709 79.9 87.687 79.701 87.687 79.518C87.687 79.122 87.687 78.726 87.687 78.331C87.687 74.831 87.687 71.331 87.687 67.831C87.687 67.499 87.705 67.162 87.686 66.831C87.68 66.723 87.633 66.626 87.627 66.518C87.611 66.248 87.639 65.976 87.623 65.706C87.618 65.618 87.584 65.541 87.57 65.456C87.56 65.393 87.565 65.33 87.555 65.268C87.48 64.807 87.267 64.348 86.937 64.018C86.84 63.921 86.746 63.822 86.625 63.754C85.922 63.361 84.962 63.434 84.377 64.02C84.075 64.321 83.891 64.791 83.82 65.206C83.798 65.328 83.759 65.457 83.752 65.581C83.744 65.705 83.762 65.832 83.743 65.956C83.729 66.041 83.694 66.118 83.689 66.206C83.656 66.785 83.687 67.375 83.687 67.956C83.687 68.178 83.716 68.423 83.68 68.643C83.67 68.707 83.643 68.766 83.632 68.831C83.619 68.913 83.631 68.998 83.618 69.081C83.561 69.432 83.419 69.81 83.18 70.079C82.951 70.337 82.572 70.468 82.25 70.559C82.126 70.593 82 70.568 81.875 70.588C81.744 70.609 81.635 70.643 81.5 70.643C81.104 70.644 80.708 70.643 80.312 70.643C80.13 70.643 79.931 70.665 79.75 70.636C79.686 70.625 79.627 70.598 79.562 70.588C79.48 70.575 79.395 70.586 79.312 70.573C79.081 70.536 78.83 70.459 78.625 70.345C78.442 70.243 78.201 70.005 78.086 69.831C77.971 69.657 77.826 69.165 77.814 68.956C77.804 68.79 77.834 68.617 77.791 68.456C77.706 68.14 77.75 67.781 77.75 67.456C77.75 67.101 77.75 66.747 77.75 66.393C77.75 66.23 77.769 66.054 77.743 65.893C77.732 65.829 77.705 65.77 77.695 65.706C77.678 65.602 77.697 65.496 77.68 65.393C77.56 64.649 77.2 63.881 76.437 63.623C76.161 63.529 76.039 63.518 75.75 63.518C75.381 63.518 75.136 63.59 74.812 63.768ZM66 98.924C66.193 98.981 65.928 98.858 66.125 98.944C66.391 99.062 66.659 99.456 66.798 99.706C67.004 100.075 67.214 100.444 67.389 100.831C67.511 101.098 67.614 101.375 67.736 101.643C68.146 102.548 68.539 103.466 68.897 104.393C68.938 104.5 68.999 104.598 69.041 104.706C69.195 105.104 69.368 105.494 69.522 105.893C69.563 106 69.624 106.098 69.666 106.206C69.852 106.689 70.05 107.171 70.264 107.643C70.719 108.647 71.13 109.797 72.25 110.227C72.414 110.29 72.575 110.357 72.75 110.386C72.977 110.422 73.388 110.405 73.625 110.392C73.733 110.385 73.836 110.345 73.937 110.31C74.5 110.12 74.934 109.696 75.147 109.143C75.248 108.88 75.323 108.61 75.368 108.331C75.391 108.186 75.359 108.037 75.382 107.893C75.393 107.829 75.42 107.77 75.43 107.706C75.466 107.485 75.437 107.241 75.437 107.018C75.437 106.539 75.437 106.06 75.437 105.581C75.437 100.935 75.437 96.289 75.437 91.643C75.437 91.122 75.437 90.601 75.437 90.081C75.437 89.838 75.469 89.57 75.43 89.331C75.42 89.266 75.393 89.207 75.382 89.143C75.356 88.978 75.394 88.808 75.368 88.643C75.251 87.921 74.992 87.187 74.312 86.816C74.058 86.677 73.785 86.643 73.5 86.643C73.357 86.643 73.204 86.627 73.062 86.65C72.697 86.71 72.298 86.971 72.084 87.268C71.859 87.58 71.694 87.949 71.632 88.331C71.615 88.438 71.613 88.537 71.584 88.643C71.536 88.824 71.572 89.021 71.561 89.206C71.555 89.313 71.508 89.41 71.502 89.518C71.484 89.828 71.5 90.145 71.5 90.456C71.5 91.393 71.5 92.331 71.5 93.268C71.5 93.622 71.5 93.976 71.5 94.331C71.5 94.493 71.519 94.669 71.493 94.831C71.482 94.895 71.455 94.954 71.445 95.018C71.412 95.222 71.448 95.437 71.436 95.643C71.431 95.731 71.396 95.807 71.382 95.893C71.366 95.996 71.384 96.102 71.368 96.206C71.334 96.411 71.244 96.794 71.116 96.955C71.043 97.047 70.967 97.075 70.875 97.132C70.691 97.094 70.935 97.18 70.75 97.12C70.476 97.03 70.213 96.636 70.077 96.393C69.716 95.747 69.37 95.085 69.103 94.393C69.045 94.242 68.955 94.106 68.897 93.956C68.783 93.662 68.654 93.375 68.541 93.081C68.499 92.973 68.438 92.875 68.397 92.768C68.333 92.602 68.275 92.43 68.202 92.268C68.099 92.041 67.986 91.813 67.897 91.581C67.719 91.119 67.531 90.656 67.327 90.206C67.24 90.015 67.135 89.834 67.048 89.643C67.011 89.561 66.989 89.475 66.952 89.393C66.853 89.175 66.725 88.977 66.611 88.768C66.46 88.493 66.32 88.216 66.145 87.956C65.675 87.255 64.981 86.663 64.125 86.525C63.984 86.503 63.83 86.518 63.687 86.518C63.545 86.518 63.391 86.503 63.25 86.525C63.05 86.558 62.867 86.631 62.687 86.721C61.91 87.11 61.639 87.763 61.507 88.581C61.484 88.725 61.516 88.874 61.493 89.018C61.482 89.082 61.455 89.141 61.445 89.206C61.409 89.426 61.437 89.67 61.437 89.893C61.437 90.351 61.437 90.81 61.437 91.268C61.437 95.976 61.437 100.685 61.437 105.393C61.437 105.956 61.437 106.518 61.437 107.081C61.437 107.433 61.419 107.791 61.439 108.143C61.444 108.231 61.479 108.307 61.493 108.393C61.503 108.455 61.497 108.518 61.507 108.581C61.616 109.246 61.999 109.873 62.625 110.157C63.467 110.54 64.431 110.243 64.916 109.456C65.081 109.187 65.192 108.829 65.243 108.518C65.256 108.435 65.244 108.351 65.257 108.268C65.268 108.204 65.295 108.145 65.305 108.081C65.347 107.821 65.312 107.531 65.312 107.268C65.312 106.706 65.312 106.143 65.312 105.581C65.312 105.042 65.283 104.493 65.314 103.956C65.32 103.848 65.367 103.751 65.373 103.643C65.388 103.395 65.375 103.142 65.375 102.893C65.375 102.393 65.375 101.893 65.375 101.393C65.375 101.23 65.356 101.054 65.382 100.893C65.396 100.807 65.431 100.731 65.436 100.643C65.443 100.518 65.432 100.393 65.439 100.268C65.444 100.18 65.479 100.104 65.493 100.018C65.506 99.935 65.494 99.851 65.507 99.768C65.539 99.569 65.598 99.312 65.711 99.143C65.79 99.025 65.883 98.988 66 98.924ZM78.937 86.784C78.231 87.142 77.941 87.768 77.82 88.518C77.803 88.621 77.822 88.727 77.805 88.831C77.795 88.895 77.768 88.954 77.757 89.018C77.738 89.14 77.75 89.27 77.75 89.393C77.75 89.643 77.75 89.893 77.75 90.143C77.75 90.747 77.75 91.351 77.75 91.956C77.75 96.997 77.75 102.039 77.75 107.081C77.75 107.35 77.736 107.624 77.752 107.893C77.757 107.981 77.791 108.057 77.805 108.143C77.818 108.226 77.807 108.31 77.82 108.393C77.839 108.514 77.864 108.651 77.897 108.768C78.159 109.699 78.736 110.331 79.75 110.331C80.006 110.331 80.26 110.278 80.5 110.184C80.688 110.11 80.858 109.971 81 109.83C81.383 109.451 81.542 109.039 81.632 108.518C81.643 108.454 81.67 108.395 81.68 108.331C81.697 108.227 81.678 108.121 81.695 108.018C81.709 107.932 81.743 107.856 81.748 107.768C81.766 107.458 81.75 107.142 81.75 106.831C81.75 106.226 81.75 105.622 81.75 105.018C81.75 101.518 81.75 98.018 81.75 94.518C81.75 92.768 81.771 91.017 81.75 89.268C81.748 89.156 81.712 89.064 81.695 88.956C81.675 88.832 81.7 88.704 81.68 88.581C81.636 88.308 81.566 88.021 81.452 87.768C81.181 87.171 80.776 86.78 80.125 86.637C79.937 86.596 79.758 86.556 79.562 86.588C79.347 86.623 79.138 86.7 78.937 86.784ZM94.062 86.685C93.777 86.79 93.498 86.924 93.25 87.102C93.135 87.185 93.045 87.295 92.937 87.386C92.879 87.435 92.811 87.471 92.757 87.525C92.684 87.599 92.633 87.692 92.561 87.768C92.249 88.099 91.991 88.459 91.728 88.831C91.395 89.301 91.074 89.777 90.772 90.268C90.58 90.578 90.409 90.901 90.208 91.206C89.927 91.63 89.196 92.922 88.625 92.823C88.245 92.757 88.121 92.088 88.07 91.768C88.039 91.578 88.072 91.395 88.022 91.206C87.984 91.066 88 90.912 88 90.768C88 90.518 88 90.268 88 90.018C88 89.915 88.009 89.807 87.993 89.706C87.979 89.62 87.944 89.543 87.939 89.456C87.927 89.248 87.948 89.038 87.936 88.831C87.931 88.743 87.896 88.666 87.882 88.581C87.872 88.518 87.878 88.455 87.868 88.393C87.827 88.145 87.743 87.872 87.639 87.643C87.387 87.088 86.904 86.738 86.312 86.636C86.227 86.621 86.15 86.587 86.062 86.582C85.905 86.573 85.777 86.609 85.625 86.636C85.207 86.708 84.842 86.943 84.57 87.268C84.3 87.59 84.136 88.044 84.07 88.456C84.057 88.538 84.068 88.623 84.055 88.706C84.045 88.77 84.018 88.829 84.007 88.893C83.985 89.034 84 89.188 84 89.331C84 89.622 84 89.914 84 90.206C84 90.914 84 91.622 84 92.331C84 96.622 84 100.914 84 105.206C84 105.768 84 106.331 84 106.893C84 107.245 83.981 107.604 84.002 107.956C84.007 108.043 84.041 108.12 84.055 108.206C84.068 108.288 84.057 108.373 84.07 108.456C84.195 109.23 84.591 109.979 85.375 110.245C85.581 110.315 85.784 110.331 86 110.331C86.818 110.331 87.438 109.836 87.728 109.081C87.776 108.955 87.797 108.836 87.82 108.706C87.831 108.642 87.857 108.582 87.868 108.518C87.878 108.456 87.872 108.393 87.882 108.331C87.896 108.245 87.931 108.168 87.936 108.081C87.953 107.79 87.934 107.496 87.938 107.206C87.939 107.075 87.991 106.959 87.998 106.831C88.012 106.603 88 106.371 88 106.143C88 105.685 88 105.226 88 104.768C88 104.645 87.988 104.515 88.007 104.393C88.018 104.329 88.045 104.27 88.055 104.206C88.075 104.082 88.05 103.954 88.07 103.831C88.126 103.484 88.248 102.79 88.687 102.77C88.963 102.757 89.133 102.964 89.312 103.143C89.698 103.529 90.123 104.102 90.389 104.581C90.569 104.902 90.785 105.204 90.978 105.518C91.207 105.889 91.418 106.272 91.647 106.643C91.943 107.123 92.245 107.6 92.541 108.081C93.012 108.845 93.466 109.576 94.25 110.059C94.561 110.25 94.952 110.39 95.312 110.448C95.454 110.471 95.607 110.456 95.75 110.456C95.933 110.456 96.132 110.477 96.312 110.448C96.769 110.374 97.238 110.161 97.5 109.768C97.617 109.592 97.659 109.41 97.695 109.206C97.709 109.121 97.75 109.044 97.741 108.956C97.734 108.891 97.705 108.832 97.695 108.768C97.667 108.599 97.658 108.433 97.602 108.268C97.346 107.509 96.876 106.82 96.459 106.143C95.343 104.329 94.222 102.518 93.103 100.706C92.871 100.329 92.629 99.958 92.397 99.581C92.323 99.46 92.269 99.329 92.202 99.206C92.155 99.119 92.095 99.042 92.048 98.956C91.903 98.69 91.706 98.195 91.689 97.893C91.676 97.676 91.66 97.42 91.695 97.206C91.783 96.661 92.067 96.18 92.327 95.706C92.535 95.325 92.751 94.95 92.978 94.581C93.04 94.48 93.085 94.369 93.147 94.268C93.579 93.565 93.984 92.846 94.416 92.143C94.605 91.836 94.77 91.513 94.959 91.206C95.308 90.64 95.673 90.084 96.022 89.518C96.173 89.273 96.333 89.031 96.452 88.768C96.542 88.569 96.595 88.356 96.632 88.143C96.647 88.058 96.681 87.981 96.686 87.893C96.694 87.758 96.659 87.648 96.631 87.518C96.497 86.91 95.882 86.617 95.312 86.525C95.136 86.497 94.929 86.509 94.75 86.52C94.542 86.532 94.262 86.619 94.062 86.685ZM125.437 99.454C125.365 99.427 125.317 99.436 125.25 99.384C124.957 99.156 124.854 98.784 124.728 98.456C124.625 98.187 124.54 97.92 124.459 97.643C124.393 97.417 124.357 97.182 124.291 96.956C124.141 96.441 124.037 95.912 123.897 95.393C123.874 95.311 123.876 95.225 123.853 95.143C123.737 94.711 123.632 94.271 123.555 93.831C123.519 93.622 123.452 93.41 123.397 93.206C123.352 93.042 123.337 92.87 123.291 92.706C123.257 92.583 123.216 92.456 123.195 92.331C123.104 91.806 122.973 91.283 122.834 90.768C122.817 90.706 122.816 90.644 122.805 90.581C122.776 90.412 122.718 90.247 122.682 90.081C122.658 89.974 122.615 89.873 122.584 89.768C122.542 89.624 122.52 89.474 122.478 89.331C122.429 89.162 122.367 88.997 122.312 88.831C122.14 88.299 121.918 87.763 121.555 87.331C121.241 86.956 120.787 86.718 120.312 86.636C120.103 86.6 119.904 86.553 119.687 86.588C119.348 86.643 119.028 86.777 118.75 86.977C118.308 87.296 118.187 87.948 118.187 88.456C118.188 88.59 118.221 88.7 118.243 88.831C118.27 88.997 118.291 89.164 118.32 89.331C118.36 89.562 118.444 89.788 118.494 90.018C118.581 90.415 118.681 90.814 118.791 91.206C118.907 91.619 118.987 92.042 119.104 92.456C119.328 93.256 119.516 94.082 119.693 94.893C119.799 95.375 119.951 95.848 120.057 96.331C120.341 97.63 120.721 98.906 121.006 100.206C121.093 100.604 121.219 100.994 121.307 101.393C121.526 102.396 121.773 103.401 122.041 104.393C122.063 104.475 122.062 104.561 122.084 104.643C122.224 105.161 122.333 105.689 122.479 106.206C122.677 106.912 122.807 107.634 123.042 108.331C123.201 108.802 123.369 109.254 123.695 109.643C123.882 109.866 124.117 110.029 124.375 110.159C124.589 110.266 124.819 110.377 125.062 110.392C125.275 110.404 125.746 110.425 125.937 110.371C126.346 110.257 126.757 110.071 127.061 109.767C127.17 109.658 127.248 109.521 127.333 109.393C127.743 108.772 127.887 108.095 128.084 107.393C128.171 107.084 128.25 106.769 128.318 106.456C128.401 106.079 128.503 105.702 128.603 105.331C128.626 105.248 128.624 105.163 128.647 105.081C128.809 104.479 128.941 103.869 129.103 103.268C129.12 103.206 129.121 103.144 129.132 103.081C129.164 102.894 129.22 102.7 129.271 102.518C129.701 100.989 129.986 99.423 130.416 97.893C130.467 97.711 130.523 97.517 130.555 97.331C130.566 97.267 130.567 97.205 130.584 97.143C130.713 96.668 130.838 96.187 130.943 95.706C131.012 95.391 131.113 95.083 131.182 94.768C131.213 94.624 131.233 94.472 131.272 94.331C131.423 93.773 131.57 93.208 131.693 92.643C131.781 92.244 131.907 91.854 131.994 91.456C132.095 90.997 132.207 90.533 132.334 90.081C132.414 89.797 132.508 89.497 132.555 89.206C132.565 89.143 132.56 89.08 132.57 89.018C132.596 88.859 132.625 88.746 132.625 88.581C132.625 88.378 132.65 88.156 132.618 87.956C132.553 87.554 132.343 87.147 132 86.916C131.658 86.686 131.398 86.643 131 86.643C130.857 86.643 130.704 86.627 130.562 86.65C130.204 86.709 129.756 86.952 129.502 87.207C129.233 87.476 129.017 87.861 128.861 88.206C128.448 89.116 128.281 90.122 128.022 91.081C127.999 91.163 128.001 91.248 127.978 91.331C127.923 91.535 127.856 91.747 127.82 91.956C127.809 92.019 127.808 92.081 127.791 92.143C127.735 92.348 127.668 92.559 127.632 92.768C127.599 92.957 127.54 93.142 127.507 93.331C127.496 93.394 127.495 93.456 127.478 93.518C127.423 93.723 127.356 93.934 127.32 94.143C127.309 94.206 127.308 94.268 127.291 94.331C127.224 94.579 127.162 94.828 127.118 95.081C127.082 95.289 127.015 95.501 126.959 95.706C126.937 95.788 126.938 95.873 126.916 95.956C126.854 96.183 126.795 96.413 126.744 96.643C126.615 97.234 126.442 97.82 126.25 98.393C126.214 98.5 126.162 98.599 126.125 98.706C126.036 98.962 125.881 99.297 125.625 99.425C125.56 99.457 125.505 99.443 125.437 99.454ZM106.625 86.198C106.062 86.242 105.389 86.487 104.875 86.72C104.772 86.766 104.664 86.796 104.562 86.846C104.453 86.901 104.357 86.974 104.25 87.032C102.908 87.766 101.936 88.739 101.202 90.081C101.155 90.166 101.093 90.243 101.05 90.331C101.009 90.411 100.989 90.499 100.952 90.581C100.811 90.891 100.671 91.194 100.562 91.518C100.492 91.728 100.397 91.929 100.334 92.143C100.225 92.516 100.123 92.893 100.022 93.268C100.005 93.33 100.004 93.392 99.993 93.456C99.967 93.603 99.906 93.745 99.882 93.893C99.872 93.955 99.878 94.018 99.868 94.081C99.84 94.248 99.784 94.413 99.757 94.581C99.744 94.663 99.756 94.748 99.743 94.831C99.732 94.895 99.705 94.954 99.695 95.018C99.682 95.101 99.693 95.185 99.68 95.268C99.67 95.332 99.643 95.391 99.632 95.456C99.612 95.579 99.638 95.707 99.618 95.831C99.604 95.916 99.569 95.993 99.564 96.081C99.553 96.268 99.572 96.456 99.561 96.643C99.555 96.751 99.508 96.848 99.502 96.956C99.48 97.328 99.5 97.707 99.5 98.081C99.5 98.454 99.48 98.833 99.502 99.206C99.508 99.313 99.555 99.41 99.561 99.518C99.572 99.705 99.553 99.893 99.564 100.081C99.569 100.168 99.604 100.245 99.618 100.331C99.638 100.454 99.612 100.582 99.632 100.706C99.643 100.77 99.67 100.829 99.68 100.893C99.693 100.976 99.682 101.06 99.695 101.143C99.705 101.207 99.732 101.266 99.743 101.331C99.756 101.413 99.744 101.498 99.757 101.581C99.768 101.645 99.795 101.704 99.805 101.768C99.815 101.83 99.81 101.893 99.82 101.956C99.861 102.208 99.949 102.453 99.993 102.706C100.048 103.025 100.137 103.332 100.228 103.643C100.449 104.399 100.689 105.051 101.014 105.768C101.122 106.006 101.216 106.231 101.353 106.456C101.44 106.596 101.498 106.752 101.584 106.893C101.935 107.464 102.327 108.005 102.757 108.518C102.869 108.651 103.002 108.77 103.125 108.893C103.269 109.037 103.407 109.193 103.562 109.323C104.346 109.98 105.263 110.521 106.25 110.809C106.517 110.887 106.79 110.919 107.062 110.963C107.127 110.973 107.186 111 107.25 111.011C107.49 111.049 107.757 111.018 108 111.018C108.243 111.018 108.51 111.049 108.75 111.011C108.814 111 108.873 110.973 108.937 110.963C109 110.953 109.063 110.958 109.125 110.948C109.338 110.913 109.543 110.85 109.75 110.79C109.875 110.753 110.002 110.731 110.125 110.684C110.64 110.487 111.164 110.238 111.625 109.933C113.244 108.86 114.349 107.201 115.139 105.456C115.268 105.172 115.367 104.871 115.478 104.581C115.658 104.113 115.761 103.623 115.896 103.143C116.009 102.744 116.114 102.301 116.18 101.893C116.19 101.831 116.185 101.768 116.195 101.706C116.225 101.517 116.275 101.331 116.305 101.143C116.322 101.04 116.303 100.934 116.32 100.831C116.33 100.766 116.357 100.707 116.368 100.643C116.388 100.519 116.362 100.392 116.382 100.268C116.396 100.182 116.431 100.106 116.436 100.018C116.447 99.831 116.428 99.643 116.439 99.456C116.445 99.348 116.492 99.251 116.498 99.143C116.519 98.791 116.5 98.433 116.5 98.081C116.5 97.728 116.519 97.37 116.498 97.018C116.492 96.91 116.445 96.813 116.439 96.706C116.428 96.518 116.447 96.33 116.436 96.143C116.431 96.055 116.396 95.979 116.382 95.893C116.366 95.79 116.379 95.684 116.373 95.581C116.368 95.493 116.334 95.416 116.32 95.331C116.303 95.227 116.322 95.121 116.305 95.018C116.295 94.954 116.268 94.895 116.257 94.831C116.247 94.768 116.253 94.705 116.243 94.643C116.232 94.579 116.205 94.52 116.195 94.456C116.185 94.393 116.19 94.33 116.18 94.268C116.114 93.86 116.009 93.417 115.896 93.018C115.856 92.874 115.833 92.724 115.791 92.581C115.748 92.433 115.69 92.29 115.647 92.143C115.615 92.035 115.594 91.935 115.548 91.831C115.424 91.549 115.339 91.243 115.228 90.956C115.154 90.762 115.046 90.578 114.953 90.393C114.651 89.788 114.303 89.225 113.868 88.706C113.612 88.401 113.304 88.137 113 87.886C112.609 87.562 112.196 87.276 111.75 87.032C111.664 86.985 111.587 86.924 111.5 86.88C111.42 86.84 111.332 86.819 111.25 86.782C111.124 86.725 111.004 86.652 110.875 86.602C110.711 86.539 110.541 86.491 110.375 86.435C110.114 86.347 109.835 86.257 109.562 86.213C109.5 86.203 109.437 86.208 109.375 86.198C109.311 86.188 109.252 86.161 109.187 86.15C109.105 86.137 109.02 86.149 108.937 86.136C108.852 86.122 108.775 86.087 108.687 86.082C108.46 86.069 108.228 86.081 108 86.081C107.757 86.081 107.49 86.049 107.25 86.088C107.186 86.098 107.127 86.125 107.062 86.136C106.913 86.16 106.774 86.16 106.625 86.198ZM108.062 90.393C109.808 90.395 111.014 92.034 111.584 93.518C111.827 94.149 112.017 94.79 112.132 95.456C112.143 95.519 112.17 95.579 112.18 95.643C112.193 95.726 112.182 95.81 112.195 95.893C112.209 95.979 112.243 96.055 112.248 96.143C112.253 96.226 112.244 96.31 112.257 96.393C112.271 96.479 112.306 96.555 112.311 96.643C112.321 96.809 112.304 96.977 112.314 97.143C112.32 97.251 112.367 97.348 112.373 97.456C112.395 97.835 112.395 98.326 112.373 98.706C112.367 98.813 112.32 98.91 112.314 99.018C112.304 99.184 112.321 99.352 112.311 99.518C112.306 99.606 112.271 99.682 112.257 99.768C112.241 99.871 112.259 99.977 112.243 100.081C112.232 100.145 112.205 100.204 112.195 100.268C112.182 100.351 112.193 100.435 112.18 100.518C112.153 100.686 112.099 100.85 112.07 101.018C111.959 101.658 111.754 102.301 111.486 102.893C111.391 103.102 111.313 103.315 111.202 103.518C110.69 104.454 109.866 105.376 108.812 105.684C108.713 105.713 108.602 105.744 108.5 105.761C108.417 105.774 108.333 105.762 108.25 105.775C108.165 105.789 108.088 105.827 108 105.827C107.912 105.827 107.835 105.789 107.75 105.775C107.667 105.762 107.583 105.774 107.5 105.761C107.334 105.734 107.157 105.682 107 105.621C105.73 105.133 104.779 103.772 104.355 102.518C104.132 101.862 103.931 101.201 103.82 100.518C103.81 100.456 103.815 100.393 103.805 100.331C103.791 100.245 103.757 100.168 103.752 100.081C103.747 99.997 103.756 99.913 103.743 99.831C103.729 99.745 103.694 99.668 103.689 99.581C103.679 99.414 103.696 99.247 103.686 99.081C103.68 98.973 103.633 98.876 103.627 98.768C103.613 98.54 103.625 98.309 103.625 98.081C103.625 97.832 103.612 97.579 103.627 97.331C103.633 97.223 103.68 97.126 103.686 97.018C103.694 96.872 103.681 96.726 103.689 96.581C103.694 96.493 103.729 96.416 103.743 96.331C103.759 96.227 103.741 96.121 103.757 96.018C103.768 95.954 103.795 95.895 103.805 95.831C103.815 95.768 103.81 95.705 103.82 95.643C103.847 95.475 103.901 95.311 103.93 95.143C104.044 94.486 104.253 93.807 104.547 93.206C104.596 93.104 104.624 92.994 104.675 92.893C104.718 92.806 104.78 92.729 104.827 92.643C105.428 91.543 106.341 90.607 107.625 90.4C107.766 90.378 107.92 90.393 108.062 90.393Z"/></g>
<g id="layer-text" fill="#000000" font-family="Wix Madefor Text">
<text x="14.594" y="57.061" font-weight="700" font-size="2.9" text-anchor="start" letter-spacing="0.12">COLORBLOCK</text>
<text x="38.859" y="56.593" font-weight="700" font-size="1.595" text-anchor="middle">×</text>
<text x="41.463" y="57.061" font-weight="700" font-size="2.9" text-anchor="start" letter-spacing="0.12">DNA</text>
<text x="14.594" y="126.461" font-weight="600" font-size="3.351" text-anchor="start">Dinner · 10 oct 2026 · 18:00</text>
<text x="14.594" y="130.811" font-weight="600" font-size="3.351" text-anchor="start">DNA Kitchen, Samokatnaya 4s53</text>
<text x="49.755" y="33.83" font-weight="700" font-size="2.9" text-anchor="start" letter-spacing="0.12" transform="rotate(180 66.594 24.83)">COLORBLOCK</text>
<text x="74.02" y="33.363" font-weight="700" font-size="1.595" text-anchor="middle" transform="rotate(180 66.594 24.83)">×</text>
<text x="76.624" y="33.83" font-weight="700" font-size="2.9" text-anchor="start" letter-spacing="0.12" transform="rotate(180 66.594 24.83)">DNA</text>
</g>
<g id="layer-guides" fill="none" stroke="#888888" stroke-width="0.15" font-family="Wix Madefor Text" font-size="2.2">
<path d="M10.594 52.661 L122.594 52.661 L122.594 132.661 L10.594 132.661 L10.594 52.661" stroke-dasharray="0.6 0.6"/>
<text x="66.594" y="2.8" fill="#888888" stroke="none" font-weight="500" font-size="2" text-anchor="middle">STRUT (folds back, reads from behind)</text>
</g>
</svg>