<svg xmlns="http://www.w3.org/2000/svg" width="33.2mm" height="260.0mm" viewBox="0 0 33.24 259.96">
  <title>Нож-контур — 33 × 260 мм</title>
  <path id="nozh-kontur" d="M1.09 48.59C1.24 53.91 0.89 59.25 1 64.58C1.1 69.23 1 63.93 1.37 68.54C1.69 72.51 1.54 76.55 1.76 80.53C1.88 82.62 2.22 84.4 2.6 86.43C3.07 88.92 3.43 91.84 3.55 94.37C3.58 95.03 3.41 95.69 3.45 96.35C3.64 99.51 4.82 103.1 6.15 105.94C6.72 107.15 7.69 108.15 8.16 109.39C8.81 111.12 8.52 113.55 8.58 115.36C8.77 120.69 8.83 126.01 9.01 131.34C9.17 136.01 9.35 140.67 9.46 145.34C9.5 147.26 9.27 149.44 9.58 151.33C10.35 156.15 10.14 150.29 10.22 155.23C10.41 165.88 9.61 176.56 9.21 187.2C8.89 195.86 8.02 204.49 7.79 213.16C7.71 216.41 7.35 219.93 7.74 223.16C7.82 223.82 8.1 224.44 8.18 225.1C8.5 227.59 8.64 230.57 8.56 233.09C8.41 237.69 8.06 232.41 8.41 237.05C8.54 238.78 9.27 241.32 8.86 243.02C8.47 244.66 7.45 244.93 6.52 246.18C5.32 247.79 4.76 249.83 4.98 251.83C5.61 257.52 12.12 260.76 17.04 257.83C20.59 255.7 21.94 251.05 20.07 247.35C19.34 245.9 18.7 245.39 17.47 244.37C16.96 243.95 16.28 243.71 15.89 243.17C15.17 242.19 15.17 240.44 15.06 239.32C14.75 235.97 13.95 232.82 13.78 229.46C13.65 226.74 13.95 224.2 13.99 221.51C14.14 210.83 14.55 200.2 15.43 189.55C16.09 181.58 16.39 173.58 16.51 165.58C16.57 161.67 15.89 157.48 16.4 153.59C16.49 152.94 16.82 152.33 16.92 151.68C17.04 150.89 16.97 148.46 16.96 147.68C16.9 144.35 16.8 141.02 16.69 137.69C16.5 132.35 16.2 127.03 16.01 121.71C15.94 119.73 15.72 117.68 15.81 115.71C15.83 115.05 15.76 114.34 16.04 113.75C16.96 111.78 19.45 111.8 21.15 110.99C23.58 109.83 25.58 107.98 27.06 105.74C30.01 101.28 30.87 95.72 31.43 90.51C32.37 81.83 32.04 73.25 31.88 64.56C31.59 48.67 30.97 32.36 26.41 17.04C25.27 13.21 23.77 9.46 21.66 6.06C20.64 4.4 19.36 2.68 17.59 1.75C12.05 -1.2 7.67 5.28 6.05 9.72C4.66 13.54 4.35 17.49 3.43 21.4C2.52 25.22 3.02 21.33 2.44 25.24C1.86 29.18 1.69 33.23 1.46 37.2C1.24 40.98 0.99 44.8 1.09 48.59ZM6.66 67.87C7.2 61.91 6.71 55.89 7.13 49.91C7.68 41.94 8.14 33.95 8.74 25.98C9.69 13.38 8.03 34.54 8.75 22.01C8.97 18.26 10 13.8 11.55 10.38C12.12 9.11 12.6 7.92 14.13 7.53C16.5 6.93 17.63 9.08 18.46 10.8C21.02 16.14 22.29 22.28 23.37 28.06C25.18 37.88 26.01 47.92 26.29 57.89C26.44 63.22 26.69 68.54 26.23 73.85C25.55 81.82 26.22 89.88 24.14 97.71C23.47 100.23 22.32 102.87 20.26 104.57C18.43 106.07 15.05 107.37 12.82 105.96C11.66 105.23 11.12 103.88 10.65 102.7C9.89 100.82 9.52 98.88 9.02 96.93C8.69 95.65 8.16 94.43 7.86 93.14C7.42 91.25 7.29 89.12 7.14 87.18C6.98 85.17 7.23 83.24 7.11 81.22C6.84 76.89 6.27 72.2 6.66 67.87Z" fill="#C5E01C" fill-rule="evenodd"/>
</svg>
