<svg xmlns="http://www.w3.org/2000/svg" viewBox="0 0 433.50 113.75" width="1300" height="341"><path id="sasha" d="M34.12,113.46C28.52,112.89 21.38,110.92 16.68,108.63C7.34,104.09 2.13,97.44 2.57,90.62C2.94,84.90 7.16,80.45 13.20,79.44C16.08,78.95 19.03,79.83 23.31,82.46C29.75,86.41 34.95,87.89 41.62,87.69C44.87,87.60 45.64,87.49 47.38,86.90C51.98,85.33 54.23,82.82 54.24,79.24C54.26,75.16 51.02,72.25 44.23,70.26C41.87,69.57 37.94,68.66 24.75,65.76C19.83,64.67 18.25,64.14 16.11,62.86C13.77,61.45 12.28,60.20 9.46,57.31C3.02,50.70 0.17,43.77 0.21,34.88C0.24,29.39 1.30,25.04 3.81,20.15C11.61,4.97 30.48,-2.79 50.00,1.14C65.70,4.31 76.50,14.21 75.02,24.06C74.18,29.63 69.25,34.39 64.02,34.70C61.26,34.86 59.67,34.27 55.37,31.49C51.51,28.99 49.21,27.81 46.72,27.05C41.83,25.54 36.22,25.74 32.62,27.56C28.68,29.56 27.16,33.22 28.98,36.39C30.60,39.22 33.88,40.70 42.75,42.63C45.02,43.13 48.73,43.97 51.00,44.50C53.27,45.03 56.45,45.65 58.06,45.87C63.50,46.62 64.96,47.41 71.50,53.14C78.07,58.89 79.89,60.00 82.74,60.00C87.35,59.99 90.30,56.44 94.38,46.00C95.10,44.14 96.96,39.02 98.50,34.62C103.12,21.44 104.91,17.23 107.65,13.09C115.79,0.79 130.79,0.29 139.51,12.04C142.45,16.00 143.91,19.33 149.88,35.75C160.02,63.60 161.54,67.59 163.47,71.44C165.72,75.93 167.99,78.38 170.94,79.52C172.83,80.26 176.01,80.26 180.25,79.54C186.66,78.44 189.37,78.98 195.13,82.50C201.51,86.41 206.72,87.89 213.38,87.69C216.62,87.60 217.39,87.49 219.12,86.90C223.73,85.33 225.98,82.82 225.99,79.24C226.01,75.25 222.85,72.34 216.40,70.37C214.31,69.74 204.91,67.57 195.75,65.60C190.76,64.53 188.59,63.60 185.22,61.07C173.45,52.24 168.97,38.67 173.40,25.29C179.48,6.89 199.84,-3.28 221.75,1.14C228.39,2.48 233.87,4.82 240.98,9.36C246.25,12.72 247.63,13.34 250.05,13.46C252.69,13.59 253.93,13.12 257.72,10.57C259.46,9.40 261.63,8.07 262.56,7.60C269.54,4.07 276.71,6.44 280.34,13.46C281.69,16.08 282.52,18.83 283.40,23.58C284.77,31.01 285.95,33.99 288.60,36.65C291.35,39.40 294.78,40.64 299.50,40.60C305.28,40.55 309.51,38.24 312.06,33.75C313.16,31.83 313.95,29.19 314.86,24.45C315.92,18.99 316.51,16.76 317.50,14.58C322.49,3.57 335.08,3.14 340.33,13.79C340.96,15.07 341.71,16.97 341.99,18.00C342.99,21.70 343.20,23.93 344.01,39.62C344.50,49.21 345.06,53.18 346.27,55.68C347.22,57.64 348.19,58.38 349.80,58.36C353.65,58.30 356.81,52.55 364.50,31.62C368.84,19.80 370.09,16.97 372.65,13.09C380.79,0.78 395.79,0.29 404.52,12.05C407.47,16.02 409.34,20.31 414.45,34.88C416.24,39.96 419.61,49.36 421.95,55.75C431.50,81.83 433.30,87.89 433.35,94.12C433.39,98.71 432.40,101.70 429.97,104.36C428.03,106.48 425.64,107.57 422.64,107.70C417.45,107.93 414.33,106.38 408.06,100.46C402.52,95.22 399.52,93.32 394.82,92.08C391.30,91.15 385.97,91.14 382.49,92.06C377.66,93.34 374.71,95.21 369.00,100.60C364.24,105.11 361.58,106.81 357.38,108.05C355.72,108.54 354.91,108.57 343.00,108.65C328.88,108.75 328.12,108.69 324.87,107.10C320.45,104.95 317.47,100.70 316.00,94.43C315.74,93.30 315.23,90.41 314.88,88.00C314.53,85.59 314.02,82.75 313.74,81.68C312.32,76.15 309.26,72.67 304.41,71.09C302.01,70.31 297.63,70.13 295.25,70.71C292.75,71.33 290.25,72.70 288.62,74.35C285.82,77.19 284.74,80.15 283.50,88.37C282.60,94.34 281.90,97.05 280.47,99.97C278.58,103.83 275.09,106.68 271.30,107.47C267.50,108.27 264.29,107.35 257.88,103.64C254.96,101.96 252.98,101.41 250.29,101.56C247.58,101.70 246.08,102.29 241.07,105.17C232.62,110.03 227.86,111.85 220.12,113.17C216.55,113.78 207.43,113.78 203.50,113.17C197.74,112.28 193.79,111.09 185.25,107.67C178.55,104.99 177.24,104.66 173.62,104.81C171.13,104.92 170.49,105.06 166.62,106.32C160.18,108.42 157.26,108.67 153.28,107.46C149.98,106.45 147.69,104.88 142.70,100.17C137.33,95.09 134.49,93.31 129.78,92.07C126.30,91.15 120.96,91.15 117.49,92.06C112.75,93.32 109.70,95.23 104.38,100.25C96.12,108.04 92.01,109.31 81.88,107.24C77.42,106.33 73.56,106.15 70.88,106.72C70.05,106.89 66.06,108.15 62.00,109.50C54.27,112.08 50.44,113.02 45.64,113.48C42.47,113.79 37.35,113.78 34.12,113.46ZM128.00,65.57C128.62,65.29 129.54,64.61 130.05,64.05C131.95,61.94 131.95,59.40 130.03,53.50C128.41,48.53 127.15,45.91 125.76,44.66C124.76,43.76 124.60,43.70 123.45,43.81C121.14,44.03 119.61,46.36 117.39,53.06C115.24,59.51 115.26,62.11 117.48,64.27C119.11,65.86 120.55,66.27 124.12,66.15C126.19,66.09 127.15,65.95 128.00,65.57ZM393.00,65.57C393.62,65.29 394.54,64.61 395.05,64.05C396.95,61.94 396.95,59.40 395.03,53.50C393.41,48.53 392.15,45.91 390.76,44.66C389.76,43.76 389.60,43.70 388.45,43.81C386.14,44.03 384.61,46.36 382.39,53.06C380.24,59.51 380.26,62.11 382.48,64.27C384.11,65.86 385.55,66.27 389.12,66.15C391.19,66.09 392.15,65.95 393.00,65.57ZM249.71,50.82C250.63,50.26 251.06,49.74 251.75,48.39C252.62,46.69 252.62,46.65 252.62,43.40C252.62,39.66 252.19,38.15 250.62,36.31C248.68,34.05 245.95,33.61 240.66,34.73C235.14,35.91 232.99,35.37 226.75,31.27C223.30,29.00 220.97,27.82 218.47,27.05C213.58,25.54 207.97,25.74 204.38,27.56C200.43,29.56 198.91,33.22 200.73,36.39C202.35,39.22 205.63,40.70 214.50,42.63C216.77,43.13 220.50,43.97 222.80,44.51C225.10,45.05 228.42,45.66 230.18,45.87C234.81,46.42 235.34,46.60 240.11,49.34C244.59,51.91 247.28,52.32 249.71,50.82Z" fill="#000000" fill-rule="evenodd"/></svg>
